<svg width="241" height="241" viewBox="0 0 241 241" fill="none" xmlns="http://www.w3.org/2000/svg">
<path d="M80.9711 136.519C81.3191 137.251 81.7511 138.175 82.6031 138.295C84.4751 138.295 87.1991 136.855 86.4071 134.839C85.9861 133.769 85.5053 132.724 84.9671 131.707C84.6671 130.651 84.2351 129.655 83.1671 129.523C82.1797 129.589 81.2367 129.957 80.4671 130.579C78.2231 131.707 79.4711 133.303 80.9711 136.519ZM79.6631 131.935C79.9511 131.035 81.7511 130.255 82.9991 130.183C83.8031 130.291 84.0671 131.479 84.4871 132.211C85.1111 133.267 86.6711 135.103 85.9031 136.279C85.5373 136.779 85.056 137.184 84.5001 137.457C83.9443 137.731 83.3305 137.866 82.7111 137.851C81.9311 137.623 81.6431 136.651 81.2351 135.691C80.8271 134.731 79.2791 133.171 79.6631 131.935ZM92.5511 129.859C91.7591 127.819 90.7151 125.191 88.8311 126.403C87.6311 126.943 86.5271 127.315 86.1551 128.179C86.0397 128.588 86.0219 129.018 86.1032 129.435C86.1845 129.852 86.3626 130.244 86.6231 130.579C87.3671 131.971 88.1471 136.063 90.7991 134.659C93.2231 133.531 94.2671 133.135 92.5511 129.859ZM88.9511 133.891C88.4026 133.071 87.9287 132.204 87.5351 131.299C86.6711 129.571 85.1351 128.239 88.0031 127.423C90.4871 126.103 90.4031 127.063 91.7471 129.823C92.1671 130.711 92.7551 131.095 92.9471 132.403C93.0551 133.183 92.2991 133.603 91.4591 133.831C91.4711 133.447 89.9831 135.151 88.9871 133.891H88.9511ZM98.9591 124.747C98.1791 123.127 97.8911 122.899 97.1591 122.719C96.3432 122.732 95.5511 122.996 94.8911 123.475C92.4911 124.795 93.2231 125.563 94.1471 127.795C96.0191 132.307 96.7031 132.187 99.6671 130.195C99.8809 130.094 100.072 129.951 100.23 129.775C100.387 129.598 100.507 129.392 100.584 129.168C100.66 128.944 100.69 128.707 100.673 128.472C100.656 128.236 100.591 128.006 100.483 127.795C100.06 126.739 99.5505 125.719 98.9591 124.747ZM98.8151 130.075C95.8391 131.407 96.6071 131.179 94.5431 127.555C94.1351 126.751 93.4871 126.271 93.6191 125.035C93.7751 124.411 94.6631 123.991 95.2031 123.835C97.9631 122.635 97.6031 123.475 99.3911 126.631C99.9259 127.273 100.245 128.066 100.303 128.899C100.135 129.847 98.4551 130.075 98.8151 130.075ZM109.255 116.311C107.803 117.307 108.619 118.927 109.543 120.427C110.503 122.635 111.271 124.867 113.455 123.475C115.603 122.395 116.563 122.275 115.615 120.031C115.218 118.986 114.737 117.974 114.175 117.007C112.951 114.307 111.799 114.895 109.255 116.311ZM110.563 116.239C111.343 115.819 112.159 115.411 112.807 115.867C113.438 116.546 113.891 117.371 114.127 118.267C114.775 119.695 116.839 121.867 114.571 122.551C112.543 123.619 111.475 123.943 110.647 121.699C110.191 120.727 108.787 118.531 108.871 117.367C109.291 116.755 109.639 116.731 110.563 116.239ZM116.275 114.907C117.715 117.967 118.411 121.411 120.907 119.827C122.479 119.035 124.171 118.315 123.307 116.647C122.861 115.572 122.357 114.523 121.795 113.503C121.015 111.883 120.715 111.643 119.983 111.475C119.167 111.488 118.375 111.752 117.715 112.231L117.151 112.531C116.934 112.626 116.738 112.763 116.576 112.935C116.413 113.107 116.287 113.31 116.205 113.532C116.124 113.754 116.087 113.99 116.099 114.227C116.111 114.463 116.171 114.695 116.275 114.907ZM120.355 112.123C120.981 112.804 121.43 113.628 121.663 114.523C122.647 116.191 123.955 118.123 122.119 118.795C119.167 120.319 119.227 119.923 117.979 117.271C116.671 115.051 115.447 113.671 117.751 112.699C117.751 112.903 119.467 111.559 120.355 112.123ZM102.895 124.615C101.815 122.839 102.247 122.635 100.687 120.583C101.191 122.815 101.527 122.551 102.391 124.531C102.846 125.778 103.454 126.963 104.203 128.059C104.371 127.879 104.563 127.891 103.939 126.643C103.637 125.945 103.288 125.267 102.895 124.615ZM106.147 120.955C105.762 120.05 105.279 119.189 104.707 118.387C104.88 119.37 105.247 120.308 105.787 121.147C106.747 122.839 107.095 124.519 108.247 125.947C108.847 125.395 107.143 123.367 106.147 120.955ZM33.3791 159.103C32.0111 156.547 32.3471 156.355 31.0751 155.095C31.2433 155.982 31.5859 156.826 32.0831 157.579C33.0431 159.259 33.4031 160.951 34.5431 162.379C34.9031 162.055 33.4511 159.235 33.3791 159.103ZM38.2151 160.531C38.5511 160.207 38.3231 160.135 38.0951 159.559C37.6272 158.517 37.1065 157.5 36.5351 156.511C36.065 155.307 35.4527 154.163 34.7111 153.103C35.2511 155.443 35.5751 155.107 36.4271 157.087C36.8714 158.308 37.4725 159.466 38.2151 160.531ZM44.6351 152.767C44.3453 151.748 43.8468 150.8 43.1711 149.983C42.3191 149.275 41.4791 149.707 40.6631 150.103C38.6951 151.063 38.4551 151.303 38.3711 152.035C38.3975 152.925 38.6809 153.787 39.1871 154.519C40.9031 157.771 40.5311 159.319 43.9871 157.627C44.4273 157.544 44.8335 157.334 45.1555 157.023C45.4775 156.711 45.7013 156.312 45.7991 155.875C45.6161 154.774 45.2208 153.718 44.6351 152.767ZM45.3191 156.439C44.4671 157.375 43.8671 157.291 42.9191 157.795C41.9711 158.299 41.5031 157.591 40.9751 156.823C39.3431 153.535 38.3231 152.731 39.1511 151.711C39.2904 151.545 39.4625 151.409 39.6565 151.312C39.8505 151.215 40.0624 151.159 40.2791 151.147C41.9951 150.259 42.6791 149.947 43.5431 151.495C44.8271 154.447 45.7511 155.167 45.3191 156.439ZM51.7031 150.019C51.1871 147.955 49.8431 145.411 48.1031 146.563C46.9031 147.103 45.7991 147.475 45.4271 148.339C45.31 148.747 45.2903 149.177 45.3695 149.594C45.4487 150.01 45.6246 150.403 45.8831 150.739C46.6391 152.143 47.4191 156.223 50.0591 154.831C52.3511 153.823 52.4591 153.631 52.6031 153.067C52.6732 152.525 52.6293 151.973 52.4744 151.448C52.3194 150.924 52.0567 150.437 51.7031 150.019ZM50.6111 154.039C48.6071 155.083 48.3311 154.363 48.2111 154.147C47.8495 153.704 47.5618 153.206 47.3591 152.671C46.3151 150.067 44.0951 148.471 47.2751 147.547C50.0711 146.059 49.6751 147.547 51.4391 150.679C51.8372 151.236 52.0889 151.884 52.1711 152.563C52.2671 153.211 51.7871 153.439 50.6111 154.039ZM53.3351 143.815C52.9166 144.034 52.5977 144.404 52.4437 144.851C52.2897 145.297 52.3124 145.785 52.5071 146.215C53.8871 148.975 54.5591 152.791 57.1991 151.111C59.1551 150.103 59.7071 149.911 59.7071 149.191C59.9351 147.991 57.8111 144.307 57.8711 144.391C56.7071 141.895 55.6271 142.651 53.3351 143.815ZM55.0391 143.647C56.9231 142.675 57.1991 144.427 58.5191 146.803C59.2511 148.003 60.0191 149.203 58.6991 149.899C58.284 150.133 57.8552 150.341 57.4151 150.523C54.9431 151.579 55.6151 150.439 53.8151 147.691C53.4311 146.911 52.7711 146.407 52.9031 145.171C53.0591 144.475 53.6591 144.367 55.0391 143.647ZM69.1271 141.775C69.9431 143.455 70.2311 143.839 70.9391 143.935C72.7751 143.935 73.6991 142.627 73.6991 142.999C75.1031 141.991 75.5951 141.799 73.2551 137.359C72.5231 135.763 72.2471 135.403 71.4551 135.199C70.4679 135.275 69.5268 135.647 68.7551 136.267C66.1871 137.527 68.2991 139.591 69.1271 141.775ZM71.2271 135.775C72.0191 135.895 72.2951 137.071 72.7151 137.827C73.1351 138.583 73.7471 139.627 74.2751 140.683C74.6951 141.487 74.2151 142.411 73.8791 142.471C70.5791 144.223 70.5071 143.671 69.4991 141.355C69.3551 141.031 69.2351 141.031 68.0951 138.727C67.0751 136.831 69.7511 135.883 71.2271 135.775ZM60.6671 143.395C61.1231 144.187 62.4671 146.995 63.2591 148.267C63.8351 147.691 62.2871 145.723 61.3631 143.659C60.9534 142.652 60.3683 141.726 59.6351 140.923C59.8041 141.81 60.1556 142.652 60.6671 143.395ZM65.0951 141.775C65.494 142.443 65.8391 143.141 66.1271 143.863C66.4991 144.595 67.1111 145.651 67.3991 146.095C67.9751 145.531 66.4151 143.503 65.5031 141.487C65.0827 140.46 64.4857 139.513 63.7391 138.691C63.9913 139.796 64.4514 140.843 65.0951 141.775ZM76.9631 136.015C76.6291 134.998 76.0668 134.07 75.3191 133.303C75.7271 135.223 76.2071 135.307 76.9871 137.107C77.1071 137.395 78.5111 140.923 78.8951 140.527C79.2791 140.131 76.9031 135.895 76.9631 136.015ZM73.9991 123.439C74.8271 124.807 75.7631 126.823 75.7031 126.691C75.7994 126.909 75.9422 127.103 76.1215 127.26C76.3008 127.416 76.5122 127.532 76.7409 127.598C76.9696 127.665 77.2101 127.68 77.4454 127.644C77.6807 127.607 77.9052 127.52 78.1031 127.387C79.4711 126.511 82.0031 126.583 80.1791 123.199C79.7278 122.041 79.1902 120.918 78.5711 119.839C77.4671 118.015 75.4511 119.563 74.9711 119.707C74.4636 119.923 74.0091 120.246 73.6391 120.655C72.9551 121.975 73.8671 122.911 73.9991 123.439ZM75.9191 119.839C78.1631 118.975 77.8271 120.211 79.7471 123.439C81.4271 126.235 79.7471 125.839 79.7471 126.403C79.5791 126.235 79.7471 126.403 79.4351 126.403C75.9671 127.867 76.5551 127.123 74.3711 123.295C73.7831 122.095 73.5311 121.531 73.9151 120.895C74.4952 120.397 75.1802 120.036 75.9191 119.839ZM81.3311 119.647C81.7887 120.85 82.3094 122.028 82.8911 123.175C82.9865 123.394 83.1302 123.589 83.3113 123.744C83.4925 123.9 83.7065 124.012 83.9373 124.073C84.1681 124.135 84.4098 124.143 84.6442 124.097C84.8786 124.052 85.0998 123.954 85.2911 123.811C86.1911 123.307 87.3551 123.103 87.9191 122.203C88.0827 121.81 88.1389 121.381 88.082 120.959C88.025 120.538 87.857 120.139 87.5951 119.803C86.8391 118.351 86.7191 117.691 85.9871 116.335C84.7871 114.211 82.2431 116.407 82.3871 116.263C81.7969 116.435 81.2707 116.777 80.8751 117.247C80.5751 117.847 80.7191 118.423 81.3311 119.647ZM82.5311 116.527C84.0311 115.963 84.5831 115.555 85.4711 117.127C87.1511 120.907 89.4551 122.323 85.2551 123.379C83.5991 123.991 83.4551 123.151 82.4111 121.207C80.3231 117.283 81.0671 117.487 82.5671 116.575L82.5311 116.527ZM96.4991 112.423C98.1551 115.735 98.2031 116.179 99.0671 116.575C100.329 116.562 101.544 116.093 102.487 115.255C102.831 114.864 103.038 114.371 103.077 113.851C103.116 113.332 102.985 112.814 102.703 112.375C102.391 112.195 102.511 111.643 100.987 108.775C99.9791 106.975 97.3871 108.151 96.0431 109.687C95.5631 110.575 96.1751 111.319 96.4991 112.423ZM96.4991 109.687C96.8591 109.171 98.8991 108.487 98.7911 108.559C100.519 107.911 100.723 110.011 102.019 111.967C102.44 112.533 102.667 113.219 102.667 113.923C102.547 114.991 101.611 115.327 100.507 115.699C98.9831 116.599 98.2751 114.787 97.6391 113.599C97.0031 112.411 95.6351 110.575 96.4751 109.687H96.4991ZM90.2951 118.411C90.6418 119.276 91.1149 120.085 91.6991 120.811C92.2511 120.259 90.7031 118.255 89.7911 116.227C89.3652 115.196 88.7644 114.246 88.0151 113.419C88.7951 116.215 89.5271 116.431 90.2951 118.411ZM94.2671 116.191C94.6585 117.069 95.1159 117.915 95.6351 118.723C96.2111 118.147 94.6751 116.179 93.7391 114.115C93.3184 113.084 92.7215 112.134 91.9751 111.307C92.8511 114.379 93.6191 114.307 94.2671 116.191ZM104.899 108.787C105.588 110.268 106.357 111.71 107.203 113.107C107.779 112.519 106.255 110.623 105.295 108.499C104.894 107.463 104.309 106.507 103.567 105.679C103.809 106.791 104.261 107.846 104.899 108.787ZM110.395 108.175C110.805 109.046 111.265 109.891 111.775 110.707C112.339 110.155 110.815 108.091 109.903 106.087C109.473 105.09 108.876 104.173 108.139 103.375C109.051 106.591 109.747 106.267 110.395 108.175ZM114.847 106.111C115.254 106.987 115.715 107.837 116.227 108.655C116.803 108.079 115.267 106.123 114.331 104.047C113.91 103.016 113.313 102.066 112.567 101.239C113.467 104.287 114.223 104.263 114.847 106.111ZM32.1431 150.091C32.453 149.989 32.725 149.795 32.9239 149.537C33.1229 149.278 33.2396 148.965 33.2591 148.639C32.8135 146.542 31.8986 144.573 30.5831 142.879C30.2225 142.61 29.7848 142.465 29.3351 142.465C28.8853 142.465 28.4476 142.61 28.0871 142.879C25.6871 143.971 25.8551 144.547 25.7951 144.787C25.6391 145.987 27.5711 149.923 28.1951 150.679C29.0831 151.651 30.4871 150.943 32.1431 150.091ZM29.0351 150.295C28.4111 149.803 27.9791 148.603 26.8391 146.611C26.3951 145.855 25.9871 145.075 26.4551 144.379C27.0551 143.455 29.9831 142.279 30.7871 144.187C32.1311 147.379 33.4151 148.195 32.6471 149.335C31.8791 150.475 29.7071 150.811 29.0351 150.295ZM33.2831 143.731C35.1191 146.887 34.9751 149.059 38.1551 147.091C38.6951 146.863 39.5711 146.539 39.8231 145.891C39.9686 145.481 40.0119 145.041 39.9492 144.611C39.8865 144.18 39.7196 143.771 39.4631 143.419C38.2631 141.019 37.6511 137.311 34.4351 139.819C32.5031 141.175 32.2751 140.707 33.2831 143.731ZM35.0951 140.023L35.5391 139.855C36.4751 139.495 36.9431 139.855 37.4591 140.839C39.3311 144.943 41.4191 145.819 37.2791 147.007C35.6231 147.631 35.4671 146.779 34.4231 144.835C32.9351 142.087 31.8671 140.971 35.0951 140.023ZM42.0551 143.335C42.1851 143.616 42.389 143.855 42.6447 144.028C42.9005 144.202 43.1986 144.302 43.5071 144.319C44.1311 144.319 44.3711 144.079 45.9071 143.251C47.2151 143.251 47.6591 141.415 46.6631 140.179C45.3791 137.779 44.9111 134.179 41.6351 136.579C41.1311 136.951 39.4151 137.467 40.0271 138.979C40.5971 140.478 41.2749 141.934 42.0551 143.335ZM42.2951 136.471L42.7391 136.303C43.6751 135.955 44.1431 136.375 44.6591 137.287C46.4231 141.151 47.8631 141.751 46.0391 142.879H45.8111C42.5231 144.187 43.1831 144.079 40.8671 139.783C39.9431 138.091 39.6791 137.275 42.2951 136.471ZM48.4631 136.543C48.8656 137.206 49.2147 137.901 49.5071 138.619C49.8911 139.387 50.4671 140.383 50.7791 140.863C51.3431 140.287 49.7951 138.295 48.8711 136.255C48.4478 135.225 47.8512 134.276 47.1071 133.447C47.3643 134.554 47.8241 135.604 48.4631 136.543ZM53.4671 136.351C53.8729 137.23 54.338 138.08 54.8591 138.895C55.4351 138.319 53.8871 136.339 52.9631 134.287C52.5431 133.257 51.9416 132.31 51.1871 131.491C52.0631 134.695 52.7831 134.371 53.4671 136.351ZM78.3431 144.703C76.5551 145.903 77.4671 146.875 78.2351 148.723C79.8791 152.695 80.2391 153.343 83.8511 151.123C84.0561 151.013 84.2355 150.86 84.3776 150.676C84.5197 150.491 84.6212 150.279 84.6756 150.052C84.7299 149.826 84.7359 149.59 84.6931 149.361C84.6503 149.132 84.5596 148.915 84.4271 148.723C84.0303 147.678 83.5487 146.666 82.9871 145.699C81.6671 142.975 81.0671 143.359 78.3431 144.703ZM79.8671 144.535C81.7391 143.503 81.9671 145.375 83.3471 147.679C84.7271 149.983 84.4031 150.475 82.7711 151.171C79.6151 152.527 80.6711 151.687 78.5951 148.579C78.2111 147.799 77.5511 147.271 77.7191 146.023C77.9471 145.375 78.4511 145.183 79.8671 144.535ZM89.7311 141.991C89.4191 141.283 89.0591 140.491 88.1351 140.251C87.266 140.233 86.4175 140.517 85.7351 141.055C84.2951 141.991 83.8751 142.387 84.2831 143.455C84.9671 145.183 85.9751 147.127 85.9151 147.055C86.3351 147.955 86.9111 149.083 87.8951 148.951C88.7821 148.717 89.6251 148.34 90.3911 147.835C90.6076 147.759 90.8059 147.639 90.9732 147.482C91.1405 147.325 91.273 147.135 91.3623 146.923C91.4516 146.712 91.4957 146.484 91.4917 146.255C91.4877 146.025 91.4357 145.799 91.3391 145.591C90.8763 144.36 90.3393 143.158 89.7311 141.991ZM90.5471 147.475C88.2431 148.675 87.3911 149.311 86.4311 146.923C85.8191 145.375 83.3231 142.567 85.4591 141.667C86.2013 141.133 87.0784 140.817 87.9911 140.755C88.7831 140.875 89.0471 142.027 89.4671 142.783C90.9071 145.315 91.9391 146.575 90.5351 147.475H90.5471ZM113.119 133.147C110.875 127.315 109.675 129.427 108.007 129.931C107.5 130.147 107.045 130.47 106.675 130.879C106.473 131.257 106.386 131.685 106.424 132.112C106.463 132.538 106.625 132.944 106.891 133.279C108.967 137.419 108.895 139.063 112.687 137.011C114.415 136.459 114.187 134.575 113.119 133.147ZM111.595 137.155L111.247 137.263C110.179 137.647 109.639 137.467 109.171 136.531C107.119 132.931 106.603 131.995 107.083 131.287C107.63 130.757 108.31 130.384 109.051 130.207L109.495 130.039C110.443 129.643 110.935 130.135 111.415 130.999C113.059 134.575 115.279 136.039 111.595 137.155ZM43.9631 170.203C43.8277 169.269 43.4964 168.373 42.9911 167.575C41.6591 164.899 41.4911 163.291 38.7911 164.599C36.4751 165.715 35.5991 166.195 37.3031 169.003C38.1071 170.539 38.5031 172.543 39.7751 172.819C41.0471 173.095 43.8671 171.163 43.9631 170.203ZM38.8751 170.995C37.2191 167.719 36.6671 167.395 36.8351 166.495C37.0031 165.595 40.2671 163.375 41.4671 165.667C42.6671 168.319 43.5431 169.339 43.6151 170.131C43.7351 171.331 40.3871 173.203 38.9111 170.959L38.8751 170.995ZM43.7351 164.935C45.0551 167.155 45.6671 170.227 47.8391 168.907C49.2071 168.031 51.7271 168.091 49.8911 164.707C49.4345 163.553 48.8931 162.434 48.2711 161.359C47.0711 159.643 45.1751 161.167 44.6711 161.359C42.9191 162.343 42.6671 162.835 43.7351 164.935ZM45.7031 161.335C47.9591 160.471 47.6351 161.755 49.5311 164.935C50.0951 165.883 50.4911 166.531 50.1791 167.167C49.9849 167.526 49.6572 167.793 49.2671 167.911C46.1231 169.231 46.3271 168.655 44.9831 166.243C43.4591 163.495 42.5351 162.175 45.7031 161.359V161.335ZM55.6271 157.987C54.4271 155.863 51.8831 158.059 52.0871 157.915C51.7762 157.936 51.4763 158.039 51.2175 158.212C50.9588 158.386 50.7502 158.624 50.6128 158.904C50.4754 159.184 50.414 159.495 50.4348 159.806C50.4555 160.116 50.5577 160.416 50.7311 160.675C51.181 162.102 51.7887 163.475 52.5431 164.767C52.6426 164.982 52.7871 165.173 52.9667 165.328C53.1464 165.482 53.3571 165.596 53.5845 165.662C53.812 165.728 54.051 165.744 54.2854 165.71C54.5197 165.676 54.744 165.592 54.9431 165.463C55.4951 165.091 57.2591 164.395 57.3431 164.263C57.6454 163.861 57.8028 163.368 57.7897 162.865C57.7767 162.362 57.5939 161.878 57.2711 161.491C56.6471 160.459 56.3831 159.391 55.6271 157.987ZM57.2231 163.759C56.752 164.228 56.1888 164.593 55.5691 164.833C54.9495 165.073 54.2868 165.181 53.6231 165.151C53.0111 164.899 52.6271 163.879 51.2831 161.407C50.7671 160.447 50.5031 160.003 50.6951 159.163C50.6951 158.743 51.8951 158.203 52.0871 158.203C54.9671 157.159 54.1271 157.675 56.4671 161.587C56.9831 162.379 57.6311 162.991 57.2231 163.759ZM70.7591 157.651C72.2831 156.931 73.6631 156.079 72.7991 154.579C72.3727 153.511 71.8756 152.473 71.3111 151.471C70.5311 149.863 70.2431 149.623 69.5111 149.443C68.6941 149.46 67.9021 149.728 67.2431 150.211C64.8431 151.507 65.7551 152.767 65.8391 152.911C67.7111 156.667 67.8671 159.403 70.7591 157.651ZM66.6671 153.775C66.4435 153.505 66.2763 153.193 66.1753 152.857C66.0743 152.521 66.0416 152.168 66.0791 151.819C66.2591 151.171 66.9911 150.871 67.6631 150.619C70.3391 149.491 69.8951 150.331 71.7311 153.523C73.1471 155.923 72.8111 156.319 71.1551 157.027C68.1791 158.347 69.0671 157.807 66.6671 153.775ZM59.7911 159.499C60.2065 160.427 60.6919 161.321 61.2431 162.175C61.4471 161.983 61.6271 161.995 61.0031 160.747C60.6947 160.063 60.3378 159.401 59.9351 158.767C58.9871 157.099 59.2631 156.691 57.5351 154.675C58.6391 157.795 59.0471 157.447 59.7911 159.499ZM61.4831 152.575C64.7111 158.779 64.4231 159.019 65.5151 160.267C66.0671 159.715 64.5191 157.711 63.6071 155.683C63.1389 154.502 62.4133 153.441 61.4831 152.575ZM73.3391 147.247C73.7711 149.263 74.2151 149.251 75.0191 151.111C75.4616 152.361 76.0668 153.547 76.8191 154.639C76.9991 154.471 77.1911 154.471 76.5671 153.235C76.2702 152.547 75.917 151.885 75.5111 151.255C74.7911 149.803 74.7911 148.867 73.3391 147.247ZM89.7431 153.643C89.9935 154.558 90.3605 155.438 90.8351 156.259C91.6031 157.759 92.0351 158.971 92.9951 159.115C94.359 158.894 95.6507 158.351 96.7631 157.531C96.2951 157.063 95.1671 158.599 93.0191 158.731C92.2271 158.503 91.9391 157.531 91.5431 156.571C91.1471 155.611 88.6871 152.767 90.8351 151.903C91.5598 151.346 92.4414 151.031 93.3551 151.003C94.1471 151.123 94.4111 152.203 94.8431 153.031C96.4631 155.911 96.8711 156.415 96.4151 157.219L96.6671 157.375C96.8304 157.13 96.9293 156.847 96.9545 156.554C96.9796 156.26 96.9303 155.965 96.8111 155.695C96.2111 154.183 95.1191 151.987 95.1791 152.095C94.8551 151.387 94.5071 150.595 93.5831 150.367C92.8287 150.358 92.0932 150.603 91.4951 151.063C90.2111 151.651 89.2631 152.359 89.7431 153.643ZM101.143 155.395L102.727 154.591C102.938 154.442 103.118 154.253 103.254 154.033C103.39 153.813 103.48 153.568 103.519 153.313C103.559 153.057 103.546 152.796 103.482 152.546C103.418 152.296 103.304 152.061 103.147 151.855C102.777 150.894 102.34 149.959 101.839 149.059C101.239 147.751 100.951 147.271 100.051 147.139C99.233 147.15 98.4391 147.418 97.7831 147.907L97.2071 148.219C96.7731 148.424 96.4328 148.785 96.2547 149.23C96.0765 149.676 96.0738 150.172 96.2471 150.619C97.2671 152.119 98.4791 157.219 101.143 155.395ZM98.3351 148.195C99.7991 147.583 100.531 147.307 101.083 148.279C103.843 153.079 104.191 153.523 101.947 154.483C99.1151 155.683 99.7871 155.371 97.7591 151.795C97.1176 151.16 96.7513 150.298 96.7391 149.395C96.9311 148.807 97.6391 148.507 98.3351 148.219V148.195ZM43.7351 180.055C42.5351 177.931 42.7991 177.403 41.4311 176.035C41.5971 176.923 41.9399 177.767 42.4391 178.519C43.4351 180.247 43.7471 181.867 44.9111 183.319L45.0071 183.211C44.7113 182.112 44.2843 181.052 43.7351 180.055ZM48.6671 181.675C48.6671 180.391 47.3711 178.603 46.8191 177.463C46.3678 176.26 45.7799 175.113 45.0671 174.043C45.6071 176.443 45.9191 176.047 46.7831 178.039C47.2242 179.339 47.8594 180.565 48.6671 181.675ZM55.8671 177.439C56.029 177.045 56.0833 176.616 56.0242 176.194C55.9652 175.772 55.795 175.374 55.5311 175.039C54.7151 173.479 54.6911 172.999 53.9111 171.559C52.7111 169.435 50.1071 171.691 50.3111 171.559C49.722 171.727 49.1958 172.065 48.7991 172.531C48.3191 173.263 48.7991 174.079 49.1351 174.799C49.587 176.026 50.1038 177.228 50.6831 178.399C51.5951 180.235 53.2871 178.879 53.9951 178.567C53.7311 178.843 53.6471 178.819 54.5351 178.399C55.0687 178.227 55.5346 177.891 55.8671 177.439ZM55.4951 177.319C55.3285 177.62 55.0667 177.856 54.7511 177.991C53.0951 178.363 52.0391 179.407 51.1511 177.727C48.3191 172.771 48.5951 172.819 50.4911 171.619C53.3711 170.539 52.5551 171.115 54.8711 174.991C56.0471 176.815 55.4831 177.091 55.5191 177.319H55.4951ZM57.6191 175.003C57.7259 175.211 57.8739 175.396 58.0541 175.545C58.2343 175.694 58.443 175.805 58.6674 175.871C58.8918 175.938 59.1273 175.958 59.3597 175.93C59.592 175.903 59.8163 175.828 60.0191 175.711L61.1231 175.219C62.4431 174.943 63.4391 173.803 62.6951 172.555C62.0988 171.028 61.4218 169.534 60.6671 168.079C59.6471 166.159 57.6191 167.695 56.9831 167.875C56.4749 168.095 56.0204 168.423 55.6511 168.835C55.4492 169.213 55.3621 169.641 55.4005 170.068C55.4388 170.494 55.601 170.9 55.8671 171.235C56.5431 172.446 57.1287 173.706 57.6191 175.003ZM56.1431 169.255C56.6937 168.721 57.3774 168.344 58.1231 168.163L58.5671 167.995C59.5031 167.599 59.9951 168.115 60.4751 168.967C61.9751 172.267 62.8751 172.567 62.4431 173.851C62.1345 174.412 61.6304 174.839 61.0271 175.051C58.2311 175.951 58.9631 175.651 56.6351 171.667C55.4711 169.831 56.1431 169.375 56.1431 169.255ZM69.4151 168.175C68.2151 165.775 67.6631 162.175 64.3871 164.575C63.7871 165.019 63.1871 165.115 62.8751 165.655C62.3711 166.459 62.8751 167.131 63.2591 168.379C64.8311 171.163 64.7951 172.411 66.2831 172.483C67.0031 172.483 69.7391 171.427 69.8831 169.891C69.9313 169.588 69.9146 169.279 69.8339 168.983C69.7532 168.687 69.6104 168.412 69.4151 168.175ZM69.5351 170.467C69.3431 170.911 66.1151 172.867 65.1551 170.923C65.0951 170.803 63.2591 167.515 62.9951 166.831C62.9076 166.575 62.8951 166.298 62.9588 166.035C63.0226 165.771 63.16 165.532 63.3551 165.343C64.0268 164.94 64.7438 164.618 65.4911 164.383C67.2071 163.747 67.3391 165.667 68.8751 168.295C69.5471 169.375 69.8831 169.831 69.5351 170.443V170.467ZM83.1071 157.087C82.9607 156.837 82.7611 156.621 82.5223 156.456C82.2835 156.291 82.0113 156.181 81.7251 156.133C81.4389 156.085 81.1455 156.1 80.8659 156.178C80.5863 156.256 80.3273 156.394 80.1071 156.583C79.3557 156.866 78.6698 157.299 78.0911 157.855C77.8924 158.234 77.8081 158.663 77.8486 159.089C77.8891 159.515 78.0525 159.92 78.3191 160.255C79.6151 162.739 79.8911 164.719 81.6431 164.839C82.0871 164.839 82.2071 164.719 83.6831 163.987C86.4071 163.015 85.3511 161.683 83.1071 157.087ZM83.5271 163.807C82.0751 164.371 81.5471 165.475 80.2991 162.799C79.4351 160.963 77.3591 158.443 79.2911 157.783C80.0597 157.21 80.9846 156.883 81.9431 156.847C82.6391 156.943 82.5191 157.219 84.9791 161.743C85.3151 163.255 84.0911 163.375 83.5271 163.807ZM73.5671 169.123C73.6871 169.003 73.7591 168.943 73.7471 168.811C73.6631 168.067 71.8871 165.331 71.3471 163.879C71.0411 163.07 70.6121 162.313 70.0751 161.635C70.2539 162.592 70.6166 163.505 71.1431 164.323C71.9471 165.775 72.7391 168.295 73.5671 169.123ZM77.7551 167.083C78.0791 166.759 77.8631 166.675 77.6351 166.099C77.1661 165.06 76.6413 164.046 76.0631 163.063C75.5928 161.857 74.9848 160.71 74.2511 159.643C74.7671 161.935 75.1511 161.743 75.9551 163.579C76.4105 164.816 77.015 165.993 77.7551 167.083ZM89.1431 161.395C89.5271 161.023 89.1431 160.483 89.0111 160.339C88.3871 158.827 88.0031 158.503 87.4391 157.327C86.9463 156.12 86.3395 154.963 85.6271 153.871C86.1551 156.271 86.4791 155.887 87.3431 157.867C87.7857 159.117 88.3909 160.303 89.1431 161.395ZM93.3311 166.639C92.9711 165.979 92.7191 164.779 91.5431 164.479C90.3431 164.479 87.9431 165.763 87.7031 166.711C87.3671 167.911 89.6831 173.059 90.9791 173.239C92.1791 173.239 94.6871 172.039 94.8311 170.971C94.9751 169.903 93.8231 167.539 93.3311 166.639ZM90.8591 172.819C90.2831 172.627 90.0071 171.895 89.5031 170.707C89.3591 170.371 87.6791 167.899 88.0151 166.771C88.2551 165.967 90.1751 165.211 91.2671 165.139C91.8671 165.235 92.1671 165.931 92.4671 166.543C93.0191 167.923 94.6271 169.879 94.4591 170.947C94.2671 172.231 91.4471 172.975 90.8591 172.819ZM101.575 166.531C100.975 165.019 99.8951 162.823 99.9431 162.931C99.8358 162.536 99.6346 162.173 99.3568 161.872C99.0789 161.571 98.7325 161.342 98.3471 161.203C97.5949 161.198 96.863 161.447 96.2711 161.911C95.6831 162.271 94.7591 162.631 94.4831 163.387C94.3424 163.75 94.3424 164.152 94.4831 164.515C94.9766 165.765 95.5374 166.987 96.1631 168.175C96.4991 168.919 96.9311 169.831 97.7831 169.963C98.8871 169.963 101.287 168.931 101.671 167.731C101.736 167.535 101.761 167.328 101.744 167.122C101.728 166.915 101.67 166.715 101.575 166.531ZM97.8671 169.459C97.2551 169.291 94.6631 164.731 94.8431 163.591C95.0231 162.451 97.0511 161.803 98.1911 161.731C98.8391 161.827 101.635 166.831 101.383 167.731C101.131 168.631 98.8991 169.375 97.8671 169.459ZM107.335 159.859C106.615 158.263 106.339 157.891 105.547 157.699C104.56 157.765 103.617 158.133 102.847 158.755C101.779 159.295 101.383 160.063 101.743 161.023C102.218 162.271 102.759 163.493 103.363 164.683C103.879 165.823 104.323 166.363 104.959 166.447C105.847 166.567 108.679 165.415 108.943 164.167C109.028 163.805 108.99 163.425 108.835 163.087C107.467 159.487 107.083 159.859 107.335 159.859ZM105.067 165.991C104.299 165.775 104.011 164.791 103.591 163.831C103.291 163.123 101.707 161.215 102.091 160.015C102.391 159.091 104.203 158.335 105.403 158.263C106.183 158.383 106.459 159.463 106.879 160.291C107.851 161.983 108.715 163.219 108.643 164.047C108.499 165.139 105.979 165.943 105.067 165.991ZM108.967 155.959C109.411 158.083 110.671 159.247 110.887 160.411C110.227 160.651 109.183 161.611 109.579 161.947C110.21 162.148 110.851 162.316 111.499 162.451C112.003 162.523 112.039 162.451 112.459 163.315C112.735 163.039 112.747 162.967 112.591 162.691C115.255 162.691 116.287 161.719 118.339 159.655C118.705 159.324 119.042 158.963 119.347 158.575C120.271 159.643 125.347 158.011 123.931 155.671C124.918 155.11 126.016 154.77 127.147 154.675C127.329 155.071 127.572 155.435 127.867 155.755C128.143 155.479 128.059 155.323 127.675 154.555C129.341 154.327 131.028 154.291 132.703 154.447C135.595 155.179 137.983 152.971 136.471 151.483C133.087 149.083 125.671 149.995 121.759 151.327C121.41 150.901 120.942 150.588 120.415 150.427C119.662 150.418 118.929 150.668 118.339 151.135L117.739 151.471C117.532 151.542 117.343 151.656 117.184 151.807C117.026 151.957 116.901 152.139 116.819 152.342C116.737 152.545 116.7 152.762 116.709 152.981C116.719 153.199 116.776 153.413 116.875 153.607C117.403 154.423 116.983 154.195 116.659 154.807C113.755 158.299 116.167 157.795 113.059 153.955C113.455 155.827 113.935 155.983 114.571 157.483C113.753 158.7 112.598 159.651 111.247 160.219C109.939 157.375 110.143 157.135 108.967 155.959ZM123.367 155.599C123.515 155.812 123.618 156.052 123.672 156.306C123.726 156.559 123.728 156.821 123.679 157.075C122.736 157.931 121.54 158.458 120.271 158.575C120.044 158.465 119.83 158.328 119.635 158.167C120.664 157.018 121.957 156.136 123.403 155.599H123.367ZM120.967 150.871C122.035 151.675 120.523 150.871 117.367 153.655C116.359 151.711 120.367 150.499 120.991 150.871H120.967ZM52.4831 186.811C52.2191 186.319 51.9071 184.963 50.6951 184.651C49.7077 184.717 48.7647 185.085 47.9951 185.707C46.2791 186.307 46.6031 188.347 47.6471 189.823C48.5831 191.983 49.1711 193.291 50.1311 193.423C51.7391 193.423 54.5111 192.067 53.8511 190.015C53.5153 188.9 53.0564 187.825 52.4831 186.811ZM50.0831 193.039C49.3031 192.823 49.0031 191.839 48.6071 190.879C48.5231 190.687 47.8511 189.595 47.9231 189.679C47.2751 188.251 46.4231 186.763 47.8631 186.187C48.6048 185.66 49.4759 185.345 50.3831 185.275C50.9831 185.371 51.2831 186.067 51.5831 186.679C52.4711 188.875 54.3071 190.399 53.2871 191.719C52.3938 192.47 51.2928 192.931 50.1311 193.039H50.0831ZM60.7511 186.415C58.6031 182.083 58.5671 181.615 57.5111 181.375C56.7159 181.353 55.9369 181.603 55.3031 182.083C54.1871 182.707 53.1551 183.367 53.7071 184.483C54.3911 186.211 55.3991 188.167 55.3391 188.083C55.7471 188.959 56.3351 190.135 57.3191 189.979C58.8191 189.775 61.4471 188.575 60.7511 186.415ZM56.8631 189.415C56.4071 189.247 56.1311 188.743 55.7831 187.891C55.1471 186.283 53.3831 184.363 54.1991 183.175C55.0691 182.367 56.1841 181.873 57.3671 181.771C58.1711 181.891 58.4351 183.067 58.8551 183.799C59.2751 184.531 59.8991 185.635 60.4271 186.679C61.4351 188.767 57.2711 189.571 56.8631 189.415ZM62.9831 178.315C62.4791 178.639 61.5191 178.771 60.9671 179.587C60.7728 179.968 60.691 180.395 60.7314 180.821C60.7718 181.246 60.9326 181.65 61.1951 181.987C62.5511 184.039 63.0551 187.459 65.3231 186.295C67.0871 185.371 68.2751 185.179 68.0591 183.391C67.9993 182.854 67.8008 182.341 67.4831 181.903C66.6671 180.787 66.0551 176.371 62.9831 178.315ZM65.2871 185.815C63.9551 186.091 63.4871 185.587 62.4431 183.643C61.2431 181.375 60.5591 180.535 61.1231 179.851C61.9449 179.061 63.0115 178.574 64.1471 178.471C65.2751 178.471 65.2511 180.007 66.9191 182.347C68.8511 185.071 65.4671 185.791 65.2871 185.815ZM80.7431 170.719C80.5183 170.48 80.2248 170.316 79.9031 170.251C78.9031 170.275 77.9383 170.625 77.1551 171.247C75.4391 171.847 75.7511 173.887 76.7951 175.351C77.7311 177.511 78.3191 178.819 79.2911 178.951C80.7286 178.824 82.0655 178.16 83.0351 177.091C83.1374 176.848 83.1901 176.587 83.1901 176.323C83.1901 176.06 83.1374 175.798 83.0351 175.555C82.4779 173.853 81.7078 172.228 80.7431 170.719ZM79.3391 178.627C78.5471 178.411 78.2591 177.427 77.8631 176.467C77.7791 176.275 76.2191 173.863 76.3151 172.663C76.6151 171.763 78.4031 170.995 79.6391 170.899C80.2391 170.995 80.5391 171.691 80.8391 172.303C81.1391 172.915 81.7511 173.899 82.7111 175.807C82.8628 176.099 82.9094 176.434 82.8431 176.755C82.5311 177.883 80.3351 178.555 79.3391 178.627ZM70.4231 180.055C69.0671 177.499 69.3911 177.307 68.1191 176.035C68.2832 176.923 68.6262 177.768 69.1271 178.519C70.1351 180.247 70.4351 181.867 71.5991 183.319C71.9711 182.995 70.4951 180.175 70.4231 180.055ZM75.1511 179.203C74.772 178.304 74.3433 177.427 73.8671 176.575C73.5281 175.557 72.9617 174.63 72.2111 173.863C72.6191 175.783 73.1111 175.867 73.8791 177.667C76.3391 183.475 75.9911 180.703 75.1511 179.203ZM85.9991 172.279C84.6431 169.723 84.9671 169.531 83.6951 168.259C83.8701 169.144 84.2122 169.987 84.7031 170.743C85.6871 172.471 86.0231 174.103 87.1031 175.543C87.3671 175.375 87.5351 175.159 85.9991 172.279ZM100.471 182.791C101.027 182.555 101.497 182.152 101.817 181.639C102.136 181.126 102.29 180.527 102.256 179.923C102.223 179.32 102.004 178.741 101.63 178.266C101.256 177.791 100.745 177.443 100.166 177.27C99.5865 177.096 98.968 177.105 98.3943 177.295C97.8206 177.486 97.3195 177.849 96.9594 178.334C96.5993 178.82 96.3976 179.404 96.3818 180.009C96.3659 180.613 96.5368 181.208 96.8711 181.711C97.2991 182.224 97.8686 182.6 98.5087 182.792C99.1488 182.984 99.8312 182.984 100.471 182.791ZM100.987 181.951C100.706 182.151 100.387 182.291 100.049 182.362C99.7114 182.434 99.3627 182.434 99.0248 182.364C98.6869 182.295 98.3671 182.156 98.0853 181.957C97.8035 181.758 97.5658 181.502 97.3871 181.207C97.1175 180.766 96.9839 180.256 97.0032 179.739C97.0224 179.222 97.1935 178.723 97.4951 178.303C99.4751 175.579 104.119 179.611 100.987 181.951ZM115.051 187.795C114.847 187.591 114.343 187.231 114.055 187.291C113.638 187.45 113.236 187.647 112.855 187.879C104.215 191.983 101.563 193.423 101.827 193.279C98.8751 194.935 97.7591 194.911 97.6151 195.679C97.6151 196.279 97.7471 196.099 98.0351 197.563C98.1576 198.728 98.3947 199.877 98.7431 200.995H99.0671C99.2951 200.923 118.447 191.395 118.579 191.323C118.711 191.251 118.975 191.167 119.035 190.999C119.155 190.603 117.487 189.883 115.051 187.795ZM98.9471 200.683C98.6951 199.567 98.5271 198.427 98.3831 197.275C98.3831 197.131 98.1071 195.595 98.1671 195.583C100.111 194.815 110.611 189.391 112.687 188.383C113.014 188.265 113.335 188.129 113.647 187.975C114.319 187.615 114.679 188.131 115.183 188.527C117.103 190.039 117.763 190.543 118.495 191.011C98.7911 200.695 104.359 198.031 98.9471 200.683ZM115.567 45.8953C115.843 45.8953 115.687 45.8953 116.203 45.7873C115.539 45.6257 114.941 45.2657 114.487 44.7553V44.5033L114.403 44.7913C114.235 45.4033 114.979 45.8473 115.567 45.8953ZM118.267 46.9753C118.145 47.0576 118.052 47.1757 118.001 47.3133C117.949 47.451 117.941 47.6012 117.979 47.7433C118.231 48.2233 118.855 47.6353 118.663 47.0233C118.795 47.0155 118.924 46.9805 119.041 46.9206C119.159 46.8607 119.263 46.7772 119.347 46.6753L119.551 46.3513L119.191 46.4713C118.987 46.4713 117.775 46.6153 117.667 46.4713L117.799 46.6873C117.955 46.8793 118.111 46.9033 118.267 46.9753Z" fill="black"/>
<path d="M114.667 46.7952C115.039 46.7952 115.387 45.9552 114.979 45.7632C114.331 45.4632 113.911 46.7952 114.667 46.7952ZM113.527 50.3592C113.726 50.7257 113.802 51.1464 113.743 51.5592C113.855 51.4815 113.95 51.3823 114.022 51.2673C114.095 51.1523 114.144 51.024 114.166 50.8898C114.189 50.7556 114.184 50.6183 114.153 50.486C114.121 50.3537 114.063 50.229 113.983 50.1192C113.794 49.9066 113.557 49.7415 113.293 49.6372C113.028 49.533 112.742 49.4926 112.459 49.5192C112.895 49.6786 113.269 49.9728 113.527 50.3592ZM36.439 76.9752C37.1314 77.3903 37.9406 77.5674 38.743 77.4792H39.943C40.1582 77.4428 40.3789 77.4575 40.5874 77.5222C40.7958 77.5868 40.9862 77.6995 41.143 77.8512C40.687 78.0552 40.183 78.2112 40.183 78.8232C41.4131 82.0453 42.9312 85.1499 44.719 88.0992C47.0891 92.4969 50.5057 96.2432 54.667 99.0072C57.4902 100.553 60.456 101.823 63.523 102.799C63.1032 99.6411 62.5103 96.5084 61.747 93.4152C61.579 92.5752 58.699 82.9752 58.483 82.9752C57.5597 83.281 56.5624 83.281 55.639 82.9752C53.8506 82.3277 52.1744 81.4045 50.671 80.2392C49.675 79.5432 48.655 78.9312 47.635 78.2232C47.299 77.9952 46.099 78.3072 46.327 77.5512C46.603 73.7472 45.631 73.1472 42.595 73.9512C41.215 74.2872 35.599 75.2472 35.995 76.5912C36.1011 76.7609 36.2558 76.8948 36.439 76.9752ZM43.243 74.1672C44.071 74.0712 45.079 73.9392 45.643 74.7432C46.015 75.3192 45.859 75.8232 45.859 76.4712V77.7792C44.4485 77.6878 43.0336 77.6878 41.623 77.7792C41.4646 77.529 41.2345 77.3323 40.9627 77.2146C40.6909 77.0969 40.39 77.0636 40.099 77.1192C38.155 77.1192 36.991 77.1192 36.727 76.5912C36.463 76.0632 37.339 75.7032 37.735 75.5592C39.512 74.8918 41.3603 74.4327 43.243 74.1912V74.1672ZM163.867 168.427L162.295 167.119C161.784 166.736 161.157 166.541 160.519 166.567C160.032 166.625 159.572 166.822 159.194 167.135C158.816 167.448 158.537 167.863 158.39 168.331C158.243 168.799 158.234 169.299 158.365 169.772C158.496 170.245 158.76 170.669 159.127 170.995L160.687 172.303C160.908 172.509 161.169 172.665 161.455 172.763C161.74 172.86 162.043 172.895 162.343 172.867C162.859 172.866 163.362 172.703 163.782 172.403C164.202 172.102 164.518 171.678 164.685 171.19C164.853 170.701 164.864 170.173 164.718 169.678C164.571 169.183 164.274 168.746 163.867 168.427ZM163.687 171.463C163.397 171.808 162.984 172.026 162.536 172.071C162.088 172.116 161.639 171.984 161.287 171.703L159.715 170.395C159.359 170.106 159.132 169.686 159.085 169.229C159.037 168.773 159.173 168.316 159.463 167.959C159.753 167.603 160.172 167.376 160.629 167.329C161.086 167.281 161.543 167.418 161.899 167.707L163.459 169.015C163.796 169.321 164.005 169.743 164.045 170.197C164.085 170.651 163.953 171.103 163.675 171.463H163.687ZM170.275 154.423C169.741 154.031 169.076 153.861 168.42 153.95C167.763 154.038 167.167 154.378 166.756 154.898C166.346 155.418 166.153 156.076 166.218 156.735C166.283 157.395 166.602 158.003 167.107 158.431L168.811 159.739C171.523 161.755 174.403 157.807 171.979 155.743L170.275 154.423ZM171.787 158.767C171.489 159.128 171.062 159.356 170.597 159.403C170.132 159.451 169.667 159.313 169.303 159.019L167.587 157.711C167.272 157.411 167.082 157.001 167.057 156.566C167.033 156.131 167.174 155.703 167.454 155.368C167.733 155.034 168.13 154.819 168.562 154.766C168.995 154.713 169.431 154.826 169.783 155.083L171.487 156.403C171.833 156.682 172.058 157.084 172.114 157.525C172.17 157.966 172.053 158.411 171.787 158.767Z" fill="black"/>
<path d="M230.107 139.003C229.896 138.644 229.582 138.357 229.205 138.179C228.828 138 228.407 137.94 227.995 138.005C227.583 138.069 227.201 138.256 226.897 138.542C226.593 138.827 226.382 139.197 226.291 139.603H224.395C215.565 140.047 207.265 143.953 201.295 150.475C201.189 150.435 201.091 150.374 201.009 150.296C200.927 150.218 200.861 150.124 200.815 150.019C200.482 149.12 200.213 148.197 200.011 147.259C199.851 146.953 199.734 146.626 199.663 146.287C199.721 145.275 199.894 144.273 200.179 143.299C201.025 138.872 201.227 134.345 200.779 129.859C201.485 129.222 202.297 128.715 203.179 128.359C203.408 128.623 203.695 128.828 204.019 128.959C204.342 129.089 204.691 129.142 205.039 129.111C205.386 129.081 205.721 128.969 206.017 128.784C206.313 128.599 206.56 128.347 206.74 128.048C206.919 127.749 207.025 127.412 207.049 127.064C207.073 126.716 207.014 126.367 206.878 126.047C206.741 125.726 206.53 125.442 206.263 125.218C205.996 124.994 205.679 124.837 205.339 124.759C205.053 124.685 204.755 124.672 204.464 124.719C204.172 124.766 203.894 124.873 203.646 125.033C203.397 125.193 203.185 125.403 203.022 125.649C202.859 125.895 202.749 126.173 202.699 126.463C202.687 126.659 202.687 126.856 202.699 127.051C201.898 127.41 201.151 127.879 200.479 128.443C198.619 116.443 191.227 104.443 180.571 99.1515L174.667 96.4515C174.386 96.4 174.101 96.3679 173.815 96.3555C175.354 97.5072 176.583 99.024 177.389 100.769C178.196 102.514 178.555 104.433 178.435 106.351C178.41 106.76 178.287 107.157 178.079 107.51C177.87 107.862 177.581 108.16 177.235 108.379C177.808 109.443 178.213 110.588 178.435 111.775C179.45 115.88 180.803 119.894 182.479 123.775C182.143 122.971 180.355 122.467 179.647 122.083C172.027 117.787 163.363 116.275 162.223 116.467C161.539 115.267 159.991 112.195 160.039 112.315C159.487 111.043 158.755 109.999 157.363 110.143C155.179 110.143 152.251 107.743 151.747 104.371C151.462 101.983 151.708 99.5616 152.467 97.2795C148.961 99.5647 146.072 102.678 144.054 106.345C142.037 110.012 140.953 114.119 140.899 118.303C139.855 117.775 137.899 119.083 137.563 118.939C137.443 118.867 124.063 91.7955 123.583 90.5595C122.875 89.0355 121.903 86.9595 119.515 87.3435C118.729 87.4896 117.979 87.7872 117.307 88.2195C117.307 88.2195 83.3591 104.851 80.7191 106.219C83.9351 97.8195 84.8711 88.1475 82.3151 76.7355C83.92 82.6414 84.5363 88.7722 84.1391 94.8794C85.8063 92.7207 87.261 90.4059 88.4831 87.9675C89.4056 85.9131 90.1017 83.7645 90.5591 81.5595C94.8671 81.2715 102.895 75.0555 106.087 71.6715C109.098 74.0712 112.357 76.1429 115.807 77.8515C124.291 82.2195 133.567 83.5395 139.567 82.5675C140.563 82.3995 141.823 82.6395 142.531 81.3675C142.584 81.6034 142.726 81.8098 142.927 81.9435C143.887 82.5075 144.307 82.1474 145.771 82.2794C146.107 83.3474 146.971 82.8194 146.707 82.2794C146.983 82.2794 147.127 82.4235 147.331 82.1715C147.472 81.8893 147.51 81.5668 147.439 81.2595C148.183 80.8995 148.327 80.0594 147.283 79.6634C147.358 79.4624 147.377 79.245 147.339 79.034C147.301 78.8229 147.207 78.6259 147.067 78.4634C146.881 78.3128 146.675 78.1877 146.455 78.0915C143.815 53.1555 145.255 63.5715 144.259 53.5635C148.567 52.4475 149.647 47.0595 149.851 43.2075C150.32 40.1734 150.32 37.0855 149.851 34.0515C149.522 31.551 148.627 29.1584 147.235 27.0555C146.74 26.2787 146.04 25.6544 145.212 25.2519C144.383 24.8494 143.46 24.6845 142.543 24.7755C142.339 24.7755 142.339 24.8955 142.159 24.8595C139.426 24.8949 136.735 24.1766 134.383 22.7835C123.343 16.6875 120.499 10.0515 113.815 7.18345C112.563 6.5626 111.199 6.19924 109.803 6.11488C108.408 6.03052 107.01 6.22687 105.692 6.69231C104.374 7.15775 103.163 7.88283 102.13 8.82464C101.097 9.76645 100.264 10.9059 99.6791 12.1754C95.6591 20.3955 100.027 29.7315 106.687 35.0955C107.743 35.9235 106.975 36.2955 107.191 37.3395C106.509 37.5103 105.891 37.8775 105.415 38.3955C105.233 38.6759 105.147 39.0081 105.171 39.3416C105.195 39.6751 105.327 39.9918 105.547 40.2435C105.259 40.3609 105.013 40.5645 104.845 40.8266C104.677 41.0887 104.593 41.3964 104.606 41.7077C104.619 42.0189 104.728 42.3185 104.918 42.5655C105.108 42.8125 105.37 42.9948 105.667 43.0875C105.322 43.4416 105.12 43.9108 105.1 44.4048C105.081 44.8987 105.244 45.3826 105.559 45.7635C105.739 46.0155 106.207 46.0155 106.423 46.2675C106.639 46.5195 106.315 47.1195 105.979 47.3475C105.535 47.6392 105.03 47.824 104.503 47.8874C103.795 47.8874 103.483 47.2754 103.195 46.6874C101.563 43.0154 99.5951 34.5315 92.1671 29.5275C85.7084 25.4702 78.1914 23.4197 70.5671 23.6354C66.6551 23.6354 63.0311 23.4195 59.7671 25.8795C58.7948 25.0887 57.777 24.3554 56.7191 23.6835C56.3449 23.4977 55.9364 23.3915 55.5191 23.3715C55.0751 23.3715 54.7151 23.7435 55.1351 24.1755C54.8758 24.0986 54.6035 24.0759 54.3351 24.109C54.0667 24.142 53.808 24.23 53.5751 24.3675C53.3471 24.6555 53.4071 25.0875 54.0671 25.3635C53.6111 25.2555 53.2751 25.8435 53.5511 26.3235C53.9498 26.7985 54.48 27.145 55.0751 27.3195C54.2951 27.2595 54.1991 28.6155 55.6391 28.7715C56.5181 28.7823 57.3966 28.7261 58.2671 28.6035C58.6609 30.1839 59.5788 31.5841 60.8711 32.5755C64.8818 35.2236 69.4472 36.9151 74.2151 37.5195C76.2071 37.8075 78.3551 37.5195 80.2991 37.9395C80.6472 41.7389 81.9518 45.3883 84.0911 48.5475C81.6911 49.2315 76.9511 52.8914 75.0671 54.4274C74.0831 55.2314 73.0031 56.3594 73.3271 57.5954C72.4267 57.7836 71.5496 58.0693 70.7111 58.4475C69.5209 59.0848 68.378 59.8067 67.2911 60.6075C64.1393 62.8994 61.7217 66.0581 60.3326 69.6992C58.9435 73.3402 58.6428 77.3066 59.4671 81.1154C62.8631 96.7154 67.2191 100.039 63.0671 115.171C56.4431 118.387 16.2671 138.175 14.8991 138.811C13.8808 139.241 12.9079 139.772 11.9951 140.395C10.0271 141.943 11.1071 144.079 11.9951 145.795C11.9951 145.795 40.8671 204.055 43.1951 208.939C43.4818 209.725 44.0689 210.365 44.8271 210.718C45.5854 211.072 46.453 211.11 47.2391 210.823C47.2656 212.025 47.2215 213.227 47.1071 214.423C47.1071 222.991 46.8431 221.887 46.8431 227.791C46.7111 230.059 46.9391 228.991 46.3511 229.867C46.3511 230.431 46.6871 230.467 46.8791 230.971L48.5111 234.175C48.6671 234.175 157.603 180.451 162.307 178.051C168.811 184.567 175.375 187.339 183.595 189.103C180.151 193.099 176.995 195.199 178.027 197.011C178.608 197.792 179.431 198.357 180.367 198.619C184.207 200.311 193.099 203.719 193.759 203.743C193.822 203.717 193.877 203.676 193.921 203.624C193.965 203.572 193.996 203.51 194.011 203.443C194.083 203.095 193.699 202.519 192.883 201.691C192.007 200.587 191.107 199.411 190.099 198.283C190.701 197.842 191.353 197.476 192.043 197.191C192.847 196.951 193.171 196.891 193.315 196.603C193.459 196.315 192.847 195.499 192.427 195.259C192.004 194.883 191.603 194.483 191.227 194.059C191.083 193.915 191.227 193.783 191.491 193.447C194.167 190.783 195.091 191.371 196.363 191.659C197.335 191.875 200.275 192.403 200.599 192.439C201.183 192.659 201.809 192.747 202.431 192.697C203.053 192.647 203.657 192.461 204.199 192.151C205.615 191.071 205.987 189.751 206.599 189.559C207.211 189.367 210.139 190.219 210.115 190.759C210.019 192.367 204.475 194.587 213.223 194.923C212.911 195.811 212.611 197.047 212.251 198.031C212.023 198.763 211.315 199.747 211.747 200.371C211.779 200.417 211.822 200.454 211.873 200.477C211.924 200.5 211.98 200.509 212.035 200.503C213.031 200.503 215.863 197.011 215.875 196.975C217.511 195.546 218.75 193.719 219.475 191.671C219.871 189.679 218.491 188.347 216.931 187.231C214.931 185.837 212.806 184.632 210.583 183.631C218.551 172.327 215.011 158.119 202.531 150.883C207.947 145.13 215.279 141.553 223.147 140.827C224.2 140.719 225.262 140.719 226.315 140.827C226.499 141.224 226.8 141.555 227.177 141.775C227.555 141.995 227.99 142.094 228.426 142.059C228.862 142.024 229.276 141.856 229.613 141.578C229.95 141.299 230.194 140.924 230.311 140.503C230.398 140.255 230.425 139.99 230.389 139.729C230.354 139.468 230.257 139.22 230.107 139.003ZM198.379 148.975C197.911 148.771 197.419 148.579 196.951 148.399C199.351 142.291 198.895 134.671 198.151 132.619C198.151 132.235 198.211 132.127 198.487 131.995L199.999 130.591C200.45 136.767 199.903 142.974 198.379 148.975ZM192.115 142.375C192.139 142.547 192.139 142.72 192.115 142.891C192.28 144.292 192.073 145.712 191.515 147.007C191.255 146.943 190.99 146.903 190.723 146.887C191.083 145.353 191.548 143.846 192.115 142.375ZM190.483 143.095C190.063 144.403 189.799 145.711 189.475 146.935C189.131 146.936 188.792 146.862 188.479 146.719C188.131 146.263 188.227 144.799 188.155 144.235C187.447 139.615 185.935 134.551 185.143 131.347C187.483 133.46 189.429 135.971 190.891 138.763C191.467 140.479 191.815 139.219 190.483 143.095ZM192.475 145.927C192.823 144.95 192.989 143.917 192.967 142.879C193.039 141.679 192.475 141.247 192.967 140.479C193.577 138.967 194.346 137.523 195.259 136.171C195.788 138.598 195.942 141.091 195.715 143.563C195.565 144.98 195.296 146.38 194.911 147.751C194.911 147.871 194.299 147.559 192.187 147.223C191.779 147.187 191.959 147.379 192.475 145.927ZM195.847 135.895C195.794 135.768 195.767 135.631 195.767 135.493C195.767 135.355 195.794 135.219 195.847 135.091C196.022 134.811 196.236 134.556 196.483 134.335C196.833 133.877 197.209 133.44 197.611 133.027C198.669 138.146 198.354 143.454 196.699 148.411L195.223 147.907C196.556 144.042 196.773 139.878 195.847 135.895ZM196.123 117.571C197.226 119.894 198.141 122.302 198.859 124.771C199.246 126.205 199.531 127.665 199.711 129.139C199.038 129.634 198.401 130.176 197.803 130.759C195.247 120.751 188.587 110.071 182.527 103.159C180.823 101.245 178.893 99.5443 176.779 98.0955C185.546 101.778 192.5 108.779 196.123 117.571ZM179.875 115.171C179.767 115.015 177.847 108.619 177.811 108.511C179.671 107.683 178.747 103.651 178.459 102.259C178.115 100.596 177.279 99.0739 176.059 97.8915C177.091 98.6475 177.751 99.3314 178.351 99.7634C181.6 102.638 184.452 105.931 186.835 109.555C191.145 115.704 194.454 122.496 196.639 129.679C197.191 131.323 197.287 131.299 196.639 131.779C196.088 132.343 195.567 132.936 195.079 133.555C193.525 128.675 190.744 124.274 187.003 120.775C185.355 119.23 183.581 117.825 181.699 116.575C181.256 116.189 180.791 115.829 180.307 115.495H180.223C180.08 115.426 179.959 115.318 179.875 115.183V115.171ZM180.271 115.975C190.891 123.175 192.943 130.795 194.299 133.459C195.031 134.923 194.203 134.095 191.899 138.955C190.591 135.463 187.663 132.799 184.915 130.639C178.807 111.571 181.423 119.647 180.271 115.987V115.975ZM183.871 146.455C179.827 146.635 178.351 147.655 177.607 146.935C173.755 143.335 170.251 139.879 168.283 135.019C167.527 133.135 167.443 130.351 169.483 128.899L169.339 128.671C168.534 129.228 167.912 130.011 167.551 130.92C167.19 131.83 167.107 132.826 167.311 133.783C167.725 135.735 168.543 137.578 169.711 139.195C171.646 142.235 174.172 144.855 177.139 146.899C177.655 147.403 177.559 147.319 177.679 147.403C175.999 147.811 176.083 147.811 175.783 147.739C175.483 147.667 172.771 145.471 172.915 145.591C169.25 142.651 165.767 139.489 162.487 136.123C158.119 131.635 153.883 126.019 154.531 119.467C154.735 116.774 155.78 114.214 157.519 112.147C157.856 111.58 158.353 111.125 158.947 110.839C163.663 122.575 175.279 136.183 183.811 146.467L183.871 146.455ZM151.735 98.5755C150.139 103.963 152.131 108.259 155.455 110.023C156.363 110.464 157.362 110.685 158.371 110.671C157.399 110.671 150.871 118.447 155.011 127.255C158.539 135.439 167.011 141.427 173.515 146.695C174.307 147.199 174.475 147.463 175.315 147.979C173.334 148.56 171.425 149.365 169.627 150.379C159.643 144.019 149.599 133.183 146.455 121.855C145.433 117.822 145.378 113.605 146.296 109.547C147.213 105.488 149.077 101.704 151.735 98.5035V98.5755ZM174.667 150.871C175.162 150.906 175.626 151.119 175.975 151.471L177.283 153.175C177.444 153.385 177.562 153.625 177.63 153.88C177.698 154.135 177.714 154.402 177.679 154.663C177.603 154.976 177.442 155.262 177.214 155.488C176.985 155.715 176.698 155.874 176.385 155.947C176.071 156.021 175.744 156.006 175.439 155.904C175.133 155.802 174.862 155.618 174.655 155.371L173.347 153.667C173.139 153.418 173.006 153.114 172.965 152.792C172.924 152.469 172.975 152.142 173.114 151.848C173.253 151.554 173.473 151.306 173.748 151.133C174.023 150.96 174.342 150.869 174.667 150.871ZM142.267 112.471C143.191 107.671 145.987 103.051 151.147 98.7195C150.107 99.8677 149.208 101.137 148.471 102.499C140.479 116.563 146.671 130.759 158.323 141.991C161.616 145.304 165.327 148.172 169.363 150.523C167.932 151.364 166.549 152.285 165.223 153.283C161.967 151.201 158.963 148.749 156.271 145.975C150.534 140.357 146.119 133.532 143.347 125.995C141.685 121.671 141.309 116.957 142.267 112.423V112.471ZM118.267 88.6634C122.887 86.2634 120.571 89.7915 136.819 119.155C136.639 118.807 131.899 121.015 130.975 121.495C128.875 117.247 117.775 94.8435 117.523 94.4235C117.271 94.0035 117.115 93.8474 116.599 93.9314C115.306 94.3982 114.07 95.0101 112.915 95.7555L77.7311 113.131C77.937 112.667 78.1694 112.214 78.4271 111.775C78.9551 110.875 80.4671 107.407 80.5871 107.119C81.7391 106.687 74.3591 111.595 118.267 88.6634ZM146.191 82.4834C146.173 82.3528 146.114 82.2312 146.023 82.1355C145.927 81.9915 145.783 82.0035 144.283 82.0035C143.767 82.0035 143.083 82.0034 143.083 81.3794C143.072 81.2402 143.09 81.1002 143.135 80.968C143.181 80.8359 143.253 80.7146 143.347 80.6115C143.392 80.9413 143.561 81.2416 143.82 81.4512C144.078 81.6608 144.407 81.7639 144.739 81.7395C145.207 81.6693 145.653 81.4972 146.047 81.2355C145.855 81.3435 146.179 82.1475 146.299 82.2675C146.419 82.3875 146.263 82.7234 146.215 82.4834H146.191ZM147.667 80.4794C147.667 80.7074 147.223 80.8155 147.223 80.7915L146.935 79.9634C147.235 79.9994 147.727 80.2154 147.691 80.4794H147.667ZM146.623 78.7395C146.695 78.744 146.766 78.7629 146.83 78.7951C146.895 78.8273 146.952 78.8721 146.999 78.927C147.046 78.9818 147.082 79.0455 147.104 79.1143C147.126 79.1831 147.134 79.2555 147.127 79.3275C147.127 79.5195 147.031 79.6394 146.623 79.4954C146.595 79.2436 146.603 78.989 146.647 78.7395H146.623ZM145.819 79.5435C145.603 79.5435 145.135 79.4715 145.099 79.5435C145.063 79.6155 146.011 80.1555 146.299 80.3355C146.541 80.5236 146.736 80.766 146.867 81.0433C146.999 81.3205 147.063 81.6248 147.055 81.9314C147.006 81.977 146.942 82.0023 146.875 82.0023C146.808 82.0023 146.744 81.977 146.695 81.9314C146.407 81.6674 146.419 81.3075 146.335 80.9715C146.251 80.6355 146.071 80.4915 145.771 80.7075C145.569 80.9025 145.322 81.0449 145.052 81.1223C144.783 81.1997 144.498 81.2097 144.223 81.1515C143.311 80.7915 143.431 79.6274 143.899 78.8834C144.031 78.7394 144.343 78.7515 144.523 78.7275H145.723C145.809 78.9913 145.858 79.266 145.867 79.5435H145.819ZM145.711 78.1755C145.179 78.1256 144.642 78.1744 144.127 78.3195C144.571 77.9835 144.271 77.4195 143.839 77.1195C142.735 76.0635 141.775 74.8634 140.611 73.9034C135.283 69.2954 130.483 67.6634 123.991 66.7034C121.195 63.1034 118.723 59.5035 114.019 56.4075C113.719 56.2035 113.059 55.6755 112.627 55.4235C113.172 55.4109 113.702 55.2399 114.151 54.9315C114.325 55.0899 114.538 55.1982 114.769 55.2447C114.999 55.2912 115.238 55.2742 115.459 55.1954C115.652 55.0874 115.811 54.9282 115.919 54.7356C116.027 54.5429 116.079 54.3242 116.071 54.1034C116.354 54.1268 116.638 54.065 116.886 53.926C117.134 53.7871 117.335 53.5772 117.463 53.3235C117.727 53.5395 118.015 53.3234 118.159 53.0354C118.303 52.7474 118.159 52.3754 118.291 52.0034C118.403 51.6315 118.586 51.285 118.831 50.9835C119.569 49.797 120.184 48.5385 120.667 47.2274C120.917 46.7472 121.064 46.2199 121.099 45.6794C122.713 46.8493 124.477 47.7977 126.343 48.4995C127.267 48.8595 128.131 49.3395 129.079 49.6995C133.269 51.2524 137.602 52.3899 142.015 53.0954C142.573 53.327 143.165 53.4648 143.767 53.5034C144.091 61.4954 145.627 76.7115 145.711 78.1755ZM111.427 46.6395C111.512 46.4294 111.525 46.1968 111.461 45.979C111.398 45.7613 111.264 45.5712 111.079 45.4395C111.595 44.6955 111.331 44.7555 112.219 43.2675C112.495 42.7275 112.795 42.2115 113.119 41.7075C113.443 41.2035 113.863 40.9395 114.559 41.2995L118.747 43.5675C119.119 43.7715 120.691 44.3234 120.811 44.7674C120.811 46.6154 118.603 50.8874 117.091 51.7874C116.684 51.9804 116.233 52.0631 115.783 52.0274C116.095 52.0274 115.783 50.7195 115.783 50.5995C115.715 50.3836 115.627 50.1747 115.519 49.9755C115.609 50.0173 115.708 50.039 115.807 50.039C115.907 50.039 116.005 50.0173 116.095 49.9755C116.791 49.6635 116.935 48.9314 117.043 48.2594C117.227 47.47 117.227 46.6489 117.043 45.8594C116.551 48.5474 116.491 49.4594 115.939 49.6514C115.387 49.8434 115.003 49.3755 114.667 49.0635C113.966 48.513 113.143 48.1385 112.267 47.9715H111.523C111.669 47.7327 111.747 47.4591 111.751 47.1794C111.811 47.0714 111.451 46.5195 111.427 46.6395ZM110.623 54.6315C110.623 54.7875 110.623 54.6314 110.479 55.3034C110.251 55.2237 110.052 55.0768 109.908 54.8819C109.765 54.687 109.683 54.4533 109.675 54.2114L110.623 54.6315ZM109.687 53.9114V53.3835C110.371 54.0795 110.371 53.6355 110.323 54.2235C110.097 54.1515 109.883 54.0463 109.687 53.9114ZM110.491 33.9435C109.488 33.1504 108.564 32.2623 107.731 31.2915C107.731 30.9315 108.067 29.7315 108.247 28.6755C108.751 26.7675 109.675 25.0755 110.263 23.2035C111.549 24.3952 112.895 25.5207 114.295 26.5755C114.031 27.6075 113.659 28.6155 113.455 29.6595C113.371 30.0315 113.215 33.2595 113.083 33.2595C112.743 33.4332 112.482 33.729 112.351 34.0875C111.759 33.8574 111.112 33.8073 110.491 33.9435ZM107.623 31.9995C107.683 32.2035 109.447 33.7635 110.023 34.2795C109.135 35.1675 109.327 34.6995 107.983 35.3115C108.103 35.2155 107.527 32.5755 107.623 31.9995ZM136.747 37.1235C136.747 38.9715 136.123 43.5675 137.947 48.0555C136.507 47.6955 135.019 47.3234 133.675 46.9514C133.041 44.2542 132.735 41.4902 132.763 38.7195C132.783 37.9559 132.852 37.1944 132.967 36.4395C132.919 36.0315 132.667 36.4275 136.747 37.1235ZM120.031 34.1955C120.088 33.0552 120.382 31.9395 120.895 30.9195C122.146 31.4771 123.35 32.1353 124.495 32.8875C124.903 33.1275 125.983 33.4995 126.139 33.9795C126.295 34.4595 125.923 35.1075 125.815 35.6715C125.324 38.561 125.5 41.5247 126.331 44.3355L123.703 43.2075C124.099 43.3755 124.183 42.0075 124.087 41.8155L124.411 41.4795C124.484 41.3039 124.52 41.1148 124.515 40.9246C124.509 40.7344 124.464 40.5475 124.381 40.3762C124.298 40.2049 124.18 40.0532 124.034 39.931C123.888 39.8088 123.718 39.719 123.535 39.6675C123.664 39.5519 123.749 39.3949 123.775 39.2235C123.859 39.0044 123.885 38.7675 123.851 38.5355C123.816 38.3036 123.723 38.0843 123.58 37.8987C123.436 37.7132 123.248 37.5676 123.032 37.476C122.816 37.3843 122.58 37.3497 122.347 37.3755C122.423 37.1195 122.427 36.8472 122.356 36.5896C122.285 36.332 122.144 36.0993 121.948 35.9181C121.751 35.7368 121.508 35.6143 121.246 35.5643C120.983 35.5143 120.712 35.539 120.463 35.6355C120.477 35.1216 120.326 34.6168 120.031 34.1955ZM119.383 34.0515C119.191 33.8355 117.715 33.5475 117.883 33.9675C117.767 33.6484 117.562 33.3693 117.292 33.1633C117.022 32.9573 116.698 32.8331 116.36 32.8053C116.021 32.7775 115.682 32.8473 115.382 33.0065C115.082 33.1657 114.834 33.4076 114.667 33.7035C114.427 33.2955 113.851 33.4995 113.599 33.1875C113.347 32.8755 113.599 31.6875 113.599 31.2435C113.688 29.7079 114.05 28.2004 114.667 26.7915C116.515 28.1835 118.411 29.1915 120.115 30.5955C120.003 31.0963 119.939 31.6065 119.923 32.1195C119.875 32.3355 119.335 33.9915 119.383 34.0515ZM132.991 46.7594C132.715 46.7594 130.483 45.8834 129.931 45.6794C129.379 45.4754 126.895 44.8395 126.823 44.4795C126.809 44.3278 126.809 44.1751 126.823 44.0235C126.164 41.3873 126.03 38.6474 126.427 35.9595L126.799 34.1475C128.114 34.6916 129.456 35.1682 130.819 35.5755C131.435 35.6725 132.026 35.8885 132.559 36.2115C131.709 39.6982 131.859 43.3539 132.991 46.7594ZM122.191 45.2114C123.079 45.2114 123.391 44.3835 123.499 43.6995C124.42 44.2053 125.394 44.6078 126.403 44.8995C126.669 46.2307 127.165 47.5056 127.867 48.6675C126.686 48.2311 125.529 47.7345 124.399 47.1794C121.123 45.5354 121.255 45.4515 121.195 45.0075C121.525 45.1336 121.874 45.2026 122.227 45.2114H122.191ZM126.991 45.3075C130.243 46.7115 133.147 47.6234 132.991 47.5874C133.431 48.2017 133.832 48.843 134.191 49.5075C134.691 50.2388 135.307 50.8833 136.015 51.4155C133.615 50.3235 133.543 50.9475 128.695 48.9075C127.892 47.8396 127.327 46.612 127.039 45.3075H126.991ZM133.723 47.5395C134.011 47.6355 135.619 47.9594 137.923 48.3434C138.432 50.0017 139.427 51.469 140.779 52.5555C139.418 52.2965 138.075 51.9478 136.759 51.5114C135.396 50.5082 134.357 49.1272 133.771 47.5395H133.723ZM132.223 35.4315C131.682 35.3986 131.149 35.2895 130.639 35.1075C129.284 34.7385 127.963 34.2527 126.691 33.6555C127.313 31.1049 128.47 28.7159 130.087 26.6475C130.375 26.5275 131.635 27.2355 131.899 27.3555C132.749 27.7009 133.574 28.1017 134.371 28.5555C133.51 30.7951 132.808 33.0928 132.271 35.4315H132.223ZM127.711 29.5755C127.183 30.5355 126.127 32.1915 126.283 33.3435C125.182 32.8745 124.129 32.2998 123.139 31.6275C122.371 31.2075 121.555 30.8115 120.811 30.3195C121.685 27.8379 122.971 25.5215 124.615 23.4675C124.615 23.4675 129.415 26.0115 129.715 26.3235C129.775 26.3835 127.939 29.2635 127.759 29.5755H127.711ZM120.415 30.2595C114.703 26.4555 115.111 26.7795 114.931 26.4915C114.751 26.2035 115.351 25.1835 115.531 24.8115C116.485 22.9517 117.822 21.3156 119.455 20.0115C119.455 20.0115 123.955 23.0115 124.255 23.3595C122.887 25.0155 120.775 27.9915 120.463 30.2595H120.415ZM115.687 23.6835C115.567 23.8755 114.379 25.9395 114.583 26.0835C113.071 25.2915 111.967 23.8634 110.527 22.9514C110.755 22.5554 110.983 22.1594 111.187 21.7514C112.424 19.8023 114.06 18.1377 115.987 16.8674C116.958 17.8384 117.988 18.7482 119.071 19.5915C117.756 20.776 116.63 22.1562 115.735 23.6835H115.687ZM110.335 22.3394C109.963 21.7154 106.219 18.5474 106.555 17.9594C106.761 17.7059 106.927 17.4227 107.047 17.1195C108.293 15.2496 109.891 13.6397 111.751 12.3795C112.147 12.1275 115.447 16.1954 115.867 16.5674C113.513 17.9126 111.606 19.9197 110.383 22.3394H110.335ZM110.599 12.6074C109.068 13.6802 107.753 15.0318 106.723 16.5915C106.415 16.9736 106.197 17.4209 106.087 17.8995C105.059 16.5506 104.121 15.1355 103.279 13.6634C103.233 13.6076 103.208 13.5377 103.208 13.4654C103.208 13.3932 103.233 13.3233 103.279 13.2674C104.303 11.6737 105.638 10.3024 107.203 9.23545C107.443 9.06745 107.587 8.75545 107.911 8.77945C108.113 8.81125 108.302 8.89385 108.463 9.01945C109.628 9.78907 110.658 10.746 111.511 11.8514C111.199 11.9354 110.959 12.3554 110.647 12.6074H110.599ZM104.947 16.8674C105.451 17.5155 105.511 17.7795 105.871 18.2355C104.686 20.7179 103.877 23.3629 103.471 26.0835C103.471 25.7835 102.859 25.3875 101.803 23.4675C101.256 22.6902 100.816 21.8426 100.495 20.9474C100.839 18.7547 101.592 16.646 102.715 14.7315C102.816 14.5104 102.941 14.3011 103.087 14.1074C103.627 15.0791 104.249 16.0025 104.947 16.8674ZM106.267 18.6195C108.583 21.7635 109.867 22.2195 109.867 23.0235C108.734 25.5841 107.927 28.2773 107.467 31.0395C107.467 30.7035 105.919 29.2755 105.715 29.0475C104.993 28.2179 104.324 27.3442 103.711 26.4315C104.238 23.732 105.096 21.1081 106.267 18.6195ZM112.111 49.0274H113.059C113.097 49.1696 113.179 49.2962 113.293 49.3889C113.407 49.4816 113.548 49.5357 113.695 49.5434C113.934 49.5292 114.174 49.5576 114.403 49.6274C114.372 49.694 114.364 49.7687 114.38 49.8402C114.396 49.9118 114.434 49.9762 114.49 50.0238C114.546 50.0714 114.615 50.0994 114.689 50.1037C114.762 50.1079 114.834 50.0882 114.895 50.0475C114.787 50.2479 114.707 50.4618 114.655 50.6835C114.595 50.8543 114.595 51.0406 114.655 51.2114C114.676 51.2489 114.704 51.2816 114.739 51.3075C114.773 51.3334 114.812 51.352 114.854 51.3622C114.895 51.3723 114.939 51.3737 114.981 51.3664C115.023 51.359 115.063 51.3431 115.099 51.3194C114.978 51.5733 114.932 51.8564 114.967 52.1354C114.895 51.8234 114.043 52.1354 113.911 52.1354C113.849 51.936 113.725 51.7618 113.556 51.6386C113.388 51.5154 113.184 51.4498 112.975 51.4514H112.759C112.773 51.0472 112.729 50.6429 112.627 50.2514C112.448 49.9406 112.197 49.6773 111.895 49.4835C111.98 49.3424 112.041 49.1883 112.075 49.0274H112.111ZM146.023 26.4675C148.423 28.8675 148.975 32.8395 149.323 36.0675C149.839 40.8675 149.203 48.0675 146.011 51.7635C145.61 52.309 145.034 52.7006 144.379 52.8731C143.723 53.0456 143.029 52.9886 142.411 52.7114C137.611 49.7714 136.903 43.4595 137.131 37.8315C137.06 34.8064 137.684 31.8053 138.955 29.0595C139.364 28.1083 139.978 27.2598 140.755 26.5755C141.448 25.8914 142.376 25.4989 143.35 25.4788C144.323 25.4587 145.267 25.8126 145.987 26.4675H146.023ZM141.223 25.2675C138.223 27.1275 136.747 33.0915 136.615 36.6555C135.357 36.1967 134.07 35.8199 132.763 35.5275C133.223 33.0569 133.947 30.6431 134.923 28.3275C136.123 28.7715 136.699 28.8675 137.959 29.3355C137.959 28.9035 138.283 29.3355 135.079 27.9795C135.761 26.7206 136.768 25.668 137.995 24.9314C139.056 25.1368 140.131 25.2612 141.211 25.3035L141.223 25.2675ZM133.615 22.8675C134.891 23.6194 136.232 24.254 137.623 24.7635C137.275 24.6315 135.511 26.2155 134.779 27.7635V27.8355C134.779 28.0395 134.599 27.9315 134.467 27.9315C133.159 27.2235 131.719 26.7315 130.435 26.0355C131.306 24.9616 132.24 23.9398 133.231 22.9755L133.063 22.7715C132.835 22.9635 129.559 25.7835 129.931 26.0115L124.987 23.2635C125.906 22.04 127.092 21.0426 128.455 20.3474C127.343 20.6818 126.321 21.2645 125.467 22.0514C125.275 22.2434 125.011 22.9035 124.867 22.9995C124.519 23.2275 123.019 21.9075 122.563 21.6075C121.687 20.9955 120.811 20.4075 119.947 19.7115C120.32 19.3436 120.765 19.0575 121.255 18.8715C121.746 18.5828 122.26 18.334 122.791 18.1275C123.343 17.9355 125.191 17.2634 125.755 17.6594C128.277 19.5661 130.897 21.3405 133.603 22.9755L133.615 22.8675ZM125.743 17.1675C125.311 16.7954 123.343 17.3834 122.827 17.5154C121.666 17.8061 120.584 18.3512 119.659 19.1114C118.559 18.3281 117.531 17.4487 116.587 16.4835C115.663 15.8115 120.775 13.7114 122.695 14.6594C123.807 15.4035 124.826 16.2776 125.731 17.2634L125.743 17.1675ZM122.563 14.4074C120.907 13.7954 117.667 14.8515 116.047 15.8235C112.003 11.8874 112.267 12.1754 112.267 12.1034C113.976 11.0036 116.004 10.5092 118.027 10.6995C119.616 11.8681 121.127 13.1387 122.551 14.5034L122.563 14.4074ZM113.011 7.51945C114.523 7.75945 116.287 9.36745 117.499 10.2915C116.659 9.82345 115.267 10.2914 114.415 10.5074C113.523 10.8163 112.666 11.2185 111.859 11.7074C110.976 10.338 109.73 9.24111 108.259 8.53945C108.939 8.11916 109.699 7.84533 110.491 7.73545C111.315 7.53214 112.165 7.45925 113.011 7.51945ZM105.067 7.55545C107.305 6.65423 109.788 6.56088 112.087 7.29145C110.618 7.38792 109.186 7.79704 107.887 8.49145C106.955 7.99216 105.92 7.71688 104.863 7.68745L105.067 7.55545ZM104.059 8.02345C105.198 7.79868 106.379 8.00846 107.371 8.61145L107.695 8.77945C106.831 8.77945 105.691 10.0755 105.079 10.6275C104.827 10.8555 102.679 12.9195 102.907 13.2435C102.595 12.7755 102.319 12.2955 101.995 11.8275C101.671 11.3595 101.479 11.0595 101.227 10.6275C101.946 9.54306 102.918 8.64948 104.059 8.02345ZM98.7191 15.7755C98.7188 16.0274 98.7551 16.278 98.8271 16.5195C99.1185 17.9796 99.5197 19.4157 100.027 20.8155C99.6665 22.3502 99.6954 23.9507 100.111 25.4715C98.7163 22.4429 98.2326 19.0741 98.7191 15.7755ZM99.4991 18.0795C99.2179 16.8997 99.069 15.6922 99.0551 14.4795C99.1728 14.1578 99.3215 13.8484 99.4991 13.5554C99.9311 12.6046 100.445 11.6932 101.035 10.8315C101.371 11.4195 101.635 12.0315 101.959 12.6315C102.283 13.2315 102.799 13.5794 102.391 14.3714C101.425 16.2815 100.676 18.2941 100.159 20.3715C100.006 19.5897 99.7855 18.8227 99.4991 18.0795ZM100.351 21.9195C103.675 27.9195 103.447 24.9315 103.111 28.9035C102.988 29.6192 103.084 30.3554 103.387 31.0155C102.227 29.8267 101.352 28.3908 100.826 26.8156C100.3 25.2403 100.138 23.5664 100.351 21.9195ZM106.711 34.7355C105.644 33.702 104.668 32.5778 103.795 31.3755C103.256 30.3975 103.122 29.2469 103.423 28.1715C103.449 27.8087 103.518 27.4503 103.627 27.1035C103.737 27.5917 103.973 28.0426 104.311 28.4115C105.159 29.5579 106.093 30.6371 107.107 31.6395C107.163 31.6759 107.205 31.7299 107.227 31.7929C107.248 31.8559 107.249 31.9244 107.227 31.9875C107.276 33.1489 107.441 34.3026 107.719 35.4315C107.444 35.1219 107.098 34.8832 106.711 34.7355ZM102.415 46.1594C102.573 46.7737 102.869 47.344 103.279 47.8274C103.456 48.0242 103.688 48.1628 103.945 48.225C104.202 48.2871 104.472 48.2698 104.719 48.1755C105.362 48.0124 105.96 47.7092 106.471 47.2874C106.79 47.3261 107.112 47.3261 107.431 47.2874C107.777 47.0951 108.079 46.8337 108.319 46.5194C108.725 46.1363 109.073 45.6956 109.351 45.2114C108.915 44.8563 108.618 44.3594 108.511 43.8075C108.043 42.0555 110.911 41.0355 110.263 45.0075C110.047 46.3155 108.763 46.8795 108.763 48.1755C108.763 48.4755 108.763 48.4635 108.559 48.7155C108.429 48.8281 108.325 48.9673 108.254 49.1236C108.183 49.2799 108.146 49.4497 108.146 49.6215C108.146 49.7932 108.183 49.963 108.254 50.1193C108.325 50.2756 108.429 50.4148 108.559 50.5274C108.336 50.6952 108.165 50.9233 108.068 51.1848C107.97 51.4464 107.949 51.7304 108.007 52.0034C108.211 52.8434 108.859 52.8554 109.459 53.2034C109.382 53.5986 109.345 54.0008 109.351 54.4034C109.41 54.6557 109.528 54.8904 109.694 55.0885C109.861 55.2866 110.073 55.4425 110.311 55.5434C109.935 56.5667 109.184 57.4088 108.21 57.899C107.237 58.3892 106.113 58.4909 105.067 58.1835C103.66 57.9154 102.388 57.1693 101.467 56.0715C100.955 55.3453 100.652 54.4926 100.59 53.6061C100.529 52.7196 100.712 51.8333 101.119 51.0434C101.507 50.0494 101.843 49.036 102.127 48.0075C102.319 47.4103 102.416 46.7867 102.415 46.1594ZM58.5431 28.1595C57.4626 28.2822 56.3716 28.2822 55.2911 28.1595C55.1591 28.1595 54.9911 28.0515 54.9911 27.9075C54.9911 27.7635 55.1471 27.6795 55.2911 27.6315C56.1311 27.3915 56.6591 27.6315 56.7791 27.3555C55.8636 27.0128 54.9964 26.553 54.1991 25.9875C54.2183 25.9448 54.2525 25.9107 54.2951 25.8915C54.8351 25.6035 55.6031 26.2035 56.0471 25.8915C55.7471 25.2915 55.3151 25.3875 54.5111 25.0035C54.3071 25.0035 54.2111 24.5355 54.6791 24.5835C55.2918 24.6093 55.8907 24.7734 56.4311 25.0635C56.4311 24.4515 55.5551 24.3675 55.5551 23.8635C55.8234 23.887 56.0824 23.9733 56.3111 24.1155C57.444 24.6663 58.521 25.3254 59.5271 26.0835C59.4311 25.9995 58.8551 27.0315 58.8071 27.1035C58.6149 27.4341 58.5231 27.8135 58.5431 28.1955V28.1595ZM75.1511 55.2434C77.8815 52.5245 81.0446 50.278 84.5111 48.5954C85.7498 50.156 87.1675 51.5657 88.7351 52.7954L88.8911 52.5794C85.4841 49.8131 82.9777 46.0953 81.6911 41.8995C80.4911 38.0235 81.0911 37.2675 80.3951 37.2315C76.7033 37.2464 73.0236 36.8071 69.4391 35.9235C66.2724 34.993 63.3201 33.4476 60.7511 31.3755C59.8161 30.7096 59.1753 29.7075 58.9631 28.5795C58.7951 25.4955 63.2231 24.3914 66.4031 24.2474C68.1911 24.1634 70.0031 24.2474 71.7431 24.1394C80.3208 23.8715 88.6545 27.0177 94.9151 32.8875C98.9231 36.7515 103.015 43.8434 101.335 49.1114C100.904 50.2511 100.578 51.4281 100.363 52.6274C99.1631 59.1914 109.315 61.0995 110.935 54.5595C111.823 55.4355 112.435 55.5194 113.563 56.4794C119.971 61.1594 122.203 65.6234 123.787 67.1954C126.71 67.5159 129.569 68.2681 132.271 69.4275C136.698 71.3269 140.619 74.2365 143.719 77.9235C142.375 80.6115 142.147 81.3074 141.475 81.6794C140.634 81.9926 139.745 82.159 138.847 82.1715C133.041 82.7707 127.175 82.0318 121.699 80.0115C116.211 77.9894 111.098 75.0696 106.567 71.3715C108.558 69.0531 110.311 66.5405 111.799 63.8715H111.571C107.068 71.1621 100.485 76.938 92.6711 80.4555C91.7586 80.9293 90.718 81.0976 89.7027 80.9356C88.6873 80.7735 87.7508 80.2898 87.0311 79.5555C83.0711 76.2915 79.9871 71.0474 77.7671 66.4274C76.0859 63.7822 74.7738 60.9198 73.8671 57.9194C73.9307 56.8944 74.3913 55.9345 75.1511 55.2434ZM77.3231 114.175L116.923 94.6875C117.957 97.0606 119.119 99.376 120.403 101.623C121.675 104.023 130.003 121.087 130.435 121.927C128.442 122.995 126.547 124.236 124.771 125.635C124.349 124.546 123.74 123.539 122.971 122.659C123.244 123.833 123.736 124.945 124.423 125.935C123.171 126.909 121.969 127.947 120.823 129.043C120.391 129.043 120.511 127.555 118.423 125.095C118.855 126.661 119.51 128.156 120.367 129.535C119.181 130.687 118.078 131.923 117.067 133.231C116.075 131.197 114.931 129.24 113.647 127.375C114.504 129.612 115.51 131.789 116.659 133.891C116.659 134.011 114.391 137.575 114.259 137.695C116.167 137.923 118.303 137.563 121.459 139.231C123.235 140.047 122.311 142.375 120.955 143.215C119.629 143.793 118.143 143.887 116.755 143.479L116.515 143.071C117.806 143.173 119.104 143.08 120.367 142.795C121.687 142.267 122.767 140.275 120.367 139.339C117.515 138.452 114.532 138.058 111.547 138.175C109.712 138.248 107.918 138.74 106.303 139.615C105.288 137.217 104.03 134.929 102.547 132.787C103.474 135.234 104.581 137.609 105.859 139.891C104.672 140.701 103.375 141.336 102.007 141.775C100.991 139.371 99.7282 137.079 98.2391 134.935C99.1502 137.29 100.229 139.576 101.467 141.775H99.2831C98.9449 141.716 98.5967 141.789 98.3111 141.979C98.1551 141.571 97.8311 140.899 96.7991 138.679C96.4751 137.983 96.1271 137.191 95.2031 136.951C94.2158 137.017 93.2727 137.386 92.5031 138.007C91.4351 138.547 91.0391 139.327 91.3871 140.275C92.1191 142.183 93.0671 144.067 93.0191 143.947C93.3551 144.691 93.7871 145.603 94.6391 145.723C95.4911 145.843 98.3231 144.763 98.5751 143.323C99.6645 144.291 101.093 144.787 102.547 144.703C103.602 144.569 104.642 144.34 105.655 144.019C105.019 144.367 105.463 144.151 104.335 144.775C103.471 145.267 103.279 146.167 103.759 147.307C103.759 147.427 104.959 150.175 105.343 150.751C105.811 151.579 106.255 152.371 107.275 152.371C107.935 152.371 108.031 152.215 110.359 151.039C111.343 150.343 111.067 149.491 110.671 148.531C110.231 147.448 109.73 146.391 109.171 145.363C108.799 144.619 108.403 143.695 107.155 143.551C108.434 143.161 109.756 142.932 111.091 142.867C113.491 148.003 113.491 148.159 114.175 149.047L114.271 148.939C114.475 148.735 114.271 148.207 114.043 147.991C113.815 147.775 111.547 142.963 111.475 142.843C112.677 142.826 113.878 142.87 115.075 142.975C115.479 142.963 115.882 143.004 116.275 143.095C116.813 144.46 117.48 145.77 118.267 147.007L118.375 146.911C118.579 146.707 118.375 146.179 118.135 145.951C119.164 147.201 120.3 148.357 121.531 149.407C121.81 149.773 122.175 150.063 122.594 150.252C123.013 150.441 123.473 150.521 123.931 150.487C127.586 149.488 131.436 149.439 135.115 150.343C135.941 150.573 136.689 151.026 137.275 151.651C137.429 151.914 137.524 152.207 137.553 152.51C137.582 152.813 137.544 153.119 137.442 153.406C137.34 153.693 137.177 153.954 136.964 154.171C136.75 154.389 136.492 154.557 136.207 154.663C133.807 155.695 132.283 154.735 128.347 154.963C130.282 155.926 132.15 157.016 133.939 158.227C133.819 158.227 49.2671 199.831 47.6711 200.527C46.2671 196.975 19.8671 144.439 19.3871 143.203C24.1871 140.803 27.7871 138.823 61.0271 121.987C60.762 122.481 60.5257 122.99 60.3191 123.511C60.2369 123.66 60.185 123.824 60.1665 123.993C60.1479 124.162 60.1631 124.332 60.2111 124.495C60.3184 124.65 60.4573 124.781 60.6186 124.878C60.7799 124.975 60.9601 125.037 61.1471 125.059C60.7271 124.951 59.7431 128.803 59.7191 129.151C59.1911 128.275 58.8671 127.747 57.7271 127.951C56.5185 128.222 55.466 128.96 54.7991 130.003C54.1031 131.947 55.6271 133.783 56.5871 135.235C57.0791 136.015 57.4871 136.723 58.5311 136.543C59.2721 136.377 59.9895 136.119 60.6671 135.775C60.9494 135.667 61.2097 135.509 61.4351 135.307C62.2871 134.407 61.9511 133.423 61.4351 132.451L61.2431 132.091C60.8951 131.371 60.4151 130.783 60.0431 130.075C61.2922 131.083 62.8422 131.645 64.4471 131.671C64.5077 131.669 64.5676 131.685 64.619 131.717C64.6704 131.749 64.7109 131.796 64.7351 131.851C64.9031 132.103 65.4671 133.579 65.8031 133.579C65.9351 133.579 65.9471 133.387 65.8991 133.279L65.3591 131.959C65.4791 131.959 65.3591 131.959 67.6151 132.079C69.7271 132.211 70.6031 131.059 72.3311 130.363C72.9911 130.075 73.9631 129.631 74.0831 128.827C74.0646 128.041 73.7813 127.285 73.2791 126.679C72.0071 124.759 71.8751 123.655 70.9871 122.779C73.5607 120.282 75.7018 117.374 77.3231 114.175ZM107.815 144.175C107.923 144.295 112.099 150.175 109.567 150.895C108.007 151.723 107.263 151.891 106.699 151.555C106.089 150.936 105.615 150.196 105.307 149.383C104.899 148.099 104.551 147.895 104.107 146.683C103.423 145.255 107.083 143.743 107.815 144.175ZM94.7231 144.943C93.9551 144.727 93.6551 143.743 93.2471 142.795C92.9351 142.087 91.3631 140.167 91.7351 138.967C91.7979 138.777 91.9011 138.602 92.0378 138.455C92.1745 138.308 92.3415 138.192 92.5271 138.115C93.2648 137.583 94.1388 137.271 95.0471 137.215C95.6471 137.299 98.0351 142.015 98.0951 142.111C99.0671 143.767 96.0191 144.931 94.7231 144.991V144.943ZM61.5431 134.731C60.4271 135.799 58.1591 137.023 57.1751 135.319C55.3631 132.139 54.3911 131.119 55.1351 130.075C55.8105 129.452 56.6383 129.017 57.5351 128.815C59.1671 128.203 59.2991 129.871 60.9431 132.547C61.4471 133.555 61.7951 134.143 61.5431 134.779V134.731ZM70.4111 123.931C70.5791 123.751 70.9991 123.235 71.0711 123.139C71.3111 123.427 72.3911 125.839 72.5471 126.187C73.0635 126.889 73.375 127.72 73.4471 128.587C73.3391 129.199 72.8831 129.463 72.3311 129.787C71.803 130.11 71.2282 130.349 70.6271 130.495C70.607 130.263 70.5403 130.037 70.431 129.831C70.3218 129.625 70.1722 129.443 69.9911 129.295C69.7751 129.103 69.1991 128.911 69.0671 128.707L67.9751 126.727C68.8554 125.874 69.6698 124.956 70.4111 123.979V123.931ZM66.3551 127.375C66.5459 127.442 66.7505 127.459 66.9497 127.426C67.149 127.392 67.3366 127.309 67.4951 127.183C67.7351 127.675 67.9271 127.663 68.0711 128.383C66.1991 128.023 66.3551 127.471 66.3551 127.375ZM65.8991 127.051V127.339C65.8911 127.614 65.9773 127.882 66.1432 128.1C66.3091 128.319 66.5448 128.474 66.8111 128.539C67.9328 128.816 68.9864 129.318 69.9071 130.015C70.9871 131.215 68.5991 131.071 68.0591 131.071C65.1431 131.071 63.6311 131.263 61.4951 130.255C60.6791 129.859 60.7991 129.295 61.0031 128.479C61.2497 127.492 61.5624 126.521 61.9391 125.575C62.7911 125.971 63.7631 126.115 64.6151 126.547C65.0134 126.775 65.4476 126.934 65.8991 127.015V127.051ZM45.0671 210.307H44.9711C44.0282 209.427 43.326 208.32 42.9311 207.091C42.8711 206.971 14.3711 148.795 12.1031 144.511C11.82 144.12 11.6444 143.662 11.5939 143.182C11.5434 142.702 11.6196 142.217 11.8151 141.775C12.312 141.054 13.027 140.512 13.8551 140.227C16.6271 139.027 60.0311 117.571 63.1391 116.083C62.5031 118.075 61.9391 119.419 61.2791 121.411C58.4111 122.791 18.7391 142.843 18.4151 142.843C18.4151 142.975 46.8671 200.827 46.9991 201.067C47.1311 201.307 47.7671 201.067 47.8871 201.067C48.0071 201.067 134.023 158.743 134.695 158.359C134.815 158.359 138.391 160.759 138.631 160.879C139.234 161.292 139.882 161.634 140.563 161.899C142.522 161.11 144.59 160.62 146.695 160.447C148.939 160.351 152.695 160.747 152.479 163.003C152.35 163.644 151.981 164.211 151.447 164.587C150.799 165.127 141.331 169.687 141.211 169.747C142.423 168.226 143.961 166.996 145.711 166.147C147.103 165.451 148.675 165.319 150.883 163.747C151.819 163.147 151.771 162.283 151.171 161.899C147.847 159.847 141.127 160.795 137.527 165.847C44.3711 211.759 48.6671 209.647 48.4271 209.755C47.6591 210.175 46.2671 211.003 45.0671 210.307ZM150.475 167.215C148.759 168.079 141.655 171.511 139.807 172.435C140.039 171.683 140.379 170.967 140.815 170.311C145.615 168.067 147.367 167.191 149.215 166.147C149.359 166.267 150.247 167.071 150.451 167.215H150.475ZM47.0471 229.615C47.1791 227.323 47.7551 211.891 47.7551 211.891C47.7072 211.609 47.7072 211.321 47.7551 211.039C47.8391 210.691 48.1271 210.619 48.9551 210.211L137.023 166.819L135.991 168.883C130.171 171.715 52.1831 210.451 51.7391 210.451C49.2071 211.567 50.1911 210.883 49.9991 213.883V214.783C49.9991 215.527 49.8671 216.259 49.8791 217.003C49.8791 217.231 132.103 176.659 132.223 176.599C132.182 176.692 132.16 176.792 132.16 176.893C132.16 176.995 132.182 177.095 132.223 177.187C132.511 178.063 134.143 178.051 134.851 178.063C135.92 178.097 136.981 177.862 137.935 177.379C139.543 175.783 139.471 174.211 139.807 173.047C142.303 171.787 141.571 172.111 151.879 167.047C152.011 167.047 155.731 168.595 156.259 168.751C156.199 169.258 156.199 169.769 156.259 170.275C156.317 170.798 156.489 171.302 156.763 171.751C157.352 172.696 158.09 173.538 158.947 174.247C158.839 174.283 49.2551 228.307 47.0231 229.567L47.0471 229.615ZM53.7431 215.119C53.7683 214.617 53.732 214.113 53.6351 213.619C53.6229 213.572 53.6229 213.523 53.6351 213.475C53.5271 213.319 134.455 173.467 134.311 173.551C133.946 174.359 133.473 175.114 132.907 175.795L53.7431 215.119ZM53.5031 213.163L53.3591 211.855C53.2871 211.555 47.3591 214.483 135.019 171.607C134.863 172.168 134.641 172.707 134.359 173.215C134.215 173.227 54.1271 212.731 53.4671 213.115L53.5031 213.163ZM50.4311 213.163C50.8871 212.935 52.6031 212.059 52.9751 211.831V213.379C52.0031 213.799 50.2631 214.579 50.1191 214.579V213.211C50.2411 213.193 50.3614 213.165 50.4791 213.127L50.4311 213.163ZM50.5631 211.555C50.8871 211.291 52.2671 210.787 52.8311 210.475L52.9151 211.543C52.9151 211.663 52.9991 211.543 50.4311 212.923C50.4071 211.807 50.3351 211.675 50.5391 211.483L50.5631 211.555ZM50.4311 214.819C51.3707 214.435 52.2881 213.998 53.1791 213.511C53.2511 214.087 53.3111 214.663 53.3591 215.239C53.2751 215.239 50.1551 216.751 50.1071 216.787V214.915C50.2031 214.723 50.2871 214.759 50.4071 214.747L50.4311 214.819ZM53.3831 211.303V210.175C53.7191 210.175 132.847 171.163 135.967 169.687C135.679 170.443 135.607 170.623 135.487 170.887C123.535 176.251 65.3351 205.435 53.3591 211.231L53.3831 211.303ZM190.507 193.555C190.111 194.611 191.551 195.607 192.415 196.171C191.395 196.483 189.799 196.999 189.463 198.031C189.343 198.595 189.883 199.231 190.315 199.699C190.603 200.011 192.715 202.627 192.607 202.519C189.739 201.595 181.315 198.163 181.435 198.211C180.557 197.932 179.741 197.484 179.035 196.891C177.991 195.439 180.559 193.711 182.179 191.815C183.019 190.939 183.055 190.615 183.895 189.715C184.591 188.647 186.151 190.147 193.435 191.059C192.667 191.695 191.719 191.659 190.483 193.483L190.507 193.555ZM202.615 192.055C201.775 192.055 177.187 186.823 175.567 186.055C175.375 185.971 175.375 185.971 175.375 185.791C175.435 185.347 180.331 170.923 181.651 167.635C181.846 167.032 182.158 166.473 182.57 165.991C182.982 165.509 183.485 165.114 184.051 164.827C185.663 164.028 187.4 163.513 189.187 163.303C191.793 162.792 194.425 162.427 197.071 162.211C198.211 162.211 198.871 163.579 199.567 164.611C201.964 168.546 203.548 172.921 204.226 177.478C204.904 182.035 204.663 186.682 203.515 191.143C203.323 191.863 202.963 191.983 202.591 191.983L202.615 192.055ZM215.815 187.543C219.511 189.199 219.679 192.463 216.679 195.067C215.505 196.512 214.216 197.86 212.827 199.099C213.067 198.083 213.388 197.088 213.787 196.123C214.375 194.719 214.291 194.023 212.587 194.023C211.468 194.088 210.349 193.886 209.323 193.435L209.671 193.063C210.343 192.355 211.183 191.467 211.075 190.447C210.967 189.427 209.767 188.851 207.379 188.515C210.343 184.507 209.947 184.351 210.343 184.507C212.2 185.403 214.011 186.392 215.767 187.471L215.815 187.543ZM213.655 165.943C213.887 166.838 214.051 167.748 214.147 168.667C213.995 168.087 213.668 167.568 213.211 167.179C213.132 167.098 213.03 167.043 212.919 167.019C212.808 166.996 212.693 167.006 212.587 167.047C212.215 167.239 212.071 167.935 212.083 168.367C211.001 173.542 209.238 178.549 206.839 183.259C205.999 184.675 206.047 184.939 206.119 185.119C206.359 185.887 207.547 185.011 208.231 184.735L209.599 183.967C207.984 186.516 206.183 188.943 204.211 191.227C205.34 186.126 205.482 180.855 204.631 175.699C203.702 170.795 201.662 166.169 198.667 162.175C203.308 161.909 207.963 162.15 212.551 162.895C213.148 163.801 213.511 164.84 213.607 165.919L213.655 165.943ZM205.603 153.883C208.404 156.093 210.668 158.907 212.227 162.115C203.529 160.845 194.672 161.199 186.103 163.159C184.658 163.464 183.325 164.162 182.251 165.175C179.719 168.691 179.635 171.175 178.651 173.983C177.091 178.495 175.903 182.155 174.895 185.503C169.627 183.103 157.339 174.091 156.895 169.759C156.979 167.359 159.535 159.175 164.695 155.011C167.035 153.091 169.632 151.507 172.411 150.307C172.138 150.564 171.923 150.876 171.782 151.223C171.64 151.57 171.574 151.943 171.589 152.317C171.603 152.691 171.698 153.058 171.867 153.393C172.036 153.727 172.275 154.021 172.567 154.255L173.875 155.947C174.069 156.209 174.314 156.428 174.596 156.592C174.878 156.756 175.19 156.86 175.513 156.9C175.836 156.939 176.164 156.912 176.477 156.821C176.789 156.729 177.08 156.575 177.331 156.367C177.592 156.174 177.811 155.93 177.974 155.65C178.138 155.37 178.243 155.06 178.284 154.738C178.324 154.416 178.299 154.089 178.209 153.777C178.12 153.465 177.968 153.175 177.763 152.923L176.563 151.087C176.347 150.636 176.007 150.256 175.581 149.992C175.156 149.728 174.664 149.592 174.163 149.599C179.105 147.788 184.397 147.135 189.631 147.691C189.144 150.023 188.847 152.391 188.743 154.771C188.671 156.187 190.027 155.803 190.051 154.627C190.137 152.311 190.398 150.005 190.831 147.727C193.531 148.651 194.719 147.931 201.199 150.895C200.396 151.792 199.654 152.742 198.979 153.739V153.775C198.847 154.015 198.619 154.483 199.075 154.795C199.531 155.107 200.383 154.099 200.671 153.703C201.157 152.935 201.69 152.197 202.267 151.495C204.151 152.779 204.667 153.115 205.555 153.859L205.603 153.883Z" fill="black"/>
<path d="M215.767 187.471C215.839 187.519 215.839 187.519 215.767 187.471ZM161.599 162.859L161.395 163.495C163.051 164.244 164.611 165.191 166.039 166.315L166.447 165.691C164.914 164.611 163.292 163.664 161.599 162.859ZM166.783 161.299C165.979 160.819 165.583 160.447 164.239 159.523C163.992 159.39 163.759 159.233 163.543 159.055L163.135 159.655C163.687 160.135 164.443 160.495 165.319 161.179C165.993 161.705 166.698 162.19 167.431 162.631C167.575 162.631 167.431 162.727 167.923 162.031C167.561 161.76 167.18 161.515 166.783 161.299ZM198.571 182.671C195.187 177.439 192.247 171.871 189.415 166.459C189.235 166.123 189.055 165.967 188.851 165.967C188.359 166.039 188.071 167.047 187.831 168.115C187.831 169.051 185.215 174.715 183.643 180.355C183.331 181.411 184.003 181.831 184.615 182.083C189.051 184.291 193.871 185.623 198.811 186.007C199.231 186.007 199.747 186.007 199.915 185.719C199.951 185.631 199.963 185.534 199.95 185.44C199.938 185.345 199.901 185.255 199.843 185.179C199.553 184.282 199.124 183.435 198.571 182.671ZM194.515 172.699C194.767 173.323 195.715 173.347 196.915 173.731C197.618 174.016 198.383 174.115 199.135 174.019C199.363 173.947 199.471 173.839 199.447 173.695C199.447 173.311 198.127 173.107 198.127 173.107L197.491 173.035C197.126 173.065 196.759 173.021 196.411 172.908C196.063 172.795 195.741 172.614 195.463 172.375C194.923 171.451 195.211 170.959 195.139 169.975C195.139 168.127 195.223 167.803 194.839 167.131C194.647 166.927 194.311 166.735 194.203 167.335C194.163 169.129 194.267 170.922 194.515 172.699ZM208.927 166.795C208.795 166.435 208.435 165.595 208.087 165.775C207.739 165.955 208.087 166.759 208.627 168.175C208.9 168.767 209.074 169.399 209.143 170.047C209.143 170.755 208.531 171.115 207.943 171.499C207.511 171.643 206.743 171.919 206.551 172.363C206.546 172.432 206.56 172.501 206.591 172.563C206.623 172.624 206.672 172.676 206.731 172.711C207.375 172.663 207.992 172.429 208.507 172.039C209.011 171.811 209.911 171.223 210.007 170.635C209.811 169.315 209.448 168.024 208.927 166.795Z" fill="black"/>
</svg>
