<svg width="400" height="401" viewBox="0 0 400 401" fill="none" xmlns="http://www.w3.org/2000/svg">
<path d="M300.5 147.416C302.6 137.116 291.12 134.776 289.04 145.076C288.16 149.396 298.4 157.736 300.5 147.416ZM285.46 342.176C378.18 317.996 379.46 316.616 285.28 341.436C254.7 349.396 208 362.176 285.46 342.176ZM338.16 335.276C220.72 373.656 207.64 380.536 338.32 335.776C352.74 330.836 352 331.156 351.94 330.936C351.91 330.916 351.876 330.906 351.84 330.906C351.804 330.906 351.77 330.916 351.74 330.936L338.16 335.276ZM260.76 376.376C260.773 376.389 260.789 376.4 260.806 376.407C260.823 376.414 260.841 376.418 260.86 376.418C260.879 376.418 260.897 376.414 260.914 376.407C260.931 376.4 260.947 376.389 260.96 376.376C300.74 362.116 336.84 350.736 350.14 345.536C352.94 344.456 347.68 345.996 344.86 346.956C320.58 355.236 260.48 375.596 260.76 376.376ZM94 255.836C94 253.456 93.18 253.316 93.02 254.396C92.7103 258.555 92.6302 262.728 92.78 266.896C88.9469 264.707 84.932 262.854 80.78 261.356C80.78 256.936 80.66 253.516 80.52 251.576C80.36 249.256 79.5 249.896 79.5 251.096V255.796C79.32 263.796 79.36 270.676 79.68 273.636C79.78 274.656 80.34 274.976 80.54 273.976C80.8802 269.985 80.9603 265.977 80.78 261.976C84.6249 264.141 88.6378 265.994 92.78 267.516C92.78 274.016 92.78 277.516 92.96 279.956C92.96 281.096 94.1 281.696 94.06 279.836C94 271.756 94 261.656 94 255.836ZM107 260.336C106.001 269.754 105.733 279.236 106.2 288.696C106.2 289.616 107 289.696 107.08 289.056C107.24 287.336 107.08 275.056 108.5 261.516C111.248 262.781 114.081 263.85 116.98 264.716C118.04 264.956 117.78 264.156 117.32 263.916C109.5 260.036 102.7 257.816 99.92 256.496C99.3 256.216 97.72 256.496 99.58 257.536C100.94 258.296 102.92 258.596 107 260.336ZM138.2 271.576C138.089 271.559 137.976 271.576 137.875 271.626C137.775 271.677 137.693 271.757 137.64 271.856L130.42 287.056C120.62 256.616 122.08 253.216 121.86 293.976C121.86 294.396 122.44 294.696 122.64 294.296C122.84 293.896 122.64 296.056 123.22 267.496C130.16 289.496 129.58 288.996 130.28 289.036C130.98 289.076 132.12 287.036 137.8 274.736C138.82 288.216 138.88 295.776 139.42 298.996C139.62 300.116 140.56 299.856 140.46 298.696C140.06 293.996 139.66 289.696 139.12 280.516C138.94 277.196 138.72 271.676 138.2 271.576ZM149.64 304.176C149.64 286.976 149.82 279.616 149.64 276.896C149.64 275.536 148.48 275.816 148.52 276.896C148.28 301.096 148.52 304.696 148.88 304.896C154.62 307.476 159.36 309.996 161.86 310.896C162.36 311.076 162.88 310.596 161.86 309.996C159.72 308.756 155.6 306.896 149.64 304.176ZM167.22 339.936C165.74 343.236 163.94 347.236 162.42 350.516C164.891 350.637 167.322 351.192 169.6 352.156C168.82 348.416 168 343.676 167.22 339.936Z" fill="white"/>
<path d="M360.14 308.176L352 304.576C352.62 303.376 354.8 268.216 355.44 253.936C355.44 253.676 355.62 253.776 350.94 252.476C338.94 249.076 324.14 245.416 313.44 242.996C358.32 230.396 355.62 231.176 355.66 230.796C357.44 214.556 360.22 192.036 359.9 191.916L313.16 177.236C325.38 128.816 328.46 117.656 328.9 114.876C329.06 113.856 329.16 113.616 328.66 113.556C322.22 113.136 302.66 111.856 273.38 109.996C273.14 108.876 272.42 105.556 271.14 100.916C270.4 98.1957 269.46 95.0357 268.32 91.5757C264.344 81.8166 256.979 73.8202 247.58 69.0557C243.32 61.6757 250.34 50.1157 245.9 27.6157C241.46 5.11567 217.9 7.49567 209.9 17.9957C196.56 35.6357 205.24 46.7557 182.82 62.3957C179.4 62.9957 163.94 69.7557 154.22 76.6357C148.932 80.744 144.548 85.8978 141.34 91.7757C136.491 100.436 132.684 109.64 130 119.196C129.974 119.296 129.986 119.403 130.034 119.496C130.082 119.588 130.162 119.659 130.26 119.696C130.26 119.696 132.8 120.656 136.84 121.996C134.84 131.796 133.72 147.996 140.18 155.996L39.4399 174.456V230.696L61.7199 236.316C61.7199 236.556 64.8199 272.996 65.2999 273.236L84.9999 283.016L44.9999 294.056C127.86 314.516 235.18 342.616 235 343.296C234.82 343.976 112 312.796 44.3199 294.516V341.616L238.32 389.936C238.16 390.516 237.46 390.616 267.82 380.376C289.16 373.176 360.52 348.876 360.52 348.256C360.3 310.176 360.32 309.076 360.14 308.176ZM93.4999 322.316C94.1199 333.496 96.6799 347.676 85.8599 347.616C78.1199 347.396 77.8599 337.616 78.7999 337.616C79.7399 337.616 78.7999 340.336 81.0799 343.616C81.6366 344.296 82.3306 344.85 83.1165 345.244C83.9024 345.637 84.7624 345.86 85.6404 345.897C86.5184 345.935 87.3944 345.787 88.2112 345.463C89.0279 345.138 89.767 344.645 90.3799 344.016C91.4598 342.685 92.09 341.047 92.1799 339.336C92.1799 337.736 92.0799 332.996 92.6799 322.156C84.5199 320.416 83.8799 320.156 78.6799 318.676C78.5845 318.654 78.5013 318.596 78.4488 318.514C78.3963 318.431 78.3787 318.331 78.3999 318.236C78.4212 318.14 78.4794 318.057 78.562 318.005C78.6445 317.952 78.7445 317.934 78.8399 317.956C106.22 321.776 120 327.796 93.4999 322.316ZM123.04 353.196C122.6 353.196 122.72 353.736 120.06 342.496C117.378 342.503 114.723 341.959 112.26 340.896C108.26 349.816 108.48 349.716 108.02 349.536C107.56 349.356 110.36 341.536 116.62 325.716C116.69 325.535 116.817 325.381 116.981 325.278C117.146 325.175 117.339 325.128 117.532 325.144C117.726 325.159 117.909 325.237 118.054 325.366C118.2 325.494 118.3 325.666 118.34 325.856C118.34 325.856 118.94 328.716 119.72 332.556C122.3 345.416 122.42 347.636 123.32 352.776C123.338 352.868 123.318 352.964 123.266 353.043C123.214 353.122 123.132 353.176 123.04 353.196ZM145.28 352.516C141.6 360.276 141.76 360.296 140.92 360.216C140.738 360.2 140.565 360.131 140.423 360.017C140.28 359.903 140.175 359.75 140.12 359.576C138.78 354.956 136.98 349.576 133.98 338.256C132.88 334.256 132.1 331.096 132.1 331.096C132.071 331.003 132.08 330.902 132.125 330.816C132.17 330.73 132.247 330.665 132.34 330.636C132.433 330.606 132.533 330.615 132.62 330.66C132.706 330.705 132.771 330.783 132.8 330.876C136 340.356 136.52 341.356 141.2 356.876C155.12 328.176 156.6 328.596 145.28 352.516ZM172.6 364.176C172.08 364.276 172.22 364.356 169.86 353.416C167.097 353.341 164.377 352.716 161.86 351.576C159.68 356.216 156.68 362.256 156.58 362.476C156.524 362.51 156.46 362.53 156.394 362.533C156.328 362.535 156.263 362.521 156.205 362.49C156.146 362.46 156.097 362.415 156.061 362.36C156.025 362.305 156.004 362.241 156 362.176C156 362.176 157.08 359.416 158.58 355.716C169.9 327.716 167.84 328.936 172.94 363.716C172.952 363.769 172.952 363.823 172.94 363.876C172.929 363.929 172.907 363.979 172.874 364.023C172.842 364.066 172.801 364.103 172.754 364.129C172.706 364.155 172.654 364.171 172.6 364.176ZM354.12 253.936C349.3 254.776 328.56 258.416 303.56 262.856C306.76 255.096 308.88 249.616 311.1 243.696L312.44 243.316C324.28 246.676 340.3 250.816 354.12 253.896V253.936ZM163.12 200.956C158.352 197.597 154.524 193.073 152 187.816L153.62 186.916C156.057 190.944 159.076 194.59 162.58 197.736C166.163 201.022 170.433 203.468 175.08 204.896C186.36 208.096 209.92 212.656 221.46 214.756C218.78 231.836 219.32 260.336 226.5 290.756L225.78 290.656C222.727 281.159 220.787 271.34 220 261.396C218.686 246.252 218.418 231.036 219.2 215.856C219.4 213.156 180.24 213.256 163.12 200.916V200.956ZM244.1 183.396C255.4 187.636 262.5 198.476 259.86 213.756C256.74 231.996 246.1 272.076 241.26 289.936C236.56 291.149 231.669 291.435 226.86 290.776C215.62 239.736 224 214.176 222 213.816C221.78 213.816 187.44 207.456 175.12 204.076C170.57 202.734 166.376 200.398 162.84 197.236C159.398 194.17 156.42 190.619 154 186.696C156.16 185.516 158.22 184.416 161.14 182.956C172.84 177.136 187.3 171.496 200.3 170.796V174.316C200.18 174.816 197.66 174.176 244.1 183.356V183.396ZM277.36 277.396L277 277.156C276.787 268.894 277.055 260.627 277.8 252.396C279.24 235.256 280.54 227.296 282.08 222.616C283.42 218.616 284.46 216.276 283.7 216.076C281.48 215.516 279.9 215.056 261.28 210.516C261.369 208.984 261.369 207.448 261.28 205.916C269.24 209.308 277.486 211.985 285.92 213.916C281.799 228.335 279.119 243.127 277.92 258.076C277.5 264.176 277.28 270.616 277.36 277.356V277.396ZM276.6 267.636L246.6 273.036C248.18 267.416 249.08 264.036 249.96 260.756C258.58 258.356 267.08 256.016 277.12 253.196C277.1 253.576 276.7 258.976 276.6 267.596V267.636ZM259.06 223.276C267.32 222.376 275.76 221.036 282.08 219.816C280.922 224.223 280.001 228.69 279.32 233.196C271.66 234.396 263.32 235.996 255.8 237.776C257 232.656 258.12 227.756 259.06 223.236V223.276ZM255.7 238.176C264.12 236.876 272.22 235.236 279.24 233.596C278.62 237.596 278.22 240.976 277.84 244.736C270.88 245.876 261.62 247.676 252.84 249.776C253.86 245.676 254.7 242.296 255.7 238.176ZM252.74 250.176C261.149 248.778 269.507 247.091 277.8 245.116C277.58 247.336 277.38 249.656 277.2 252.136L250.24 259.736C251.08 256.536 252 253.336 252.74 250.176ZM278.88 258.176C282.14 224.696 287.72 214.356 287.08 213.296C286.995 213.181 286.876 213.097 286.74 213.056C278.072 211.234 269.57 208.698 261.32 205.476C261.32 204.836 261.32 204.396 261.16 203.876C270.006 207.688 279.159 210.745 288.52 213.016C283.959 227.718 280.923 242.851 279.46 258.176C278.9 264.496 278.6 271.196 278.68 278.176L277.74 277.616C278 277.296 277.56 271.776 278.88 258.176ZM261.24 211.016C267.14 212.636 277 215.356 282.94 217.016C282.78 217.496 282.52 218.356 282.18 219.556C276.18 220.216 267.68 221.416 259.14 223.036C259.86 219.416 260.96 213.996 261.24 210.936V211.016ZM238.3 303.476C241 302.996 230.3 304.696 256.02 300.836L273.24 298.236C273.005 298.77 272.696 299.269 272.32 299.716C270.431 301.623 269.097 304.008 268.46 306.616L272.62 309.236L239.06 314.916C237.652 311.24 237.387 307.225 238.3 303.396V303.476ZM255.9 300.076L238.4 302.756C239.14 298.236 241.02 292.876 246.28 274.196L276.6 268.696V277.076C276.6 277.196 275.78 291.716 273.58 297.396L255.9 300.076ZM279.1 278.356C279.58 238.616 290.34 213.596 289.6 212.356C289.569 212.29 289.521 212.233 289.462 212.191C289.402 212.149 289.333 212.123 289.26 212.116C285.35 211.358 281.489 210.363 277.7 209.136C270.18 206.796 262.84 204.016 261.1 203.336C260.474 198.873 258.658 194.66 255.843 191.141C253.028 187.622 249.317 184.926 245.1 183.336L311.1 179.196C314.224 180.159 316.894 182.219 318.62 184.996C327.34 198.156 318.74 219.856 310.14 242.996C300.64 268.596 294.14 282.456 294.14 282.856C288.794 282.614 283.582 281.099 278.94 278.436C278.94 278.436 279.1 278.316 279.1 278.276V278.356ZM354.8 230.476C339.76 234.616 325.2 238.696 311.58 242.476C313.14 238.276 313.96 235.976 314.88 233.376C350.88 227.676 351.26 224.556 315.02 232.996C316.2 229.656 317.3 226.396 318.3 223.256C363.46 214.976 362.86 212.056 318.42 222.876C320.42 216.516 323.58 206.256 323.4 199.596L359.7 192.176L354.8 230.476ZM328 114.556L311.86 178.056L243.54 182.436L200.98 174.016V170.756C201.38 170.756 220.76 175.196 243.48 178.756C243.536 178.768 243.594 178.758 243.642 178.728C243.691 178.698 243.726 178.651 243.74 178.596L260.46 110.016C279.64 111.356 309.86 113.376 328 114.556ZM203.78 170.656L245.32 169.816L243.32 178.316C230.42 175.436 216.76 172.796 203.78 170.656ZM227.78 33.0157C227.78 33.0157 237.56 33.0157 243.16 36.6157C243.16 36.6157 245.64 61.1157 228.92 61.1157C217.48 61.1157 211.08 46.2957 227.82 33.0157H227.78ZM130.78 119.016C133.536 109.654 137.375 100.647 142.22 92.1757C145.37 86.4365 149.665 81.4057 154.84 77.3957C163.431 71.6149 172.701 66.9129 182.44 63.3957C197.26 72.6757 212.44 106.216 225.06 112.856C237.68 119.496 243.6 92.8557 243.2 86.2157C242.86 80.6957 246.26 72.2157 247.34 69.8157C256.547 74.4481 263.776 82.2448 267.7 91.7757C268.88 95.2157 269.84 98.3557 270.62 101.056C271.9 105.516 272.62 108.756 272.92 109.956C258.92 109.076 259.76 108.976 259.64 109.476L245.42 169.476C198 170.256 204.16 170.016 200.14 170.096C186.86 170.096 172.28 176.096 160.6 182.096C157.14 183.916 153.18 186.256 149.98 188.376C146.016 179.54 144.636 169.763 146 160.176C161.56 165.376 175.68 160.456 188.22 160.476C201.46 160.476 207.74 156.076 211.18 164.876C212.16 168.756 215.62 168.876 215.44 165.976C217.56 169.196 220.16 168.496 218.2 163.216C219.16 164.856 219.68 167.356 221.42 167.516C225.22 167.836 222.94 154.536 209.18 150.016C190.12 143.776 184.7 136.016 171.18 134.376C174.18 120.856 177.18 102.836 174.6 89.1957C171.72 73.6557 163.56 74.4757 163.38 74.2757C163.322 74.2757 163.266 74.2989 163.224 74.3401C163.183 74.3814 163.16 74.4373 163.16 74.4957C163.16 74.554 163.183 74.61 163.224 74.6512C163.266 74.6925 163.322 74.7157 163.38 74.7157C163.74 75.1557 179.38 73.2957 172.7 122.016C172.36 124.516 171.96 127.136 171.5 129.896C165.878 129.243 160.31 128.187 154.84 126.736C146.709 124.583 138.692 122.02 130.82 119.056L130.78 119.016ZM137.16 122.176C147.36 125.556 160.9 129.376 171.56 130.336C171.34 131.636 171.1 132.976 170.84 134.336C160.84 133.216 149.88 137.216 150.08 137.736C150.089 137.763 150.103 137.789 150.122 137.811C150.141 137.833 150.165 137.851 150.191 137.864C150.217 137.877 150.245 137.885 150.274 137.887C150.303 137.889 150.332 137.885 150.36 137.876C176.7 128.036 185.4 143.076 208.94 150.956C222.18 155.356 223.38 167.576 221.3 166.376C220.2 165.716 220.36 164.376 218.58 161.736C217.709 160.446 216.761 159.21 215.74 158.036C215.699 157.981 215.648 157.934 215.589 157.899C215.531 157.863 215.465 157.84 215.398 157.829C215.33 157.819 215.261 157.823 215.194 157.839C215.128 157.856 215.065 157.885 215.01 157.926C214.955 157.966 214.908 158.018 214.873 158.076C214.837 158.135 214.814 158.2 214.804 158.268C214.794 158.336 214.797 158.405 214.813 158.471C214.83 158.538 214.859 158.601 214.9 158.656C219.52 166.656 218.6 171.016 214.08 160.976C213.06 158.296 212.86 157.616 212.2 157.896C211.22 158.316 212.74 159.676 214 163.896C214.317 164.793 214.453 165.745 214.4 166.696C214.4 166.876 213.74 166.916 213.26 166.476C211.26 164.476 212.4 157.456 201.04 158.476C197.66 158.756 193.48 159.476 188.28 159.476C175.02 159.476 163.46 164.236 146.78 159.596C134.18 156.036 134.7 135.016 137.16 122.176ZM156.9 204.356L166 206.676C159.258 202.22 153.808 196.067 150.2 188.836L151.54 188.036C154.063 193.399 157.911 198.031 162.72 201.496C171.12 207.736 180.06 209.716 198.72 213.176C208.84 215.176 216.24 216.036 218.18 216.276C216.92 237.736 217.86 270.276 225.24 290.496C223.74 290.236 222.68 289.976 222.26 289.876C217.778 274.101 215.437 257.795 215.3 241.396C215.18 222.776 218.06 219.936 216.46 219.936C215.94 219.816 186.92 220.036 167.68 207.796L156.72 205.236C9.55994 170.876 7.73993 165.616 156.9 204.316V204.356ZM205.92 220.356C210.76 220.856 214.36 220.976 215.76 221.016C212.92 235.136 214.42 254.516 217.04 269.156L205.92 272.356V220.356ZM149.5 231.476C160.18 232.156 165.12 243.476 160.28 248.476C156.08 252.776 145.58 250.476 141.88 245.296C139.975 242.492 139.256 239.048 139.88 235.716C139.88 235.336 140.94 234.836 141.18 236.436C141.74 238.096 138.2 246.016 150.48 248.296C166.02 251.256 161.82 234.736 149.08 233.936C136.86 233.136 137.92 218.676 142.26 215.056C146.6 211.436 153.78 214.296 157.94 218.016C162.68 222.236 162.92 227.156 161.94 227.076C161.78 227.076 160.82 227.436 160.4 226.016C159.1 221.556 157.36 218.536 152.18 216.636C146.34 214.496 141.38 215.936 141.54 221.276C141.86 227.496 143.7 231.096 149.5 231.456V231.476ZM113.14 220.676C128.14 221.636 131.4 243.156 114.04 239.476C101.32 236.716 103.02 224.556 104.04 224.696C105.84 224.936 102.46 235.376 115.14 237.736C130.72 240.716 124.84 223.476 112.16 222.696C105.58 222.256 102.72 217.676 103.28 210.576C104.54 194.796 127.08 205.696 126.14 215.996C126.14 216.176 125.54 217.056 125.38 217.036C125.22 217.016 124.04 217.036 124.12 215.376C124.56 206.256 106.34 199.236 104.7 210.696C103.72 216.836 107.34 220.296 113.14 220.656V220.676ZM78.5199 225.216C82.8346 228.883 88.0453 231.34 93.6199 232.336C94.0199 232.336 94.6999 234.496 92.7799 233.936C91.5799 233.576 71.1199 231.156 71.1199 210.636C71.1199 194.636 93.1199 200.176 93.3799 200.156C93.6399 200.136 93.4999 200.396 93.6199 200.516C94.0599 201.076 94.0599 201.576 92.4599 201.656C92.2599 201.656 73.2599 199.656 73.2599 211.656C73.2599 217.176 74.3399 221.256 78.5199 225.196V225.216ZM65.9999 272.436C65.1199 263.596 63.9999 251.796 62.1199 236.436C128.12 259.276 141.36 264.436 194.96 283.316C194.48 299.456 194.58 319.536 194.96 330.916C116.96 295.556 130 304.016 65.9999 272.436ZM69.9999 238.436L206 272.916C206.8 272.716 206 272.916 217.22 269.776C217.7 272.436 218.26 275.196 218.9 278.036L195.24 282.176C174.92 275.056 105.1 250.396 69.9999 238.396V238.436ZM195.46 330.996C195.82 318.996 195.94 299.316 195.46 283.356L219.1 279.076C221.36 287.996 223.92 298.696 224.26 304.936C196.26 309.316 194.56 309.856 224.26 305.496C224.7 315.016 223.02 311.676 222.14 317.816C198.42 321.976 194.14 322.936 222.14 318.416C222.055 319.213 222.055 320.018 222.14 320.816L227.94 322.356C227.94 320.816 230.06 320.616 238.08 324.576C246.1 328.536 251.36 327.036 249.08 324.576C247.32 322.576 242.16 320.176 239.56 315.556L275.84 309.436C278.352 310.944 280.652 312.78 282.68 314.896C289.14 321.056 294.68 321.216 293.2 318.196C292.14 315.956 288.32 312.336 286.98 307.556C304.04 304.636 316.04 302.496 322.88 301.556C327.98 300.896 331.6 299.556 320.72 301.216C313.74 302.316 302.5 304.156 286.72 306.776C285.88 302.976 287.06 299.536 288.5 295.836C308.5 292.796 311.98 292.236 330.18 289.396C345.1 287.036 344.44 287.216 344.42 286.976C344.41 286.937 344.387 286.903 344.353 286.881C344.32 286.858 344.28 286.849 344.24 286.856L330.1 288.856C310.28 291.736 306.26 292.356 288.82 294.976C290.589 290.864 292.592 286.858 294.82 282.976C296.16 280.436 303.22 263.896 303.32 263.696L354.96 254.176C352.62 278.056 351.58 304.316 351.58 304.516L291.4 314.716C292.199 315.727 292.921 316.796 293.56 317.916C295.06 321.136 290.34 322.456 283.12 316.116L246.98 322.176C247.833 322.768 248.63 323.437 249.36 324.176C249.643 324.414 249.844 324.736 249.933 325.095C250.023 325.454 249.997 325.832 249.86 326.176C248.12 329.536 239.28 325.636 235.86 324.036L195.46 330.996ZM359.64 347.956C336.74 355.696 277.88 375.956 238.58 389.796L235.84 343.256L359.84 308.496C359.8 314.976 359.66 334.916 359.6 347.916L359.64 347.956Z" fill="white"/>
<path d="M117.16 329.196C115.28 333.836 113.98 336.956 112.74 339.796C115.146 339.896 117.519 340.396 119.76 341.276C118.88 337.416 117.7 331.816 117.16 329.196ZM227.16 41.9159C227.92 42.1759 228.02 41.0759 228.32 40.2959C228.371 40.2202 228.404 40.1342 228.418 40.0441C228.432 39.954 228.426 39.862 228.4 39.7746C228.374 39.6871 228.329 39.6065 228.269 39.5384C228.208 39.4702 228.133 39.4163 228.049 39.3804C227.966 39.3445 227.875 39.3275 227.784 39.3306C227.693 39.3338 227.604 39.3569 227.522 39.3985C227.441 39.4401 227.37 39.4991 227.315 39.5712C227.259 39.6433 227.22 39.7269 227.2 39.8159C226.88 40.6359 226.4 41.6559 227.16 41.9159ZM239.18 44.8559C239.44 44.0559 240.02 43.1759 239.3 42.8559C238.58 42.5359 238.32 43.5959 238.04 44.4559C238 44.7759 238.9 45.6759 239.18 44.8559ZM227.74 52.7959C228 52.9159 228.14 52.5159 227.88 52.4159C227.28 51.9388 226.798 51.3297 226.472 50.6358C226.146 49.942 225.984 49.1823 226 48.4159C226.008 48.3607 225.996 48.3046 225.967 48.2571C225.937 48.2097 225.893 48.1739 225.84 48.1559C225.42 48.1559 225.12 49.5959 225.26 50.4159C225.409 51.0053 225.72 51.541 226.158 51.9618C226.597 52.3827 227.145 52.6717 227.74 52.7959ZM235.34 48.0359C235.8 47.7359 236.32 41.0959 235.82 41.0359C235.32 40.9759 234.66 46.3959 234.6 47.0359C228.16 45.3759 234.74 48.4359 235.34 48.0359Z" fill="white"/>
</svg>
