<svg width="241" height="241" viewBox="0 0 241 241" fill="none" xmlns="http://www.w3.org/2000/svg">
<path d="M203.888 214.824C158.093 222.657 106.184 231.539 57.8361 220.062C48.9837 217.929 37.5705 214.634 27.8001 208.029C17.1417 200.924 10.0533 193.903 7.65333 180.872C5.65773 169.839 7.90053 157.613 13.9701 146.443C19.9149 135.312 28.9041 125.813 37.4757 116.597C37.5843 116.48 37.642 116.325 37.6363 116.166C37.6305 116.007 37.5618 115.856 37.4451 115.748C37.3285 115.639 37.1735 115.581 37.0143 115.587C36.8551 115.593 36.7047 115.662 36.5961 115.778C27.8913 125.099 18.9369 134.597 12.9129 145.874C6.71613 157.274 4.42893 169.785 6.47253 181.088C8.94453 194.491 16.5213 201.951 27.1329 209.025C47.5773 222.845 83.5737 226.752 108.63 226.752C141.283 226.752 174.008 221.153 204.092 216.007C204.249 215.98 204.389 215.892 204.481 215.762C204.573 215.633 204.61 215.472 204.583 215.315C204.556 215.158 204.468 215.018 204.338 214.926C204.209 214.834 204.047 214.797 203.891 214.824H203.888Z" fill="black"/>
<path d="M220.608 206.023C176.688 212.623 126.914 220.103 80.2808 209.094C72.9008 207.342 65.2412 205.046 59.2232 200.155C49.3112 192.067 48.5576 180.934 57.1496 169.612C67.4768 156.242 81.6452 146.543 94.1156 138.502C94.2422 138.413 94.3294 138.278 94.359 138.126C94.3886 137.974 94.3584 137.816 94.2745 137.686C94.1907 137.556 94.0598 137.463 93.9092 137.427C93.7586 137.392 93.5999 137.415 93.4664 137.494C80.912 145.589 66.6428 155.357 56.1968 168.882C47.156 180.794 47.9816 192.532 58.4648 201.086C64.6724 206.126 72.4856 208.476 80.0048 210.26C126.058 221.135 174.638 214.144 220.785 207.209C220.937 207.179 221.071 207.092 221.16 206.966C221.25 206.84 221.286 206.684 221.264 206.531C221.241 206.378 221.16 206.24 221.038 206.146C220.915 206.051 220.761 206.007 220.608 206.023Z" fill="black"/>
<path d="M210.4 211.762C181.745 216.191 152.851 218.916 123.873 219.922C111.768 220.28 99.6519 219.813 87.6102 218.522C68.8386 216.356 50.4954 209.677 38.5446 200.657C32.3232 195.96 28.0455 189.141 26.5254 181.495C21.7038 156.947 48.8682 132.781 57.3078 125.958C57.4269 125.857 57.5017 125.713 57.5161 125.557C57.5305 125.401 57.4835 125.246 57.385 125.124C57.2865 125.002 57.1444 124.924 56.989 124.906C56.8335 124.887 56.6771 124.93 56.553 125.026C47.9802 131.953 20.397 156.52 25.353 181.727C26.9296 189.66 31.3669 196.736 37.821 201.611C49.941 210.755 68.4978 217.522 87.477 219.712C99.5764 221.004 111.75 221.474 123.913 221.118C152.939 220.111 181.881 217.383 210.585 212.948C210.742 212.924 210.884 212.838 210.977 212.709C211.071 212.581 211.11 212.42 211.086 212.263C211.061 212.105 210.975 211.964 210.847 211.87C210.718 211.776 210.558 211.737 210.4 211.762Z" fill="black"/>
<path d="M12.465 160.087C12.4499 160.174 12.4539 160.262 12.4767 160.347C12.4995 160.431 12.5405 160.51 12.5969 160.577C12.6533 160.644 12.7237 160.698 12.8031 160.735C12.8825 160.771 12.969 160.791 13.0566 160.79C14.6286 160.79 12.081 157.422 21.201 144.591C27.6061 135.434 34.8841 126.92 42.933 119.169C43.0474 119.057 43.1129 118.905 43.115 118.745C43.1172 118.585 43.0558 118.432 42.9444 118.317C42.833 118.203 42.6807 118.137 42.5211 118.135C42.3614 118.133 42.2074 118.194 42.093 118.306C33.9911 126.109 26.6656 134.681 20.2194 143.899C16.9842 148.452 13.533 153.934 12.465 160.087Z" fill="black"/>
<path d="M42.0618 187.366C43.8618 194.999 50.3814 202.301 59.9646 207.406C67.7178 211.532 76.1742 213.569 85.6266 215.624C85.705 215.645 85.7867 215.65 85.867 215.638C85.9472 215.627 86.0243 215.599 86.0935 215.557C86.1627 215.514 86.2226 215.459 86.2697 215.393C86.3167 215.327 86.3499 215.252 86.3672 215.172C86.3845 215.093 86.3855 215.011 86.3703 214.932C86.355 214.852 86.3238 214.776 86.2785 214.709C86.2331 214.642 86.1747 214.585 86.1065 214.541C86.0384 214.497 85.9621 214.467 85.8822 214.453C76.5222 212.413 68.1462 210.401 60.5286 206.346C51.2514 201.408 44.9454 194.393 43.2294 187.099C39.4938 170.91 51.4926 152.008 64.6794 142.441C64.7459 142.396 64.8026 142.338 64.8462 142.27C64.8898 142.203 64.9194 142.127 64.9332 142.048C64.947 141.969 64.9448 141.888 64.9267 141.81C64.9086 141.731 64.875 141.658 64.8278 141.592C64.7806 141.527 64.7208 141.473 64.652 141.431C64.5832 141.39 64.5068 141.362 64.4273 141.351C64.3477 141.34 64.2667 141.344 64.189 141.365C64.1113 141.385 64.0385 141.421 63.975 141.47C50.4762 151.255 38.2086 170.672 42.0618 187.366Z" fill="black"/>
<path d="M59.9442 158.312C60.0551 158.426 60.2068 158.492 60.3659 158.494C60.525 158.496 60.6785 158.435 60.7926 158.324C75.5047 143.942 92.5212 132.124 111.136 123.361C111.264 123.285 111.359 123.163 111.403 123.021C111.446 122.878 111.435 122.724 111.371 122.59C111.308 122.455 111.196 122.349 111.058 122.292C110.921 122.234 110.767 122.231 110.626 122.281C91.8898 131.098 74.7628 142.992 59.9562 157.469C59.8436 157.579 59.7792 157.73 59.7769 157.888C59.7747 158.046 59.8348 158.198 59.9442 158.312Z" fill="black"/>
<path d="M113.781 77.9185C120.155 80.6005 129.446 66.4777 128.98 55.9825C128.674 49.1077 124.004 47.0893 118.837 51.7153C111.197 58.5505 107.237 75.1633 113.781 77.9185Z" fill="black"/>
<path d="M234.735 67.7472C234.108 62.9646 232.551 58.351 230.151 54.1668C228.315 50.9298 225.929 48.0368 223.101 45.6168C223.452 45.1164 222.661 43.5672 222.464 43.2168C220.673 40.0344 216.115 37.1964 209.395 33.2772C200.114 27.8076 190.586 21.6372 180.461 18.1764C169.14 14.3052 158.46 12.8772 148.687 13.9392C144.847 14.4192 134.397 15.1824 126.36 20.9244C116.244 28.1508 117.72 27.4644 117.271 27.4536C111.391 27.3576 105.631 29.676 99.6586 34.6056C94.4206 38.9256 90.505 42.4764 84.6934 48.1656C74.719 58.1352 71.6554 64.6152 66.9994 77.8404C62.4394 82.8996 57.9538 87.984 53.5426 93.0936C47.8798 99.6564 46.9426 109.184 45.6226 117.625C45.605 117.74 45.6213 117.858 45.6697 117.965C45.718 118.071 45.7962 118.16 45.8948 118.223C45.9933 118.285 46.1079 118.318 46.2245 118.316C46.3412 118.314 46.4547 118.278 46.5514 118.213L55.6186 119.807C56.2029 120.457 56.9728 120.912 57.8242 121.11C60.625 121.71 64.1986 123.017 67.0402 121.753C73.2526 122.885 100.571 127.494 108.735 129.022C108.857 129.043 108.983 129.027 109.095 128.975C109.447 129.139 108.503 129.455 121.393 123.815C121.571 128.507 123.193 131.821 125.564 132.304C127.383 132.859 129.286 133.091 131.185 132.991C134.583 132.842 137.613 128.332 138.385 122.262C138.654 120.315 138.629 118.339 138.312 116.399L181.509 97.4616C180.104 104.978 181.481 110.834 185.115 112.724C188.343 114.282 191.666 115.635 195.063 116.774C195.561 116.874 196.067 116.927 196.574 116.932C202.269 116.932 208.987 110.554 213.083 100.997C214.905 96.9407 215.88 92.5551 215.948 88.1088C216.594 88.5306 217.323 88.8079 218.086 88.9219C218.849 89.0358 219.627 88.9835 220.368 88.7688C224.898 86.0568 228.918 80.2692 231.72 77.1888C234.842 73.8912 235.26 71.8212 234.735 67.7472ZM160.277 46.4832C163.445 44.694 165.409 43.4208 168.739 42.678C175.958 41.718 184.332 45.174 190.995 48.1188C200.507 52.2492 210.425 57.0276 218.533 63.9768C219.896 65.0548 221.16 66.2532 222.308 67.5576C222.308 67.5744 222.321 67.59 222.329 67.6056C223.999 70.95 221.892 74.3028 219.404 77.1156L160.277 46.4832ZM110.102 60.5232C118.071 41.5824 133.191 35.4084 133.927 52.0416C133.982 57.9006 132.776 63.703 130.392 69.0552C127.309 76.3836 119.877 87.6648 112.707 87.2052C103.849 86.6388 106.053 70.158 110.102 60.5208V60.5232ZM54.6334 118.415L47.5042 117.163C48.4422 116.169 49.4887 115.284 50.6242 114.523C50.8114 114.403 50.935 114.265 51.1042 113.468C51.2686 112.698 51.475 111.308 51.8242 108.701C52.3052 104.052 53.8304 99.5728 56.2858 95.5968C57.8722 93.1056 60.3838 90.7404 63.223 91.5C63.6083 91.6458 63.9592 91.8697 64.2538 92.1576C55.9006 92.0628 50.3254 110.49 54.6334 118.415ZM73.087 98.1348C71.6925 99.4423 70.212 100.655 68.6554 101.765C68.6398 101.47 68.5474 100.624 68.521 100.325C69.601 99.3756 70.9606 98.2644 72.481 97.0572C72.6154 97.2768 72.9718 97.8996 73.087 98.136V98.1348ZM117.056 32.55C120.193 29.256 126.463 25.1472 130.877 26.082C132.639 26.6475 134.129 27.8486 135.055 29.4516C128.354 26.538 118.547 31.638 113.862 37.3716C113.447 37.8796 113.047 38.3996 112.662 38.9316C113.921 36.6698 115.392 34.533 117.056 32.55ZM144.48 54.1344C144.623 54.8183 144.731 55.5092 144.803 56.2044C144.69 56.148 139.452 53.5644 136.901 52.542C137.505 50.1626 137.69 47.696 137.447 45.2532C138.019 45.5748 138.579 45.9084 139.119 46.248C139.077 47.6444 138.947 49.0367 138.729 50.4168C138.487 52.1148 141.344 53.2524 144.48 54.1344ZM224.149 70.3956C224.529 71.1685 224.714 72.0227 224.688 72.8836C224.662 73.7446 224.426 74.5861 224 75.3348C221.745 79.3704 218.154 82.5948 214.673 85.704L213.51 83.3784C217.855 80.9772 223.981 75.186 224.149 70.3956ZM228.889 60.396C208.31 41.0508 181.353 31.9332 163.137 32.6844C154.94 33.0228 145.303 38.4792 143.526 39.8448C143.441 38.8496 143.313 37.858 143.142 36.87C148.253 33.2705 153.954 30.5903 159.986 28.95C166.643 27.1846 173.656 27.273 180.266 29.2056C192.535 32.9808 206.601 40.3656 216.998 47.0616C229.371 55.1016 230.175 58.4928 231.206 59.0784C232.014 61.0499 232.642 63.0906 233.082 65.1756C231.885 63.4168 230.477 61.8115 228.889 60.396ZM229.38 55.248C226.356 52.251 223.017 49.5907 219.42 47.3136C204.013 37.278 192.381 32.0916 182.559 28.692C168.476 23.8164 155.327 27.162 142.895 35.5932C142.42 33.3504 141.737 31.1569 140.855 29.0412C146.135 26.3328 150.836 24.2796 155.125 22.4808C157.339 21.523 159.682 20.8948 162.078 20.616C171.798 19.7316 180.771 21.9624 192.102 28.0752C199.448 31.9428 206.294 36.0048 213.252 40.1796C220.013 44.0952 225.68 48.5028 229.38 55.248ZM71.1502 70.17C78.6178 62.1684 86.2138 53.37 94.1734 45.9096C100.089 39.9363 106.343 34.3075 112.904 29.0508C113.912 28.8466 114.934 28.7202 115.962 28.6728C101.163 40.6512 81.841 61.4532 69.1042 75.5088C69.7678 73.6788 70.4398 71.8992 71.1502 70.17ZM55.9246 118.244C54.2302 115.604 53.8546 110.684 54.9646 105.732C56.5726 98.5584 60.4294 93.27 63.5254 93.9336C66.3214 94.734 66.277 97.2336 66.277 101.014C66.2768 101.129 66.3097 101.241 66.3718 101.338C66.4339 101.435 66.5225 101.512 66.627 101.56C66.7316 101.608 66.8478 101.625 66.9617 101.608C67.0756 101.592 67.1824 101.544 67.2694 101.468C67.5022 106.846 65.7094 114.419 61.9678 118.231C59.509 120.641 57.193 120.228 55.9246 118.244ZM73.4338 96.3096C79.6498 91.4412 97.621 78.3516 97.8274 78.2052C100.413 76.3752 103.355 74.31 103.698 71.0952C104.799 60.396 107.953 46.482 114.789 38.1252C119.511 32.3556 130.524 26.8788 136.187 31.5252C138.078 35.7142 139.081 40.2494 139.133 44.8452C136.707 43.3595 134.106 42.1805 131.39 41.3352C112.916 36.2952 96.511 82.578 110.117 88.3032C110.132 88.3104 119.87 91.9032 121.733 92.28C134.383 94.8156 148.499 69.6576 145.769 54.48C146.94 54.762 147.108 54.6756 147.245 54.6072C147.245 54.6072 155.48 49.2504 159.035 47.1912L189.56 63.0072L161.034 78.1548L145.053 71.5956C144.648 73.1527 144.048 74.6525 143.268 76.0596L156.043 80.8044L97.0138 112.15L76.2934 107.512C76.143 108.67 75.9298 109.82 75.655 110.956L92.683 114.449L77.7154 122.396L68.6134 120.81C74.4994 116.335 77.5486 102.936 73.4338 96.3096ZM109.095 127.889C108.975 127.832 110.623 128.129 79.6426 122.729L94.5334 114.826L123.764 120.779C125.167 120.14 126.443 119.63 127.844 118.993L98.8174 112.55L157.544 81.366L187.533 92.5908C189.192 91.8264 190.339 91.4436 191.742 90.8052L162.474 78.7488L190.854 63.678L218.555 78.0288C216.761 79.8706 214.687 81.4165 212.409 82.6092C111.888 126.664 109.217 127.828 109.095 127.889ZM122.581 123.288L123.603 122.84C123.809 124.546 124.609 126.612 126.301 126.612C128.076 126.612 129.798 124.078 130.215 120.811C130.318 120.512 130.366 120.196 130.357 119.88L132.09 119.122C132.094 119.905 132.054 120.688 131.97 121.468C131.46 125.464 129.867 129.013 127.915 130.511C127.385 130.97 126.695 131.2 125.995 131.152C124.064 130.948 122.651 127.663 122.581 123.288ZM182.853 96.8748L185.635 95.6556C184.925 99.8868 185.78 103.039 187.951 103.988C191.977 105.628 196.351 99.756 198.05 95.4804C198.795 93.5714 199.306 91.5793 199.572 89.5476L205.212 87.078C204.719 90.3798 203.826 93.6093 202.551 96.6948C198.301 106.775 190.718 113.694 185.991 111.808C182.521 110.357 181.271 104.369 182.853 96.8748Z" fill="black"/>
<path d="M58.8008 113.077C62.3576 113.832 65.4692 106.08 64.3016 101.13C63.9092 99.4645 63.0836 98.418 61.9772 98.1816C58.3532 97.4148 55.3244 105.244 56.4764 110.129C56.87 111.794 57.6932 112.841 58.8008 113.077Z" fill="black"/>
<path d="M220.231 95.9435C218.646 106.256 215.697 113.367 210.952 118.322C205.684 123.825 196.44 127.304 188.966 123.309C188.826 123.235 188.661 123.218 188.509 123.265C188.356 123.311 188.229 123.416 188.154 123.557C188.079 123.697 188.063 123.862 188.109 124.014C188.155 124.166 188.26 124.294 188.401 124.369C196.071 128.468 205.898 125.337 211.82 119.153C216.74 114.011 219.792 106.694 221.42 96.1259C221.432 96.0478 221.429 95.9681 221.41 95.8914C221.391 95.8147 221.357 95.7424 221.31 95.6787C221.264 95.615 221.205 95.5612 221.137 95.5202C221.07 95.4793 220.995 95.452 220.917 95.4401C220.839 95.4281 220.759 95.4316 220.682 95.4504C220.605 95.4692 220.533 95.503 220.47 95.5497C220.406 95.5965 220.352 95.6553 220.311 95.7229C220.27 95.7904 220.243 95.8654 220.231 95.9435Z" fill="black"/>
<path d="M218.082 118.229C217.947 118.144 217.784 118.117 217.629 118.152C217.474 118.188 217.339 118.284 217.255 118.418C206.575 135.409 180.644 133.506 172.783 114.68C172.755 114.604 172.712 114.535 172.656 114.476C172.601 114.418 172.534 114.371 172.46 114.338C172.385 114.306 172.305 114.289 172.225 114.289C172.144 114.288 172.064 114.304 171.989 114.335C171.914 114.366 171.847 114.412 171.79 114.47C171.734 114.528 171.69 114.597 171.661 114.672C171.631 114.747 171.618 114.828 171.62 114.909C171.623 114.99 171.642 115.069 171.676 115.142C179.844 134.71 206.965 137.05 218.272 119.056C218.314 118.989 218.342 118.914 218.355 118.837C218.368 118.759 218.366 118.679 218.348 118.603C218.331 118.526 218.298 118.453 218.252 118.389C218.206 118.325 218.148 118.27 218.082 118.229Z" fill="black"/>
<path d="M141.404 129.895C141.251 129.851 141.087 129.869 140.948 129.946C140.808 130.023 140.705 130.152 140.661 130.304C140.048 132.613 138.802 134.704 137.063 136.341C135.324 137.979 133.162 139.097 130.821 139.571C126.021 140.309 121.093 137.078 120.279 132.658C120.265 132.58 120.235 132.506 120.192 132.44C120.149 132.374 120.094 132.316 120.029 132.272C119.964 132.227 119.89 132.195 119.813 132.179C119.736 132.163 119.656 132.161 119.579 132.176C119.501 132.19 119.427 132.22 119.361 132.263C119.295 132.305 119.238 132.361 119.193 132.426C119.148 132.491 119.117 132.564 119.1 132.641C119.084 132.719 119.083 132.798 119.097 132.876C119.937 137.428 124.569 140.875 129.453 140.875C134.679 140.875 140.043 136.77 141.82 130.638C141.842 130.562 141.848 130.482 141.839 130.404C141.83 130.325 141.805 130.249 141.767 130.18C141.728 130.111 141.676 130.05 141.614 130.001C141.551 129.952 141.48 129.916 141.404 129.895Z" fill="black"/>
<path d="M133.501 144.323C131.472 145.116 129.272 145.368 127.116 145.054C124.961 144.741 122.924 143.873 121.205 142.535C119.486 141.197 118.144 139.436 117.31 137.423C116.477 135.41 116.181 133.216 116.451 131.054C116.465 130.9 116.417 130.746 116.319 130.625C116.221 130.504 116.08 130.427 115.926 130.408C115.772 130.389 115.616 130.431 115.492 130.524C115.368 130.618 115.285 130.756 115.261 130.909C114.98 133.272 115.315 135.667 116.231 137.862C117.148 140.057 118.615 141.979 120.492 143.441C122.369 144.903 124.592 145.856 126.944 146.207C129.297 146.558 131.701 146.296 133.923 145.446C134.072 145.39 134.193 145.277 134.259 145.132C134.324 144.987 134.33 144.822 134.274 144.673C134.218 144.524 134.105 144.404 133.96 144.338C133.815 144.272 133.65 144.267 133.501 144.323Z" fill="black"/>
</svg>
