<svg width="240" height="241" viewBox="0 0 240 241" fill="none" xmlns="http://www.w3.org/2000/svg">
<path d="M33.3057 156.334C32.3061 156.496 31.0425 156.672 30.6357 156.672C29.6337 156.672 30.1809 156.654 26.6337 151.142C25.0293 148.648 18.4209 138.619 18.4377 138.258C18.5625 137.993 22.0341 137.736 26.7333 136.781C26.5545 136.279 26.5833 135.838 26.8449 135.458C25.1049 135.856 24.1077 136.064 20.3985 136.562C19.6017 136.669 17.6613 137.084 17.5785 137.117C16.6197 137.489 16.6197 137.676 16.9725 138.445C17.8521 140.374 21.1869 145.463 23.8677 149.552C28.5813 156.744 26.5797 153.974 28.5297 156.896C29.5185 158.377 29.6577 158.543 34.1721 157.508C33.8289 157.052 33.5769 156.705 33.3081 156.334H33.3057Z" fill="black"/>
<path d="M39.0129 180.003C39.5169 179.736 39.4617 179.806 38.9097 178.758C35.9709 179.5 32.3157 180.419 27.6789 181.581C26.9913 181.753 26.5593 182.051 26.0649 181.494C23.1897 178.249 10.3113 159.227 7.4013 154.161C7.2153 153.837 7.5825 153.903 8.5497 153.209C8.7417 153.071 8.8389 153.096 8.9601 153.276C10.5873 155.689 21.2493 172.631 25.5333 177.406C26.4621 178.44 29.3493 177.287 35.2425 175.655C37.7157 174.971 39.3585 174.582 40.5177 174.33C40.3857 174.065 40.2009 173.676 40.0161 173.278C39.1605 173.505 38.0829 173.784 36.7029 174.132C33.5277 174.933 28.4889 176.141 27.1773 176.511C26.3145 176.754 26.2149 176.205 25.5609 175.512C23.6469 173.489 13.0545 157.651 11.4069 155.13C7.2765 148.81 7.3053 148.782 7.6077 148.599C9.0285 147.737 9.1869 147.513 9.4401 147.877C11.2497 150.479 10.3737 149.523 12.3873 152.467C20.2581 163.983 21.4773 167.493 26.0085 172.234C27.0561 173.329 26.6265 173.538 31.9761 172.12C35.6553 171.145 38.8437 170.303 41.6145 169.577C41.6073 169.541 41.5929 169.499 41.5737 169.447C41.4129 169.023 41.2677 168.627 41.2065 168.268C37.7541 169.134 34.4673 169.957 31.9473 170.556C30.4761 170.905 29.3097 171.468 28.4757 171.603C27.7605 171.718 27.3261 171.85 26.4309 170.857C24.8133 169.066 24.6033 169.225 20.0745 162.285C19.3053 161.106 17.3445 158.211 16.8381 157.337C15.1629 154.443 14.5893 154.203 12.6789 150.821C9.6417 145.445 9.8157 146.167 8.8257 143.902C8.5209 143.203 9.0297 143.101 10.0245 142.671C10.5225 142.455 10.4397 142.315 10.8369 142.953C14.8917 149.47 14.2725 148.403 16.0065 151.663C17.0853 153.691 24.5169 164.893 25.6941 166.525C26.0877 167.071 26.5557 167.557 27.1281 167.928C27.8541 168.399 27.4749 168.322 35.9433 166.107C37.6005 165.673 38.8905 165.283 40.1781 164.903C39.8481 164.499 39.5613 164.149 39.3057 163.84C39.1641 163.879 39.0249 163.918 38.8869 163.956C35.2497 164.951 30.3657 166.125 28.0401 166.761C27.6465 166.869 27.4233 166.775 27.2157 166.473C15.8169 149.915 18.0429 152.897 15.7233 148.986C11.2701 141.477 11.3865 142.477 9.8049 138.84C9.4893 138.113 9.9933 138.007 10.8309 137.736C11.9601 137.369 11.1741 137.469 15.4917 143.71C18.2697 147.725 19.8525 151.031 23.5449 157.056C24.6849 158.917 27.1785 162.382 27.6837 163.129C28.1433 163.807 28.7961 163.873 29.5857 163.663C32.3121 162.939 34.8741 162.246 37.3977 161.567C37.1193 161.236 36.8361 160.895 36.4809 160.455C33.8829 161.179 31.4793 161.903 29.4117 162.605C28.3665 162.96 28.1877 162.257 18.1701 145.805C15.8193 141.943 12.6849 137.369 11.7057 135.142C11.3517 134.337 12.9645 134.436 19.1997 133.456C22.3353 132.963 25.1889 132.557 27.8937 132.19C27.6585 131.773 27.4629 131.416 27.4029 131.29C27.3417 131.16 27.3081 131.038 27.2961 130.919C19.7217 131.949 12.9501 132.898 11.3205 133.57C9.9897 134.119 10.3257 135.089 10.7757 136.275C10.9449 136.721 10.7037 136.504 9.4581 137.053C8.8881 137.304 8.2653 137.826 8.5581 138.621C8.6841 138.965 9.6105 140.977 9.8517 141.412C10.0821 141.825 9.7197 141.715 8.7645 142.039C7.3545 142.518 7.0437 143.373 7.6125 144.582C8.6037 146.692 8.8437 146.501 8.2161 146.832C6.6429 147.664 5.9985 147.825 6.2805 148.858C6.5313 149.778 6.7101 150.047 7.8297 151.678C8.2341 152.268 7.9893 152.083 6.6141 152.903C6.2013 153.149 5.8461 153.52 5.9421 153.988C6.0657 154.588 6.2325 154.984 6.5769 155.488C13.6461 165.845 11.0865 162.533 14.9205 168.27C16.3401 170.393 16.4409 170.353 19.9929 175.668C22.8621 179.961 20.5905 176.604 23.3769 180.441C25.0293 182.716 25.6665 183.688 27.3321 183.291C33.6417 181.791 33.5973 181.59 35.9925 180.991C36.5013 180.864 37.2489 180.683 38.1045 180.478C38.3625 180.342 38.6661 180.191 39.0153 180.006L39.0129 180.003Z" fill="black"/>
<path d="M65.8524 172.054C66.1668 171.733 65.8044 171.553 65.6556 170.957C65.4336 170.07 65.9808 169.563 66.384 169.745C67.2456 170.133 66.9696 171.077 67.5072 170.915C67.8936 170.799 68.2992 170.667 68.682 170.675C70.1208 170.707 70.476 171.893 70.1076 172.464C69.6144 173.229 68.8296 172.242 67.41 173.027C66.0768 173.764 65.904 175.661 67.5384 175.345C69.2508 175.014 70.17 174.461 71.496 174.579C73.3476 174.742 75.21 176.7 74.4084 179.291C73.6404 181.77 72.5568 181.38 72.9444 182.194C72.9624 182.232 73.362 182.94 73.5288 183.733C73.7328 184.708 72.8076 185.487 72.2412 184.65C71.1996 183.109 71.4828 182.833 70.9116 183.081C69.8808 183.527 68.958 183.96 67.7724 183.559C66.9864 183.294 66.8268 182.351 67.044 181.907C67.2804 181.423 67.6176 181.482 68.0964 181.481C70.29 181.477 72.7092 179.56 72.1356 177.774C71.8584 176.909 70.7988 176.923 68.8848 177.45C67.7796 177.755 66.4776 177.927 65.442 177.277C64.0548 176.409 64.0752 173.869 65.8524 172.054Z" fill="black"/>
<path d="M137.929 197.214C137.495 197.317 137.059 197.42 136.621 197.515C135.737 197.708 134.843 197.855 133.957 198.041C129.368 199.007 129.787 199.226 129.846 198.476C130.12 196.99 130.219 196.48 130.272 196.099C129.875 195.938 129.444 195.766 128.972 195.584C128.341 195.341 127.733 195.043 127.116 194.761C126.666 197.863 126.281 200.374 126.269 200.437C126.198 200.843 126.053 201.112 125.629 201.265C124.922 201.522 124.67 201.329 124.723 200.566C124.777 199.787 125.198 197.249 125.654 194.17C125.527 194.128 125.4 194.088 125.27 194.052C124.589 193.864 123.941 193.56 123.266 193.339C122.532 193.098 118.463 191.886 114.396 190.316C113.255 189.876 112.16 189.317 111.044 188.813C110.842 188.72 110.683 188.599 110.557 188.456C110.458 189.775 110.177 191.78 108.976 202.217C108.829 203.49 108.746 204.137 108.552 204.205C108.251 204.312 107.935 204.4 107.617 204.434C107.512 204.446 107.33 204.304 107.284 204.19C106.817 203.063 108.781 191.678 108.941 186.199C108.413 185.988 107.603 185.64 104.383 184.475C104.473 184.615 104.548 184.739 104.603 184.84C103.772 185.256 74.2488 191.006 60.2064 195.775C59.1612 196.13 58.9824 195.427 48.966 178.975C46.6152 175.114 43.4808 170.539 42.5016 168.312C42.4236 168.133 42.4416 167.999 42.5856 167.887C42.4224 167.683 42.2376 167.453 42.0276 167.192C41.9472 167.093 41.8692 166.996 41.7924 166.9C40.8468 167.467 41.1612 168.366 41.5704 169.444C41.7396 169.89 41.4984 169.673 40.2528 170.222C39.6828 170.473 39.06 170.995 39.3528 171.788C39.4788 172.133 40.4052 174.146 40.6464 174.581C40.8768 174.994 40.5144 174.884 39.5592 175.208C38.1492 175.687 37.8384 176.542 38.4072 177.751C39.3984 179.861 39.6396 179.67 39.0108 180.001C37.4376 180.833 36.7932 180.994 37.074 182.027C37.3248 182.947 37.5036 183.216 38.6232 184.847C39.0276 185.437 38.7828 185.252 37.4076 186.072C36.9948 186.318 36.6396 186.689 36.7356 187.157C36.8592 187.757 37.026 188.153 37.3704 188.657C44.4396 199.014 41.88 195.702 45.714 201.439C47.1336 203.562 47.2344 203.522 50.7864 208.837C53.6556 213.13 51.3828 209.773 54.1704 213.61C55.8228 215.885 56.46 216.857 58.1256 216.46C64.4352 214.96 64.3908 214.759 66.786 214.16C68.9412 213.622 75.3612 212.122 76.2588 211.892C90.336 208.288 100.118 206.494 100.867 206.291C101.9 206.01 102.169 205.722 102.806 206.429C104.038 207.794 105.298 207.109 109.466 206.24C110.773 205.968 112.027 205.47 113.366 205.325C114.07 205.249 114.758 205.054 115.459 204.944C116.222 204.826 120.434 204.286 124.702 203.394C125.899 203.143 127.069 202.769 128.251 202.451C128.86 202.288 129.167 201.835 129.349 201.278C129.652 200.359 129.558 200.417 129.941 200.36C131.352 200.152 130.224 200.165 140.771 198.296C139.439 197.786 138.472 197.423 137.924 197.213L137.929 197.214ZM103.608 201.079L103.559 201.072C103.444 202.044 103.325 203.011 103.218 203.982C103.192 204.227 102.49 204.282 99.9372 204.847C97.7544 205.33 94.164 206.245 89.004 207.334C80.0064 209.232 83.37 208.523 58.4772 214.756C57.7896 214.928 57.3576 215.226 56.8632 214.669C53.988 211.424 41.1096 192.402 38.1996 187.336C38.0136 187.012 38.3808 187.078 39.348 186.384C39.54 186.246 39.6372 186.271 39.7584 186.45C41.3856 188.864 52.0476 205.805 56.3328 210.58C57.2616 211.614 60.1488 210.461 66.042 208.829C71.85 207.221 73.0812 207.251 74.2092 206.826C75.5904 206.305 77.0653 206.16 78.4752 205.759C81.1309 205.004 85.6284 203.964 87.4176 203.646C87.5016 203.632 103.322 200.233 103.352 200.228C103.742 200.152 103.663 200.369 103.608 201.082V201.079ZM104.076 196.47C103.787 199.676 104.314 198.725 101.58 199.302C100.816 199.463 101.588 199.344 85.4772 202.873C78.2496 204.456 81.3924 203.963 74.8896 205.349C73.7496 205.592 73.29 205.846 67.5012 207.304C64.326 208.104 59.2872 209.312 57.9756 209.682C57.1128 209.926 57.0132 209.376 56.3592 208.684C54.4452 206.66 43.8528 190.823 42.2052 188.302C38.0748 181.981 38.1036 181.954 38.406 181.77C39.8268 180.908 39.9852 180.684 40.2384 181.049C42.048 183.65 41.1732 182.694 43.1856 185.639C51.0564 197.154 52.2756 200.664 56.8068 205.405C57.8544 206.501 57.4248 206.71 62.7744 205.291C97.3584 196.123 88.5408 198.845 97.614 197.039C104.677 195.634 104.188 195.236 104.076 196.47ZM104.73 191.578C104.61 193.138 104.795 191.626 104.37 194.285C104.297 194.742 104.36 194.402 99.0911 195.622C97.9631 195.883 91.5708 196.964 90.426 197.136C85.7376 197.843 70.5624 201.872 62.7456 203.726C61.2756 204.076 60.1092 204.638 59.274 204.773C58.5588 204.888 58.1244 205.02 57.2292 204.028C55.6128 202.236 55.4016 202.394 50.8728 195.455C50.1036 194.276 48.1428 191.381 47.6364 190.507C45.9612 187.613 45.3876 187.373 43.4772 183.991C40.44 178.615 40.614 179.338 39.624 177.072C39.3192 176.374 39.828 176.272 40.8228 175.841C41.3208 175.625 41.238 175.486 41.6352 176.123C45.69 182.64 45.0708 181.573 46.8036 184.834C47.8824 186.862 55.314 198.062 56.4912 199.696C56.8848 200.242 57.3528 200.728 57.9252 201.098C58.6512 201.569 58.272 201.492 66.7404 199.277C71.7228 197.975 73.3836 197.071 81.6192 195.581C83.6244 195.218 86.2068 195.101 96.2352 192.518C98.0808 192.043 98.142 192.193 103.783 191.021C104.849 190.799 104.797 190.711 104.73 191.578ZM104.993 187.895C104.855 189.683 104.953 189.511 104.444 189.608C89.6676 192.44 91.068 192.797 81.3828 194.312C75.852 195.178 72.4164 196.379 69.684 197.126C66.0468 198.121 61.1628 199.295 58.8372 199.931C58.4436 200.039 58.2204 199.945 58.0128 199.643C46.614 183.085 48.84 186.067 46.5204 182.156C42.0672 174.647 42.1836 175.648 40.602 172.01C40.2864 171.283 40.7904 171.178 41.628 170.906C42.7572 170.539 41.9712 170.639 46.2888 176.88C49.0668 180.895 50.6484 184.201 54.342 190.226C55.4832 192.088 57.9756 195.552 58.4808 196.3C58.9404 196.978 59.5932 197.044 60.3828 196.834C74.0268 193.207 83.5608 190.378 104.621 186.202C105.281 186.071 105.125 186.172 104.992 187.896L104.993 187.895Z" fill="black"/>
<path d="M98.2823 182.313C88.7219 184.308 67.6258 188.855 65.0098 189.352C64.0978 189.525 61.9834 189.846 61.435 189.846C60.433 189.846 60.9802 189.828 57.433 184.317C56.311 182.572 52.7422 177.144 50.7034 173.914L50.0086 174.145C49.7374 174.235 49.4914 174.285 49.2598 174.295C50.7106 176.694 52.8395 179.944 54.6658 182.728C59.3794 189.919 57.3778 187.15 59.3278 190.072C60.451 191.755 60.4762 191.74 67.0786 190.193C80.9782 186.935 94.8095 184.347 100.842 183.213C100.069 182.94 99.2194 182.641 98.2823 182.313Z" fill="black"/>
<path d="M179.943 113.749C177.5 113.053 175.259 114.247 175.157 115.88C175.097 116.848 175.569 117.715 176.163 118.445C176.238 118.469 176.312 118.492 176.389 118.516C177.188 118.77 177.969 119.092 178.77 119.352C179.301 119.526 179.846 119.701 180.403 119.879C179.87 118.681 178.953 118.135 177.855 116.801C176.798 115.516 178.549 114.761 179.832 115.582C181.199 116.455 180.707 117.616 181.614 117.684C182.292 117.734 183.164 116.857 182.507 115.578C182.331 115.237 182.022 114.943 181.735 114.66C181.337 114.264 182.298 114.056 182.228 113.114C182.194 112.673 181.489 112.434 180.816 113.053C180.363 113.47 180.378 113.873 179.946 113.75L179.943 113.749Z" fill="black"/>
<path d="M170.123 107.309C170.163 107.323 170.205 107.337 170.247 107.352C175.718 109.226 175.419 109.149 177.017 109.532C181.157 110.522 184.479 111.584 186.831 112.518C192.601 114.805 197.372 115.775 197.475 116.106C197.454 116.334 194.265 120.038 191.441 123.295C191.954 123.451 192.465 123.607 192.972 123.762C196.236 120.015 199.356 116.33 199.199 115.71C199.143 115.494 198.925 115.339 198.485 115.094C198.407 115.05 196.542 114.372 195.768 114.157C189.589 112.435 191.184 112.653 183.654 110.035C179.016 108.422 177.427 108.507 172.544 106.71C171.623 106.938 170.822 107.137 170.123 107.309Z" fill="black"/>
<path d="M159.489 109.755C159.678 109.986 159.852 110.237 160.01 110.514C160.088 110.652 160.158 110.79 160.218 110.925C160.833 111.101 161.27 111.209 161.544 111.305C161.612 111.329 161.679 111.353 161.745 111.375C161.547 110.682 161.196 110.024 160.751 109.41C160.34 109.52 159.918 109.637 159.488 109.755H159.489Z" fill="black"/>
<path d="M177.402 105.497C177.364 105.506 177.328 105.515 177.292 105.524C183.633 107.367 189.642 108.896 197.383 111.24C203.424 113.069 205.035 113.192 204.573 113.941C203.298 116.013 199.562 120.113 196.702 123.613C196.414 123.966 196.132 124.31 195.858 124.646C196.237 124.763 196.611 124.878 196.981 124.993C197.821 123.961 198.678 122.957 199.642 121.907C204.778 116.321 204.013 116.113 205.081 116.631C205.874 117.015 206.359 117.191 205.946 117.866C204.016 121.026 204.109 120.386 199.699 125.842C200.047 125.951 200.388 126.06 200.721 126.167C201.422 125.315 202.471 124.063 204.358 121.799C204.838 121.223 204.738 121.349 205.201 121.631C206.126 122.195 206.617 122.366 206.218 123.016C205.185 124.7 205.152 124.597 203.264 126.995C203.716 127.146 204.145 127.292 204.548 127.432C204.697 127.266 204.866 127.081 205.063 126.869C205.364 126.544 205.49 126.787 206.779 127.836C206.876 127.914 206.941 127.969 206.77 128.255C207.213 128.434 207.574 128.596 207.844 128.737C207.916 128.598 207.985 128.449 208.059 128.275C208.48 127.29 207.864 127.043 206.42 126.002C205.844 125.586 206.055 125.809 207.327 123.856C208.057 122.736 207.867 121.848 206.536 121.18C205.635 120.727 205.262 120.785 205.546 120.408C205.845 120.011 207.039 118.143 207.212 117.821C207.612 117.075 207.066 116.472 206.536 116.145C205.377 115.429 205.11 115.611 205.338 115.193C205.946 114.08 206.413 113.167 205.17 112.439C202.969 111.151 190.206 107.814 179.782 104.811C178.995 105.246 178.039 105.337 177.399 105.498L177.402 105.497Z" fill="black"/>
<path d="M225.144 139.62C225.085 139.405 224.864 139.254 224.42 139.018C224.341 138.974 222.465 138.329 221.688 138.126C215.61 136.543 217.015 136.694 209.967 134.363C209.846 134.563 209.554 135.006 209.242 135.469C210.567 135.869 211.731 136.264 212.725 136.639C218.533 138.828 223.32 139.716 223.429 140.046C223.401 140.407 215.63 149.563 213.736 151.846C209.55 156.889 210.09 156.971 209.096 156.851C208.551 156.785 206.491 156.21 205.606 155.928C205.47 155.884 205.28 155.822 205.044 155.743C204.691 156.125 204.384 156.46 204.115 156.755C209.821 158.844 209.889 158.808 211.161 157.328C211.73 156.665 211.98 156.37 212.852 155.23C215.714 151.494 225.441 140.708 225.145 139.619L225.144 139.62Z" fill="black"/>
<path d="M234.219 152.032C234.624 151.039 234.003 150.803 232.542 149.786C231.958 149.381 232.173 149.599 233.413 147.625C234.123 146.494 233.918 145.608 232.576 144.962C231.668 144.524 231.295 144.589 231.573 144.208C231.865 143.806 233.028 141.918 233.194 141.593C233.581 140.84 233.025 140.246 232.49 139.928C231.319 139.232 231.054 139.418 231.276 138.996C231.865 137.873 232.316 136.951 231.061 136.246C229.068 135.124 218.546 132.498 208.842 129.93C208.861 130.327 208.675 130.756 208.419 131.224C212.978 132.407 217.665 133.591 223.254 135.179C229.324 136.904 230.937 137 230.488 137.758C229.248 139.85 225.584 144.013 222.783 147.562C210.852 162.684 210.59 163.361 209.595 162.882C207.346 161.801 204.667 160.638 201.759 159.45C201.505 159.748 201.219 160.076 200.839 160.502C203.571 161.603 206.331 162.725 209.294 163.91C210.052 164.214 210.708 164.228 211.246 163.61C211.838 162.93 214.731 159.791 216.088 158.082C220.483 152.548 222.452 149.456 225.694 145.806C230.734 140.132 229.965 139.939 231.043 140.44C231.842 140.81 232.33 140.976 231.928 141.66C229.92 145.08 230.156 144.1 224.828 151.016C222.054 154.619 224.623 151.928 211.308 166.988C211.065 167.263 210.832 167.329 210.454 167.174C208.222 166.262 203.517 164.508 200.025 163.08C199.665 162.932 199.293 162.776 198.906 162.61C198.546 162.996 198.255 163.3 197.98 163.583C199.44 164.209 200.816 164.83 202.688 165.57C210.828 168.792 210.441 168.822 211.219 168.444C211.832 168.145 212.356 167.718 212.812 167.224C214.178 165.746 222.908 155.524 224.223 153.641C226.338 150.614 225.594 151.598 230.407 145.618C230.877 145.033 230.779 145.16 231.247 145.435C232.183 145.984 232.675 146.147 232.287 146.802C231.031 148.932 231.29 148.236 227.626 153.205C225.321 156.331 224.724 156.5 222.71 159.172C222.102 159.978 219.806 162.614 218.9 163.692C213.566 170.035 213.376 169.852 211.555 171.434C210.546 172.31 210.13 172.128 209.436 171.928C208.623 171.694 207.534 170.994 206.115 170.471C205.032 170.071 203.804 169.607 202.48 169.104C202.364 169.456 202.152 169.831 201.919 170.233C201.878 170.304 201.852 170.358 201.843 170.401C203.121 170.91 204.471 171.45 205.898 172.02C211.036 174.073 210.636 173.815 211.808 172.853C216.878 168.695 218.512 165.358 227.716 154.877C230.071 152.197 229.087 153.041 231.196 150.677C231.492 150.347 231.622 150.588 232.929 151.614C233.208 151.832 233.233 151.864 228.369 157.639C226.429 159.942 214.003 174.386 211.857 176.164C211.123 176.771 210.958 177.305 210.132 176.959C209.116 176.534 205.756 175.276 202.893 174.185C202.657 174.534 202.417 174.883 202.234 175.138C207.883 177.468 210.609 178.96 211.656 178.045C216.486 173.822 229.116 158.293 231.022 156.094C231.164 155.93 231.264 155.917 231.438 156.077C232.314 156.882 232.686 156.862 232.462 157.16C228.962 161.839 213.879 179.167 210.634 182.04C210.076 182.533 209.683 182.186 209.022 181.932C206.86 181.103 204.92 180.358 203.172 179.684C202.336 180.81 202.263 180.702 202.742 181.066C202.808 181.115 202.87 181.163 202.933 181.208C204.004 181.675 205.417 182.281 209.162 183.667C210.768 184.262 211.518 183.374 213.433 181.315C216.663 177.844 214.002 180.9 217.369 176.987C221.536 172.141 221.632 172.192 223.298 170.256C227.797 165.024 224.857 168.002 233.125 158.575C233.528 158.116 233.74 157.742 233.936 157.162C234.088 156.709 233.781 156.298 233.401 156.004C232.135 155.026 231.87 155.178 232.342 154.642C233.65 153.158 233.86 152.912 234.22 152.029L234.219 152.032Z" fill="black"/>
<path d="M174.405 171.181C174.336 171.092 174.279 171.006 174.235 170.924C173.479 170.608 172.627 170.254 171.781 169.901C171.757 169.997 171.74 170.095 171.73 170.196C171.625 171.414 172.371 172.494 173.146 173.339C174.488 174.8 174.984 175.738 174.339 176.38C173.011 177.704 170.202 176.425 169.198 174.474C168.979 174.048 168.878 173.72 168.339 173.73C167.845 173.74 167.079 174.312 167.202 175.132C167.385 176.37 168.192 176.994 169.059 177.708C169.539 178.104 169.164 177.978 168.268 179.608C167.781 180.493 168.896 180.961 169.671 180.335C170.301 179.826 170.749 179.147 170.775 179.113C171.322 178.397 171.47 179.54 174.026 179.093C176.697 178.626 177.591 176.076 176.893 174.353C176.392 173.119 175.48 172.553 174.406 171.18L174.405 171.181Z" fill="black"/>
<path d="M102.543 158.663C101.79 158.929 101.05 159.238 100.287 159.472C107.458 161.816 114.11 163.912 114.184 163.849L115.156 163.009C115.428 162.774 115.142 162.76 102.543 158.663Z" fill="black"/>
<path d="M195.07 169.973C195.003 169.933 193.599 169.382 192.728 169.085C192.334 169.507 192.022 169.842 191.771 170.112C193.154 170.552 193.997 170.821 194.037 170.959C193.994 171.319 185.854 180.149 183.867 182.351C179.476 187.217 180.013 187.322 179.024 187.162C178.483 187.073 176.447 186.414 175.575 186.096C172.333 184.913 139.545 172 139.408 172.103C138.167 173.028 138.154 173.011 138.199 173.131C138.245 173.255 155.86 179.332 173.398 186.592C179.665 189.185 179.686 189.205 181.067 187.724C181.664 187.085 181.924 186.799 182.843 185.698C185.857 182.082 196.019 171.706 195.767 170.605C195.717 170.388 195.503 170.228 195.069 169.973H195.07Z" fill="black"/>
<path d="M202.742 181.068C202.176 180.638 202.382 180.866 203.701 178.944C204.457 177.842 204.289 176.95 202.975 176.249C202.085 175.774 201.71 175.824 202.004 175.453C202.313 175.063 203.551 173.226 203.732 172.907C204.149 172.171 203.619 171.556 203.096 171.216C201.955 170.472 201.683 170.647 201.921 170.234C202.556 169.136 203.045 168.234 201.819 167.477C201.063 167.009 199.028 166.261 196.259 165.348C195.959 165.659 195.611 166.021 195.194 166.459C200.261 168.089 201.633 168.276 201.186 168.965C199.861 171.006 196.028 175.014 193.085 178.445C180.542 193.064 180.252 193.728 179.279 193.21C166.191 186.236 137.983 175.794 137.231 175.249C138.213 173.978 141.932 170.749 142.465 170.3C142.698 170.104 142.921 169.824 143.187 169.768C143.418 169.718 143.694 169.954 143.961 170.035C147.372 171.074 151.689 172.214 155.875 170.31C156.711 169.93 157.325 169.309 157.955 168.689C158.135 168.512 158.756 167.268 158.533 165.83C158.436 165.21 158.211 164.614 157.899 164.046C157.166 163.745 156.456 163.454 155.768 163.176C156.128 163.55 156.451 163.964 156.72 164.465C157.537 165.984 157.244 167.425 156.836 167.93C155.615 169.441 153.614 169.782 151.545 170.01C150.709 170.102 148.513 170.119 144.413 168.918C144.011 168.8 144.311 168.818 147.283 166.352C149.192 164.767 151.521 162.769 152.556 161.89C151.131 161.326 149.855 160.828 148.743 160.399C148.619 160.507 148.487 160.619 148.35 160.735C147.453 161.501 148.29 160.664 144.873 163.685C134.319 173.011 133.105 173.566 132.835 175.201C131.995 180.27 132.135 192.829 131.462 193.913C131.397 194.017 131.196 194.129 131.094 194.1C130.785 194.014 130.488 193.877 130.208 193.723C130.028 193.624 130.05 192.973 130.111 191.693C130.895 175.252 130.562 179.602 131.131 174.883C131.394 172.697 133.199 171.533 144.102 162.076C145.073 161.233 145.977 160.445 146.863 159.68C145.063 158.995 143.976 158.593 143.754 158.491C142.779 158.048 142.56 157.721 141.817 158.316C140.383 159.466 139.249 158.588 135.273 157.062C134.027 156.583 132.87 155.891 131.57 155.533C131.36 155.476 131.154 155.407 130.947 155.333C127.596 158.194 123.048 162.055 116.646 167.315C116.073 167.785 115.772 168.367 115.658 169.073C114.762 174.646 115.001 185.749 114.835 187.522C114.764 188.285 114.485 188.434 113.828 188.066C113.435 187.846 113.335 187.559 113.33 187.146C113.329 187.003 113.451 175.194 113.743 170.96C113.855 169.333 114.111 168.389 114.146 168.204C114.355 167.075 114.641 166.733 115.859 165.726C115.887 165.702 121.778 160.867 121.807 160.846C126.563 157.294 124.791 158.488 129.345 154.752C128.744 154.564 127.389 154.15 125.683 153.583C119.901 158.261 113.121 163.748 111.336 165.553C111.116 165.775 110.967 165.832 110.672 165.722C106.159 164.041 101.184 162.299 96.4209 160.681C95.1513 161.016 94.4217 160.976 93.6429 160.25C92.9469 159.602 92.7033 159.913 91.6989 160.283C91.6257 160.31 91.4613 160.361 91.2117 160.436C99.4641 163.201 108.776 166.469 110.285 167.117C110.658 167.278 110.549 167.136 110.454 169.642C110.485 169.644 110.481 169.646 110.437 170.099C110.423 170.245 110.387 170.345 110.197 170.281C103.934 168.204 93.5277 164.626 85.9581 162.008C85.2585 162.222 84.5025 162.455 83.6925 162.707C84.5481 163.007 85.5129 163.344 86.6037 163.72C110.43 171.928 110.408 171.494 110.399 172.018C110.399 172.043 110.331 174.097 110.357 174.097C110.343 174.248 110.325 174.4 110.319 174.552C110.295 175.193 109.418 174.311 107.394 173.652C104.711 172.781 104.103 172.166 98.4081 170.368C96.5193 169.771 88.8681 167.417 85.8921 166.434C83.6193 165.684 81.0177 164.936 78.7473 164.275C78.0849 164.49 77.3997 164.712 76.6965 164.944C77.6817 165.274 80.4609 166.098 82.4841 166.746C83.7357 167.147 84.9657 167.618 86.2245 167.992C87.7113 168.432 89.2029 168.864 90.6573 169.403C92.5449 170.102 100.316 172.213 101.527 172.739C104.304 173.942 105.117 174.083 109.904 175.988C110.18 176.099 110.293 176.263 110.264 176.587C109.979 179.851 110.363 179.621 109.679 179.372C109.433 179.284 76.6893 167.905 74.1057 166.825C73.4541 166.553 74.8101 166.064 75.5937 165.307C74.4369 165.691 73.2309 166.096 71.9805 166.522C71.7177 167.315 72.8949 167.915 74.0337 168.295C75.9201 168.924 75.0537 168.487 71.8437 170.938C71.2833 171.365 70.8537 172.39 71.3445 172.902C72.1221 173.713 73.3629 173.912 74.1261 174.175C86.1585 178.304 85.6041 178.055 86.6445 178.295C88.7169 178.772 91.9209 180.104 95.0661 181.195C109.783 186.299 108.191 185.993 109.718 186.48C110.087 186.598 110.003 186.526 110.154 187.481C110.245 188.058 110.474 188.555 111.049 188.815C112.165 189.319 113.258 189.878 114.401 190.319C118.467 191.888 122.538 193.102 123.271 193.342C123.945 193.562 124.593 193.866 125.275 194.054C126.573 194.413 127.73 195.107 128.976 195.587C132.949 197.118 134.083 197.998 135.518 196.848C136.261 196.254 136.481 196.582 137.455 197.026C138.161 197.347 147.525 200.696 160.836 206.527C161.684 206.899 167.779 209.416 169.819 210.295C172.086 211.272 172.01 211.463 177.995 213.962C179.575 214.622 180.36 213.767 182.358 211.788C185.727 208.452 182.943 211.397 186.468 207.624C190.831 202.954 190.925 203.008 192.668 201.143C197.378 196.1 194.318 198.954 202.967 189.875C203.389 189.432 203.617 189.068 203.835 188.496C204.007 188.05 203.715 187.626 203.348 187.316C202.123 186.287 201.852 186.43 202.346 185.912C203.714 184.484 203.934 184.247 204.33 183.379C204.775 182.405 204.164 182.143 202.746 181.068H202.742ZM110.15 181.187C110.054 182.392 110.066 181.966 110.118 184.633C110.054 185.383 110.503 185.234 106.131 183.539C105.288 183.212 104.429 182.922 103.587 182.59C102.684 182.233 101.796 181.841 100.895 181.487C95.7033 179.447 85.0137 176.288 77.2641 173.472C76.1541 173.069 74.8005 172.736 73.5045 172.248C72.9273 172.03 73.2357 171.665 73.6281 171.412C73.8213 171.287 76.3557 169.692 76.8261 169.489C77.0061 169.411 77.1681 169.403 77.3757 169.462C81.1317 170.516 99.4761 177.33 109.89 180.792C110.089 180.858 110.167 180.984 110.151 181.188L110.15 181.187ZM127.597 174.13C125.863 173.566 123.272 172.564 117.671 170.162C116.933 169.847 117.314 168.762 118.326 169.058C120.908 169.812 128.454 172.696 129.566 173.299C130.113 173.596 129.54 174.763 127.598 174.131L127.597 174.13ZM136.355 178.204C136.502 176.48 136.364 176.356 136.994 176.592C157.103 184.114 166.055 188.446 178.934 194.228C179.679 194.563 180.335 194.604 180.897 194.009C181.517 193.354 184.536 190.336 185.963 188.683C190.58 183.334 192.675 180.326 196.065 176.812C201.335 171.35 200.574 171.126 201.63 171.67C202.413 172.073 202.893 172.259 202.465 172.925C200.317 176.258 200.593 175.29 194.987 181.981C192.066 185.467 194.744 182.884 180.822 197.383C180.569 197.647 180.333 197.704 179.961 197.533C177.769 196.53 173.139 194.584 169.71 193.014C167.135 191.836 163.938 190.094 158.619 188.347C149.306 185.288 150.746 185.162 136.62 179.981C136.134 179.803 136.202 179.988 136.355 178.201V178.204ZM136.019 181.879C136.093 181.014 136.027 181.092 137.043 181.483C142.422 183.551 142.506 183.413 144.251 184.181C153.731 188.348 156.26 188.882 158.18 189.564C166.067 192.364 167.559 193.524 172.267 195.614C180.267 199.168 179.88 199.182 180.673 198.836C181.298 198.563 181.838 198.158 182.315 197.683C183.74 196.262 192.882 186.408 194.275 184.582C196.513 181.644 195.728 182.597 200.783 176.82C201.277 176.255 201.173 176.378 201.63 176.672C202.542 177.258 203.028 177.443 202.614 178.081C201.271 180.157 201.559 179.473 197.694 184.288C195.263 187.315 194.658 187.46 192.536 190.046C191.895 190.826 189.493 193.367 188.544 194.406C182.954 200.524 182.772 200.333 180.887 201.84C179.843 202.674 179.436 202.475 178.748 202.246C177.947 201.979 176.886 201.235 175.491 200.653C168.077 197.561 153.751 191.134 149.239 189.679C148.137 189.324 142.003 187.225 140.933 186.785C135.929 184.73 135.937 185.076 135.938 184.613C135.948 181.919 135.887 183.442 136.02 181.883L136.019 181.879ZM202.361 188.434C198.671 192.965 182.889 209.658 179.528 212.395C178.951 212.866 178.572 212.501 177.921 212.22C154.362 202.049 157.567 203.292 148.994 199.966C144.078 198.059 140.682 196.576 138.606 195.746C136.179 194.778 135.494 194.609 135.509 194.363C135.56 193.388 135.6 192.414 135.643 191.437H135.593C135.654 190.723 135.611 190.496 135.983 190.636C136.011 190.646 151.075 196.554 151.157 196.582C152.87 197.185 157.141 198.937 159.641 200.112C160.968 200.735 162.399 201.118 163.679 201.853C164.724 202.454 165.943 202.625 171.415 205.15C176.967 207.712 179.631 209.316 180.715 208.445C185.714 204.424 198.973 189.427 200.967 187.308C201.116 187.151 201.216 187.141 201.383 187.308C202.224 188.149 202.597 188.143 202.362 188.432L202.361 188.434ZM198.252 188.742C196.219 190.964 183.209 204.884 180.992 206.572C180.234 207.148 180.048 207.674 179.235 207.295C177.999 206.719 173.222 204.713 170.219 203.41C164.742 201.035 164.329 200.711 163.243 200.286C157.05 197.868 160.073 198.863 153.194 196.133C137.864 190.049 138.608 190.291 137.88 190.008C135.276 188.998 135.642 190.021 135.873 186.81C135.963 185.574 135.415 185.887 142.159 188.416C150.821 191.664 142.56 187.553 175.208 202.186C180.258 204.449 179.868 204.173 181.08 203.261C186.317 199.314 188.087 196.046 197.714 185.954C200.177 183.373 199.159 184.176 201.365 181.9C201.673 181.582 201.794 181.828 203.057 182.908C203.327 183.137 203.349 183.169 198.253 188.74L198.252 188.742Z" fill="black"/>
<path d="M53.8221 129.233C54.1065 128.886 53.7309 128.739 53.5293 128.158C53.2305 127.294 53.7309 126.741 54.1485 126.887C55.0401 127.198 54.8481 128.163 55.3701 127.955C55.7445 127.806 56.1369 127.638 56.5197 127.613C57.9549 127.519 58.4133 128.67 58.0953 129.271C57.6717 130.077 56.8029 129.162 55.4565 130.067C54.1929 130.918 54.1869 132.823 55.7865 132.366C57.4629 131.887 58.3305 131.255 59.6613 131.256C61.5201 131.257 63.5469 133.045 62.9733 135.696C62.4249 138.233 61.3113 137.939 61.7685 138.715C61.7901 138.753 62.2497 139.422 62.4849 140.199C62.7729 141.151 61.9197 142.008 61.2825 141.223C60.1101 139.78 60.3681 139.48 59.8209 139.775C58.8333 140.31 57.9525 140.823 56.7345 140.526C55.9281 140.331 55.6869 139.405 55.8645 138.943C56.0577 138.441 56.3985 138.469 56.8761 138.427C59.0613 138.232 61.3029 136.111 60.5769 134.382C60.2241 133.545 59.1705 133.651 57.3105 134.344C56.2365 134.743 54.9549 135.028 53.8665 134.472C52.4085 133.728 52.2093 131.196 53.8221 129.233Z" fill="black"/>
<path d="M117.337 150.309C117.008 150.16 116.792 149.934 116.651 149.659C116.558 151.179 116.492 152.19 116.489 152.231C116.453 152.641 116.333 152.921 115.923 153.112C115.242 153.43 114.974 153.259 114.96 152.493C114.948 151.857 115.077 150.033 115.226 147.695C114.368 147.352 112.76 146.649 101.346 142.705C100.827 142.527 100.308 142.341 99.7905 142.153C99.7797 143.555 99.6681 146.199 99.4161 155.513C99.3813 156.795 99.3549 157.445 99.1677 157.53C98.8773 157.663 98.5701 157.777 98.2569 157.841C98.1537 157.863 97.9605 157.735 97.9029 157.626C97.4001 156.66 98.1117 147.385 98.0445 141.513C96.6441 140.997 95.3193 140.511 94.1877 140.163C94.2105 140.413 94.1877 140.857 94.1961 141.594C94.2141 143.388 94.2969 143.208 93.7989 143.349C79.3257 147.461 80.7513 147.694 71.2365 150.049C65.8029 151.395 62.4849 152.891 59.8293 153.875C56.2917 155.184 51.5301 156.779 49.2681 157.617C48.8853 157.758 48.6549 157.684 48.4221 157.402C35.6205 141.903 38.0985 144.678 35.4465 140.985C30.3549 133.894 30.5577 134.88 28.6641 131.395C28.2861 130.698 28.7793 130.549 29.5905 130.206C30.6837 129.742 29.9085 129.91 34.7553 135.749C37.8741 139.506 39.7389 142.662 43.9437 148.342C45.2433 150.096 48.0285 153.33 48.5973 154.03C49.1145 154.666 49.7709 154.674 50.5389 154.396C63.7869 149.601 73.0269 145.954 93.5529 139.977C93.3333 139.915 93.1221 139.861 92.9217 139.816C92.4597 139.71 92.3121 139.701 91.2357 139.361C84.0033 141.637 61.7001 148.324 50.2725 153.357C49.2621 153.802 49.0233 153.117 37.6065 137.603C34.9269 133.962 31.4049 129.678 30.2349 127.545C29.8113 126.772 31.4265 126.731 37.5525 125.211C44.6061 123.459 50.2293 122.295 55.9593 120.973C55.5897 120.492 55.2969 120.105 55.0521 119.773C44.5677 122.219 31.9485 124.853 29.7129 126.013C28.4349 126.677 28.8549 127.613 29.4057 128.755C29.6133 129.185 29.3541 128.989 28.1613 129.647C27.6153 129.947 27.0405 130.521 27.4005 131.286C27.5565 131.617 28.6545 133.543 28.9329 133.954C29.1981 134.346 28.8285 134.268 27.9057 134.675C26.5425 135.276 26.3085 136.153 26.9805 137.309C28.1529 139.324 28.3749 139.111 27.7785 139.498C26.2833 140.464 25.6557 140.68 26.0265 141.685C26.3565 142.579 26.5581 142.833 27.8157 144.359C28.2705 144.911 28.0101 144.75 26.7117 145.685C26.3217 145.966 26.0001 146.367 26.1381 146.825C26.3133 147.412 26.5137 147.792 26.9013 148.265C34.8477 157.965 32.0085 154.89 36.3297 160.27C37.9293 162.261 38.0265 162.214 42.0297 167.196C45.2625 171.221 42.7065 168.076 45.8169 171.655C47.6625 173.778 48.3813 174.69 50.0061 174.149C56.1597 172.103 56.0985 171.907 58.4325 171.102C60.5325 170.377 66.7965 168.323 67.6713 168.016C81.3789 163.194 90.9681 160.553 91.6953 160.285C92.6997 159.916 92.9433 159.605 93.6393 160.253C94.9857 161.506 96.1809 160.714 100.257 159.483C101.535 159.097 102.741 158.493 104.063 158.231C104.757 158.094 105.426 157.84 106.113 157.669C106.863 157.485 111.013 156.577 115.185 155.317C116.357 154.963 117.489 154.488 118.639 154.068C119.231 153.852 119.497 153.375 119.63 152.805C119.852 151.861 119.763 151.929 120.139 151.839C120.286 151.804 120.405 151.774 120.513 151.744C119.435 151.317 118.394 150.79 117.335 150.312L117.337 150.309ZM93.8337 157.775C93.8289 158.021 93.1341 158.139 90.6417 158.923C88.5093 159.594 85.0125 160.819 79.9677 162.354C71.1705 165.031 74.4597 164.032 50.2065 172.415C49.5369 172.647 49.1313 172.98 48.5913 172.469C45.4437 169.488 30.9525 151.665 27.6105 146.869C27.3969 146.563 27.7689 146.597 28.6713 145.821C28.8501 145.667 28.9485 145.684 29.0853 145.851C30.9165 148.114 43.0185 164.058 47.7033 168.441C48.7185 169.391 51.4941 167.989 57.2229 165.849C62.8689 163.739 64.0977 163.661 65.1849 163.139C66.5157 162.501 67.9725 162.226 69.3417 161.704C71.9217 160.72 76.3113 159.291 78.0657 158.817C78.1485 158.794 93.6117 154.029 93.6405 154.019C94.0221 153.909 93.9621 154.132 93.9693 154.847C93.9693 154.847 93.8565 156.796 93.8349 157.773L93.8337 157.775ZM91.7937 153.256C91.0461 153.483 91.8057 153.298 76.0641 158.22C69.0021 160.429 72.0897 159.663 65.7333 161.611C64.6185 161.953 64.1829 162.246 58.5441 164.205C55.4517 165.28 50.5377 166.924 49.2621 167.406C48.4245 167.724 48.2769 167.184 47.5641 166.553C45.4797 164.705 33.5457 149.853 31.6833 147.485C27.0165 141.55 27.0417 141.52 27.3273 141.31C28.6665 140.328 28.8057 140.091 29.0901 140.431C31.1193 142.865 30.1641 141.989 32.4273 144.747C41.2737 155.53 42.7953 158.921 47.7237 163.247C48.8625 164.248 48.4533 164.493 53.6589 162.613C87.3093 150.459 78.7641 153.941 87.6441 151.349C94.5573 149.331 94.0353 148.977 94.0317 150.216C94.0245 153.436 94.4661 152.442 91.7937 153.256ZM94.1349 148.015C94.1025 148.477 94.1349 148.133 88.9929 149.808C87.8925 150.167 81.6189 151.803 80.4933 152.075C75.8841 153.187 61.1193 158.527 53.4945 161.058C52.0593 161.533 50.9469 162.197 50.1273 162.403C49.4253 162.58 49.0041 162.75 48.0261 161.839C46.2585 160.197 46.0629 160.373 40.9449 153.855C40.0749 152.747 37.8693 150.035 37.2885 149.208C35.3661 146.472 34.7745 146.283 32.5761 143.081C29.0817 137.991 29.3169 138.695 28.1337 136.524C27.7689 135.856 28.2669 135.708 29.2197 135.192C29.6973 134.934 29.6025 134.802 30.0537 135.403C34.6629 141.541 33.9525 140.532 35.9637 143.628C37.2153 145.554 45.5973 156.064 46.9125 157.587C47.3517 158.095 47.8617 158.539 48.4641 158.86C49.2285 159.264 48.8433 159.221 57.0873 156.275C61.9377 154.542 63.5133 153.498 71.5869 151.294C73.5525 150.757 76.1145 150.414 85.8801 146.967C87.6777 146.332 87.7509 146.475 93.2685 144.815C94.3113 144.501 94.2525 144.418 94.2609 145.287C94.2777 146.853 94.3305 145.329 94.1385 148.015H94.1349Z" fill="black"/>
<path d="M84.9262 137.255C74.9014 140.299 56.8786 145.865 54.493 146.538C53.599 146.79 51.5218 147.295 50.9746 147.343C49.9762 147.43 50.5198 147.365 46.5046 142.184C44.6878 139.84 37.2298 130.427 37.2142 130.066C37.3342 129.739 42.1486 129.013 48.0262 127.02C50.4226 126.206 53.7946 125.314 57.979 124.534C58.2646 124.481 58.489 124.439 58.6978 124.397C58.3414 123.966 58.051 123.617 57.721 123.21C55.7878 123.616 54.0994 123.892 51.325 124.702C43.6726 126.935 45.277 126.798 39.0178 128.204C38.2342 128.38 36.337 128.963 36.2566 129.004C35.8054 129.226 35.5786 129.37 35.5126 129.582C35.179 130.661 44.5378 141.767 47.2738 145.597C48.1078 146.765 48.3466 147.07 48.8938 147.75C50.1598 149.329 50.1838 149.311 56.6266 147.193C68.5102 143.286 80.3866 139.892 87.121 137.998C86.4754 137.779 85.7482 137.533 84.925 137.252L84.9262 137.255Z" fill="black"/>
<path d="M182.834 129.604C183.263 129.737 183.258 129.332 183.72 128.927C184.407 128.323 185.108 128.579 185.131 129.02C185.18 129.964 184.213 130.15 184.603 130.554C184.883 130.844 185.185 131.144 185.353 131.49C185.982 132.784 185.089 133.642 184.412 133.576C183.507 133.487 184.026 132.337 182.679 131.432C181.415 130.583 179.648 131.297 180.675 132.606C181.752 133.978 182.664 134.543 183.165 135.776C183.866 137.498 182.975 140.05 180.303 140.52C177.747 140.97 177.599 139.828 177.053 140.544C177.026 140.578 176.58 141.257 175.95 141.767C175.176 142.393 174.061 141.926 174.547 141.041C175.441 139.41 175.817 139.536 175.337 139.141C174.469 138.428 173.661 137.806 173.475 136.567C173.353 135.746 174.119 135.174 174.612 135.164C175.151 135.154 175.251 135.481 175.471 135.906C176.477 137.856 179.287 139.132 180.614 137.806C181.257 137.164 180.761 136.228 179.418 134.766C178.641 133.922 177.895 132.842 177.999 131.624C178.139 129.994 180.407 128.851 182.834 129.604Z" fill="black"/>
<path d="M117.89 123.105C116.089 123.648 115.227 123.753 114.303 122.874C113.626 122.231 113.376 122.52 112.405 122.871C116.973 124.331 120.392 125.386 120.445 125.341L121.416 124.5C121.593 124.345 121.533 124.287 117.89 123.105Z" fill="black"/>
<path d="M202.039 132.006C201.989 131.789 201.774 131.629 201.339 131.375C201.263 131.329 199.413 130.608 198.644 130.375C192.506 128.512 194.096 128.767 186.629 125.976C181.89 124.205 180.345 124.31 175.152 122.218C173.096 121.39 164.719 118.465 164.12 118.166C164.076 118.143 164.022 118.152 163.986 118.185C163.003 119.088 162.902 119.115 162.929 119.235C162.961 119.373 162.955 119.174 173.287 122.984C178.713 124.985 178.417 124.9 180.005 125.32C184.121 126.404 187.418 127.543 189.747 128.531C195.463 130.951 200.21 132.029 200.306 132.362C200.264 132.722 192.134 141.56 190.149 143.765C185.763 148.636 186.301 148.741 185.312 148.58C184.771 148.493 182.736 147.836 181.862 147.52C178.619 146.34 145.817 133.464 145.68 133.567C144.459 134.479 144.426 134.477 144.471 134.597C144.518 134.72 162.139 140.778 179.685 148.018C185.954 150.604 185.977 150.624 187.356 149.142C187.951 148.502 188.211 148.217 189.129 147.114C192.139 143.495 202.29 133.108 202.037 132.007L202.039 132.006Z" fill="black"/>
<path d="M210.611 144.77C211.055 143.796 210.444 143.534 209.024 142.46C208.458 142.032 208.663 142.259 209.981 140.335C210.735 139.232 210.566 138.34 209.251 137.64C208.361 137.166 207.986 137.216 208.279 136.846C208.587 136.456 209.824 134.617 210.004 134.297C210.42 133.56 209.888 132.946 209.366 132.606C208.224 131.863 207.952 132.038 208.19 131.626C208.824 130.528 209.311 129.625 208.086 128.869C205.616 127.346 189.536 122.858 178.769 119.349C177.968 119.089 177.187 118.767 176.388 118.513C169.828 116.431 169.525 116.613 169.551 115.923C169.627 113.955 166.697 113.114 161.545 111.303C161.007 111.114 159.847 110.88 157.925 110.184C157.268 110.363 156.603 110.541 155.942 110.709C140.855 114.546 142.404 114.384 140.893 114.729C140.516 114.815 140.605 114.75 140.373 115.688C140.232 116.258 139.963 116.732 139.367 116.942C138.212 117.351 137.072 117.816 135.899 118.158C135.755 118.2 135.611 118.242 135.467 118.283C132.323 120.964 128.267 124.391 122.911 128.802C122.34 129.274 122.039 129.856 121.926 130.561C121.035 136.134 121.286 147.238 121.124 149.011C121.053 149.774 120.775 149.924 120.117 149.557C119.724 149.336 119.624 149.05 119.618 148.637C119.617 148.494 119.726 136.685 120.013 132.45C120.123 130.823 120.379 129.878 120.413 129.694C120.62 128.564 120.906 128.222 122.121 127.214C122.15 127.19 128.035 122.348 128.064 122.328C130.643 120.397 131.3 119.867 132.09 119.187C129.449 119.851 127.32 120.295 126.801 120.418C126.111 120.58 125.439 120.828 124.745 120.959C124.721 120.964 124.698 120.968 124.675 120.973C121.405 123.661 118.644 125.989 117.597 127.048C117.378 127.27 117.229 127.327 116.934 127.218C114.147 126.184 111.183 125.125 108.204 124.088C107.511 124.29 106.722 124.523 105.828 124.789C111.11 126.607 115.547 128.184 116.547 128.614C116.921 128.773 116.811 128.632 116.72 131.138C116.751 131.141 116.748 131.143 116.705 131.596C116.69 131.742 116.654 131.842 116.465 131.778C112.305 130.403 106.321 128.37 100.551 126.395C99.8374 126.616 99.085 126.85 98.293 127.098C116.695 133.358 116.677 133.034 116.669 133.513C116.669 133.538 116.604 135.593 116.629 135.593C116.616 135.744 116.598 135.895 116.592 136.048C116.569 136.688 115.691 135.806 113.665 135.151C110.982 134.282 110.373 133.669 104.676 131.876C103.081 131.375 97.3774 129.624 93.8482 128.502C93.1174 128.735 92.3614 128.977 91.5802 129.229C91.8826 129.329 92.185 129.424 92.491 129.514C93.9778 129.953 95.4694 130.382 96.9262 130.92C98.815 131.618 106.587 133.72 107.799 134.244C110.579 135.444 111.392 135.584 116.18 137.484C116.457 137.593 116.569 137.759 116.541 138.083C116.259 141.347 116.643 141.116 115.958 140.868C115.773 140.801 97.2346 134.382 86.9314 130.738C86.2822 130.95 85.6174 131.167 84.9382 131.39C90.5254 133.196 106.658 139.135 116.173 142.288C116.372 142.354 116.45 142.478 116.435 142.682C116.34 143.887 116.351 143.461 116.406 146.129C116.343 146.879 116.792 146.729 112.418 145.039C111.575 144.713 110.715 144.425 109.873 144.092C108.969 143.737 108.08 143.345 107.179 142.992C101.985 140.958 91.2922 137.812 83.5402 135.004C82.429 134.602 81.0766 134.272 79.7794 133.783C79.3342 133.615 79.4158 133.361 79.6546 133.136C79.4326 133.211 79.2094 133.285 78.985 133.36C78.3346 133.577 77.8702 133.748 77.4058 133.926C77.419 134.12 77.4838 134.299 77.6182 134.44C78.3958 135.25 79.6378 135.449 80.401 135.71C92.4382 139.826 91.8838 139.578 92.9242 139.816C94.9966 140.291 98.203 141.619 101.349 142.706C116.072 147.793 114.48 147.488 116.007 147.974C116.376 148.092 116.292 148.019 116.444 148.975C116.535 149.552 116.766 150.049 117.341 150.308C118.457 150.811 119.552 151.369 120.693 151.808C124.763 153.373 128.833 154.582 129.567 154.822C130.242 155.042 130.89 155.345 131.571 155.532C132.87 155.89 134.028 156.582 135.275 157.061C139.25 158.587 140.384 159.466 141.818 158.315C142.561 157.72 142.781 158.047 143.755 158.49C144.461 158.81 153.83 162.149 167.145 167.965C167.995 168.336 174.091 170.845 176.132 171.724C178.4 172.698 178.325 172.889 184.312 175.381C185.892 176.04 186.677 175.183 188.672 173.202C192.038 169.862 189.258 172.81 192.777 169.033C197.136 164.358 197.23 164.412 198.971 162.545C203.675 157.496 200.618 160.355 209.256 151.266C209.677 150.823 209.905 150.46 210.123 149.887C210.294 149.441 210.004 149.017 209.635 148.709C208.409 147.68 208.138 147.823 208.632 147.306C209.998 145.877 210.218 145.639 210.613 144.772L210.611 144.77ZM208.891 139.47C207.551 141.547 207.837 140.863 203.978 145.682C201.551 148.714 200.946 148.859 198.828 151.447C198.188 152.228 195.788 154.771 194.84 155.812C189.257 161.936 189.074 161.746 187.191 163.254C186.149 164.089 185.741 163.89 185.054 163.662C184.252 163.396 183.191 162.653 181.795 162.073C174.377 158.989 160.044 152.578 155.529 151.129C154.427 150.775 148.291 148.682 147.219 148.244C142.214 146.196 142.221 146.542 142.223 146.078C142.229 143.384 142.17 144.907 142.301 143.348C142.374 142.483 142.308 142.561 143.325 142.951C148.706 145.013 148.789 144.875 150.535 145.64C160.02 149.797 162.551 150.329 164.472 151.008C172.361 153.799 173.856 154.957 178.565 157.042C186.569 160.586 186.182 160.601 186.974 160.254C187.599 159.979 188.14 159.575 188.615 159.098C190.038 157.676 199.17 147.812 200.559 145.982C202.794 143.042 202.01 143.996 207.059 138.214C207.552 137.648 207.449 137.772 207.906 138.065C208.818 138.649 209.304 138.833 208.891 139.472V139.47ZM208.737 134.317C206.593 137.653 206.869 136.685 201.269 143.382C198.353 146.87 201.028 144.284 187.121 158.8C186.868 159.064 186.632 159.121 186.26 158.951C184.067 157.95 179.435 156.008 176.004 154.444C173.427 153.268 170.228 151.53 164.909 149.79C155.592 146.741 157.032 146.614 142.899 141.449C142.413 141.271 142.483 141.456 142.633 139.669C142.778 137.946 142.64 137.821 143.27 138.056C163.387 145.555 172.345 149.878 185.231 155.646C185.976 155.98 186.631 156.02 187.193 155.424C187.812 154.768 190.828 151.747 192.252 150.094C196.864 144.739 198.955 141.728 202.341 138.211C207.605 132.744 206.844 132.52 207.9 133.063C208.684 133.465 209.166 133.651 208.737 134.317ZM167.308 116.779C179.711 121.519 187.709 123.354 200.328 127.494C206.326 129.462 207.934 129.622 207.454 130.361C206.13 132.403 202.303 136.415 199.363 139.849C186.838 154.482 186.548 155.148 185.574 154.63C172.478 147.671 144.259 137.26 143.507 136.716C144.488 135.444 148.203 132.21 148.735 131.761C148.968 131.564 149.19 131.285 149.456 131.228C149.687 131.179 149.963 131.414 150.23 131.495C153.642 132.53 157.961 133.667 162.144 131.756C162.98 131.375 163.592 130.753 164.221 130.133C164.401 129.955 165.021 128.711 164.796 127.274C164.46 125.137 162.608 123.281 160.908 121.92C160.695 121.75 160.585 121.768 161.117 121.327C166.746 116.677 166.621 116.516 167.308 116.779ZM153.546 127.807C155.864 125.879 158.801 123.338 159.283 122.94C159.545 122.724 159.887 122.76 160.148 122.982C161.247 123.916 162.293 124.632 162.981 125.91C163.8 127.428 163.508 128.87 163.101 129.376C161.882 130.888 159.882 131.231 157.813 131.461C156.977 131.555 154.782 131.574 150.679 130.376C150.277 130.259 150.577 130.277 153.546 127.807ZM133.871 135.606C132.135 135.043 129.545 134.045 123.939 131.65C123.201 131.334 123.582 130.249 124.593 130.544C127.177 131.294 134.725 134.171 135.839 134.772C136.386 135.067 135.813 136.236 133.871 135.606ZM139.107 136.672C138.273 141.742 138.427 154.301 137.756 155.384C137.691 155.489 137.49 155.602 137.388 155.573C137.079 155.486 136.782 155.351 136.502 155.197C136.322 155.098 136.344 154.447 136.403 153.167C137.167 136.724 136.841 141.076 137.403 136.356C137.664 134.168 139.467 133.003 150.36 123.533C153.959 120.404 156.668 117.992 160.74 114.935C161.759 114.169 162.357 113.019 163.274 113.712C163.358 113.775 163.47 113.796 163.567 113.843C164.538 114.318 163.374 114.983 162.593 115.596C156.827 120.123 159.42 118.071 154.607 122.189C153.71 122.956 154.547 122.118 151.134 125.142C140.591 134.48 139.377 135.036 139.109 136.672H139.107ZM208.651 149.826C204.966 154.361 189.203 171.072 185.845 173.813C185.268 174.283 184.889 173.92 184.238 173.64C160.667 163.495 163.873 164.735 155.297 161.418C150.378 159.516 146.981 158.038 144.903 157.211C142.476 156.245 141.791 156.077 141.804 155.831C141.854 154.856 141.893 153.881 141.935 152.904H141.884C141.944 152.19 141.901 151.963 142.273 152.102C142.302 152.113 157.373 158.003 157.453 158.032C159.168 158.633 163.44 160.381 165.941 161.552C167.268 162.174 168.701 162.554 169.981 163.29C171.026 163.89 172.247 164.059 177.721 166.578C183.276 169.134 185.942 170.735 187.023 169.862C192.018 165.836 205.26 150.824 207.252 148.703C207.401 148.546 207.5 148.536 207.667 148.703C208.51 149.543 208.883 149.537 208.648 149.827L208.651 149.826ZM204.544 150.139C202.513 152.364 189.518 166.298 187.304 167.988C186.547 168.565 186.361 169.092 185.549 168.714C184.313 168.139 179.533 166.138 176.527 164.839C171.048 162.472 170.634 162.148 169.548 161.724C163.352 159.313 166.375 160.304 159.494 157.582C144.158 151.514 144.902 151.757 144.173 151.475C141.567 150.468 141.935 151.49 142.163 148.279C142.25 147.043 141.703 147.358 148.451 149.879C157.116 153.116 148.85 149.016 181.515 163.612C186.567 165.869 186.178 165.594 187.387 164.681C192.62 160.728 194.387 157.459 204.002 147.355C206.462 144.772 205.445 145.576 207.648 143.297C207.956 142.978 208.078 143.225 209.341 144.302C209.611 144.532 209.634 144.563 204.544 150.139Z" fill="black"/>
<path d="M75.5857 95.7831C78.9745 95.1039 79.4005 94.9479 80.2813 94.9707C82.7581 95.0343 85.0453 97.1391 83.4793 99.7863C82.4941 101.453 81.4837 101.249 81.9505 101.775C82.0921 101.934 82.4281 102.511 82.5049 102.729C82.8433 103.693 81.8017 104.471 81.0577 103.607C80.2297 102.646 80.2969 102.287 79.9105 102.46C78.9469 102.889 77.6845 103.312 76.6597 103.032C75.2281 102.642 75.1909 101.629 75.9697 101.159C77.0437 100.509 77.7481 100.945 79.6261 99.9591C80.2141 99.6507 81.1177 99.2295 81.4477 98.3907C81.6073 97.9851 81.4861 97.7283 81.0793 97.5651C80.8861 97.4871 80.6557 97.4175 80.4577 97.4451C77.4637 97.8555 76.2421 98.3811 74.1157 97.8375C71.5885 97.1919 71.5273 94.2327 73.6585 92.4015C73.8829 92.2083 73.7677 92.1687 73.2529 91.1523C72.6961 90.0519 74.2645 89.0427 75.1345 90.9663C75.4513 91.6671 75.4069 90.8715 77.4625 91.0239C78.7225 91.1175 79.3777 92.1291 78.9469 92.8215C78.3373 93.8031 77.2105 92.2875 75.3037 93.6867C74.9977 93.9111 74.7385 94.2243 74.5177 94.5387C74.1409 95.0739 74.3977 95.6103 75.0565 95.7123C75.2269 95.7387 75.4045 95.7171 75.5761 95.7171L75.5869 95.7819L75.5857 95.7831Z" fill="black"/>
<path d="M141.588 74.8646C141.932 74.5166 141.423 74.3498 141.099 73.7354C140.604 72.797 141.23 72.2294 141.813 72.413C143.029 72.7958 142.851 73.7966 143.515 73.6046C143.988 73.4678 144.48 73.3118 144.966 73.3046C147.38 73.2674 147.605 75.4106 146.228 75.353C146.119 75.3482 145.998 75.3686 145.904 75.329C145.298 75.0794 144.75 75.3158 144.218 75.5462C143.379 75.9098 142.887 76.4918 142.698 77.1326C142.499 77.801 143.492 78.0866 144.234 77.9186C146.225 77.4698 147.309 76.9118 148.841 76.9202C150.908 76.9322 153.009 78.4886 152.351 80.6966C151.745 82.727 150.615 82.5566 151.075 83.135C151.095 83.1614 151.545 83.6498 151.765 84.2174C152.029 84.9014 151.183 85.5866 150.565 85.061C149.382 84.0542 149.647 83.8058 149.083 84.0674C148.058 84.5438 147.512 85.0802 145.817 84.8618C144.925 84.7478 144.605 84.047 144.779 83.6654C145.412 82.283 148.167 82.7774 149.906 80.543C150.146 80.2346 150.302 79.8818 150.086 79.5242C149.339 78.2846 145.458 81.0602 142.113 79.919C140.198 79.265 139.651 76.8194 141.588 74.8646Z" fill="black"/>
<path d="M113.562 98.7983L112.768 98.004C112.738 97.974 112.692 97.9608 112.65 97.9728C99.7958 101.53 97.0538 102.05 82.805 106.514C80.867 107.122 73.841 109.367 71.7698 109.529C70.7714 109.607 71.3186 109.554 67.3514 104.324C61.8566 97.08 61.5266 96.9275 58.2134 92.1659C57.9638 91.8059 62.6762 91.2576 69.0314 89.1768C71.4038 88.3992 74.8538 87.5196 79.0082 86.7948C83.1146 86.0724 95.723 82.1087 96.4298 81.9827C96.545 81.9635 96.5654 81.8052 96.4586 81.7572C96.1586 81.6156 96.0686 81.1908 95.6414 80.8788C95.4638 80.748 94.6406 81.318 88.5578 82.8936C82.2614 84.5304 82.8986 84.6828 77.5706 85.71C69.575 87.2484 68.393 88.4855 60.0014 90.2819C59.195 90.4547 57.3002 91.0212 57.2354 91.0512C56.2994 91.482 56.3234 91.6836 56.7314 92.4228C58.2926 95.25 66.0734 104.908 67.8074 107.369C68.5454 108.424 68.8622 108.898 69.6746 109.928C71.4686 112.204 70.6574 111.215 90.4934 105.465C99.0422 102.989 113.55 99.0767 113.592 98.9147C113.602 98.8739 113.591 98.8308 113.561 98.8008L113.562 98.7983Z" fill="black"/>
<path d="M178.214 95.5586C178.814 95.3462 179.668 95.183 180.422 94.8242C181.252 94.4306 180.828 93.449 180.265 93.0026C179.174 92.1362 178.319 91.8266 177.27 91.085C177.454 91.0226 177.636 90.9602 177.818 90.899C177.858 90.8858 177.907 90.8966 177.947 90.8834C178.415 90.725 178.901 90.5954 179.35 90.3914C180.181 90.0146 180.364 89.087 179.707 88.4762C178.877 87.7022 178.571 87.6482 177.593 87.1022C177.473 87.035 177.467 86.903 177.63 86.8562C177.714 86.8322 177.805 86.8502 177.889 86.8274C178.54 86.6474 179.233 86.6126 179.713 85.9934C180.228 85.3298 180.194 84.7286 179.447 84.1982C165.434 74.2442 166.279 75.6026 160.728 71.417C156.836 68.4818 157.456 68.7722 154.932 67.121C153.678 66.3002 151.75 65.2346 151.433 64.9994C149.902 63.8606 147.382 64.1774 134.64 67.2578C127.874 68.8922 125.13 69.521 118.399 71.3498C117.448 71.6078 116.941 70.5374 115.496 70.4714C111.038 71.141 111.007 71.3042 107.874 72.0938C106.478 72.4454 105.065 72.7274 103.693 73.1546C100.852 74.0378 99.2509 74.2022 98.5789 74.3774C93.2953 75.7562 90.3037 76.343 90.2137 78.3098C90.1825 78.9974 89.8981 78.791 83.1841 80.3162C82.3657 80.5022 81.5617 80.7578 80.7433 80.9486C69.7141 83.5274 53.3173 86.6666 50.7301 87.9782C49.4473 88.6286 49.8541 89.5706 50.3953 90.7166C50.5993 91.1486 50.3425 90.9518 49.1413 91.595C48.5905 91.8902 48.0097 92.4578 48.3625 93.2258C48.5161 93.5606 49.5937 95.4962 49.8673 95.909C50.1289 96.3038 49.7593 96.2222 48.8329 96.6194C47.4637 97.2074 47.2213 98.0834 47.8813 99.2426C49.0345 101.268 49.2589 101.059 48.6577 101.44C47.1553 102.391 46.5229 102.6 46.8829 103.609C47.2045 104.506 47.4025 104.765 48.6445 106.303C49.0945 106.86 48.8353 106.695 47.5261 107.617C47.1337 107.895 46.8073 108.294 46.9405 108.751C47.1121 109.339 47.3065 109.721 47.6905 110.196C55.5625 119.957 52.7293 116.875 56.9941 122.298C58.5721 124.304 58.6681 124.261 62.6209 129.283C65.8129 133.339 63.2893 130.169 66.3625 133.781C68.1841 135.92 68.8945 136.841 70.5253 136.318C76.7005 134.336 76.6381 134.138 78.9817 133.357C103.414 125.213 111.502 123.186 112.357 122.884C113.366 122.526 113.615 122.216 114.301 122.87C115.634 124.138 116.837 123.359 120.925 122.167C122.206 121.794 123.419 121.204 124.744 120.954C125.438 120.824 126.11 120.576 126.8 120.413C127.553 120.236 131.711 119.376 135.898 118.156C137.071 117.814 138.211 117.349 139.366 116.94C139.962 116.729 140.231 116.256 140.372 115.686C140.605 114.748 140.516 114.813 140.892 114.727C142.403 114.383 140.854 114.544 155.941 110.709C159.168 109.888 162.474 108.833 164.58 108.534C165.636 108.384 165.061 108.585 177.401 105.492C178.182 105.297 179.44 105.202 180.281 104.46C180.811 103.992 180.472 102.931 179.952 102.461C176.958 99.7502 176.06 100.109 177.995 99.6434C179.375 99.3122 180.834 98.675 179.936 97.5758C179.485 97.0238 177.796 95.8406 177.796 95.7314C177.797 95.5046 178.067 95.6054 178.213 95.5538L178.214 95.5586ZM177.848 89.057C177.989 89.1698 178.004 89.2298 177.84 89.3318C177.335 89.645 176.774 89.8022 176.209 89.9486C176.018 89.999 152.716 95.9306 141.782 98.5622C141.586 98.609 141.558 98.507 141.557 98.3606C141.553 97.9034 141.546 97.9034 141.581 97.9034C141.701 95.3978 141.578 95.531 141.965 95.4026C144.804 94.4582 174.246 87.0398 175.111 87.4394C176.078 87.887 177.011 88.3898 177.847 89.057H177.848ZM58.5733 87.2726C71.4925 84.2042 79.6081 83.0198 92.3749 79.3622C92.7265 79.2614 92.8705 79.2686 93.4381 79.7702C94.9381 81.0962 96.8449 83.1254 98.0773 84.3158C98.6737 84.8906 98.5645 84.8498 98.3257 85.0118C96.5209 86.2298 94.5157 87.9206 94.0033 90.0218C93.5101 92.0438 94.4581 93.6914 96.2713 94.7126C100.388 97.0334 104.96 96.131 108.167 95.4554C108.439 95.3978 108.734 95.1878 108.959 95.2538C109.267 95.345 113.53 99.8534 114.422 101.229C113.628 101.706 84.6361 109.721 71.0005 115.552C69.9841 115.986 69.7549 115.301 58.4989 99.6686C55.8577 95.999 52.3813 91.6802 51.2317 89.5346C50.8165 88.7582 52.4317 88.733 58.5721 87.2738L58.5733 87.2726ZM98.9317 85.7798C99.2113 85.5806 99.2401 85.5842 99.4825 85.8218C99.9313 86.2586 103.021 89.375 105.169 91.493C107.918 94.2026 108.221 94.2074 107.808 94.2914C103.619 95.141 101.432 94.937 100.608 94.775C96.6133 93.9902 93.6961 92.2214 95.9221 88.8122C96.7165 87.5966 97.7533 86.6186 98.9293 85.781L98.9317 85.7798ZM49.6177 93.3614C49.2481 92.6618 49.7425 92.5166 50.5585 92.1806C51.6553 91.7282 50.8801 91.8866 55.6645 97.775C58.7437 101.565 60.5749 104.742 64.7245 110.463C66.0061 112.23 68.7565 115.493 69.3181 116.199C69.8281 116.838 70.4857 116.854 71.2573 116.585C84.5869 111.933 93.8641 108.337 114.542 102.573C115.19 102.391 115.046 102.51 115.046 104.237C115.046 106.032 115.124 105.852 114.625 105.988C100.11 109.944 101.536 110.201 91.9945 112.458C86.5489 113.747 83.2141 115.209 80.5489 116.164C76.9981 117.437 72.2221 118.989 69.9493 119.796C69.5653 119.933 69.3349 119.856 69.1045 119.571C56.4781 103.925 58.9129 106.74 56.3005 103.021C51.2797 95.8766 51.4669 96.869 49.6153 93.3602L49.6177 93.3614ZM114.677 117.489L114.625 117.486C114.607 118.462 114.544 119.436 114.512 120.41C114.504 120.659 113.812 120.764 111.312 121.524C109.169 122.174 105.662 123.362 100.603 124.846C91.7785 127.432 95.0749 126.455 70.7389 134.6C70.0669 134.826 69.6589 135.155 69.1237 134.638C66.0085 131.624 51.6973 113.655 48.4093 108.825C48.1993 108.516 48.5713 108.55 49.4809 107.787C49.6609 107.635 49.7605 107.653 49.8937 107.824C51.6889 110.112 63.6385 126.172 68.2777 130.603C69.2809 131.562 72.0721 130.19 77.8213 128.11C83.4865 126.059 84.7177 125.994 85.8097 125.484C87.1477 124.859 88.6033 124.6 89.9809 124.091C92.5705 123.133 96.9721 121.741 98.7325 121.294C98.8165 121.272 114.328 116.667 114.356 116.658C114.742 116.55 114.677 116.776 114.677 117.489ZM112.529 115.873C111.776 116.093 112.537 115.913 96.7453 120.673C89.6605 122.809 92.7541 122.072 86.3809 123.958C85.2625 124.289 84.8233 124.577 79.1665 126.478C76.0621 127.52 71.1301 129.116 69.8533 129.584C69.0121 129.893 68.8705 129.353 68.1649 128.714C66.0997 126.845 54.3169 111.87 52.4809 109.483C47.8753 103.5 47.9029 103.47 48.1897 103.264C49.5397 102.295 49.6813 102.063 49.9609 102.405C51.9661 104.861 51.0193 103.973 53.2537 106.753C61.9897 117.625 63.4693 121.038 68.3581 125.41C69.4669 126.401 69.0265 126.679 74.2981 124.835C108.013 113.039 99.3745 116.453 108.398 113.922C115.333 111.977 114.817 111.621 114.8 112.859C114.757 116.079 115.211 115.09 112.529 115.873ZM114.92 110.647C114.884 111.107 114.918 110.772 109.757 112.393C108.652 112.741 102.364 114.311 101.236 114.573C96.6157 115.644 81.7969 120.83 74.1445 123.277C72.7045 123.738 71.5861 124.391 70.7629 124.586C70.0597 124.753 69.6373 124.92 68.6665 124.001C66.9133 122.339 66.7165 122.514 61.6681 115.942C60.8113 114.826 58.6321 112.09 58.0621 111.258C56.1709 108.501 55.5793 108.309 53.4133 105.083C49.9717 99.9578 50.1973 100.665 49.0381 98.4794C48.6829 97.8086 49.1785 97.6658 50.1385 97.1594C50.6185 96.9062 50.5273 96.7754 50.9689 97.379C55.5037 103.57 54.8149 102.549 56.7937 105.663C58.0261 107.602 66.2977 118.194 67.5973 119.733C68.0317 120.246 68.5357 120.694 69.1357 121.021C69.8965 121.434 69.5113 121.386 77.7853 118.525C82.6537 116.843 84.2401 115.816 92.3353 113.694C94.3081 113.177 96.8725 112.861 106.674 109.513C108.478 108.898 108.551 109.042 114.083 107.439C115.128 107.136 115.068 107.052 115.068 107.92C115.068 109.485 115.133 107.962 114.92 110.647ZM120.128 118.201C120.079 119.484 120.044 120.133 119.86 120.216C119.567 120.347 119.258 120.455 118.945 120.516C118.843 120.536 118.65 120.409 118.595 120.299C118.024 119.159 119.222 106.66 118.817 101.538C118.686 99.887 117.518 99.227 107.794 89.0414C104.645 85.7426 105.408 86.645 104.58 85.8062C100.129 81.2966 102.542 83.5634 97.1773 78.5678C96.4513 77.8922 95.3461 77.135 96.3541 76.739C96.4537 76.7006 96.5689 76.6874 96.6577 76.6322C97.6309 76.0214 98.1289 77.2142 99.0829 78.0638C102.883 81.449 105.38 84.0794 108.704 87.4994C118.764 97.8494 120.463 99.1598 120.54 101.363C120.704 106.114 120.758 101.753 120.13 118.2L120.128 118.201ZM134.292 97.7426C128.508 99.6638 125.632 100.084 123.858 100.499C121.861 100.967 122.149 99.689 122.72 99.4394C123.878 98.9342 131.152 97.1846 133.784 96.6446C135.124 96.3698 134.764 97.5854 134.291 97.7426H134.292ZM138.199 98.9318C138.138 102.646 137.242 114.955 137.23 115.095C137.192 115.505 137.068 115.783 136.657 115.971C135.972 116.283 135.707 116.109 135.701 115.343C135.688 113.779 136.89 102.817 136.451 96.8918C136.398 96.1814 136.146 95.5742 135.617 95.057C119.753 79.5302 116.246 75.197 113.198 73.2338C112.195 72.5882 113.74 71.8202 114.614 72.3926C115.66 73.0766 115.577 72.875 121.134 78.3722C121.964 79.193 122.21 79.697 123.371 80.8202C128.425 85.715 126.413 83.9894 131.024 88.1714C131.051 88.1954 136.512 93.5126 136.538 93.539C137.658 94.6562 137.917 95.0102 138.03 96.1526C138.049 96.341 138.224 97.3022 138.198 98.933L138.199 98.9318ZM130.757 83.5574C128.936 81.8402 121.382 74.3534 120.113 73.2818C119.387 72.6698 119.204 72.5546 119.528 72.467C144.682 65.6582 145.644 66.4322 148.37 65.6786C148.823 65.5538 150.101 65.6282 150.714 66.0182C160.865 72.455 156.33 70.0586 166.205 76.9094C178.037 85.1186 177.209 84.3266 178.08 85.0622C178.049 85.0706 157.24 89.603 141.698 93.9758C141.395 94.061 141.252 93.9914 141.053 93.7502C139.009 91.2914 130.904 83.6966 130.757 83.5574ZM178.124 102.791C178.495 103.073 178.77 103.465 178.177 103.632C176.844 104.01 175.468 104.226 174.328 104.533C166.369 106.684 155.446 108.916 150.103 110.512C149.178 110.788 148.258 111.103 147.328 111.383C146.46 111.642 145.579 111.858 144.712 112.111C140.212 113.425 140.642 113.614 140.642 112.861C140.922 110.209 140.9 110.633 140.904 109.425C140.904 108.927 140.844 109.206 148.782 107.159C156.752 105.103 171.552 101.094 174.551 100.53C174.762 100.489 174.923 100.515 175.097 100.606C175.175 100.647 175.261 100.673 175.33 100.723C176.999 101.949 177.752 102.508 178.123 102.79L178.124 102.791ZM178.04 98.1866C175.375 99.0422 141.779 107.599 141.528 107.668C140.825 107.859 141.18 108.119 141.18 104.843C141.18 104.517 141.3 104.363 141.588 104.275C146.519 102.789 147.342 102.713 150.212 101.749C151.464 101.328 159.388 99.8846 161.327 99.3482C162.824 98.9342 164.342 98.633 165.863 98.3186C167.149 98.0522 168.416 97.6886 169.697 97.3958C171.929 96.8858 175.049 96.2462 175.817 96.0422C176.081 95.9714 176.305 95.993 176.447 96.2282C177.037 97.211 178.796 97.9442 178.04 98.1866ZM166.331 96.7886C163.284 97.5134 155.458 99.2138 153.526 99.647C147.698 100.957 147.04 101.515 144.293 102.159C142.22 102.645 141.274 103.447 141.301 102.807C141.322 102.321 141.439 100.289 141.439 100.275C141.452 99.7514 141.418 100.18 165.854 94.0238C175.782 91.523 175.631 91.2746 175.968 91.727C176.35 92.2394 176.948 92.4242 177.444 92.7614C179.146 93.9182 178.926 93.653 179.124 93.953C177.438 94.6166 171.175 95.6342 166.331 96.7886Z" fill="black"/>
<path d="M170.766 83.1805C170.456 82.5301 170.284 82.6837 167.305 80.6065C163.796 78.1573 154.38 71.1577 150.614 68.9185C149.374 68.1805 149.304 68.1169 147.238 68.4889C138.896 69.9901 129.241 71.9437 121.136 74.4253C121.06 74.4493 121.026 74.5417 121.073 74.6077C121.763 75.5869 121.746 75.6397 121.867 75.5953C123.149 75.1129 123.959 74.9257 126.524 74.1973C136.442 71.3797 140.891 71.1433 148.075 69.6505C149.293 69.3985 149.724 69.7933 152.722 71.9173C155.998 74.2393 156.432 74.2345 161.035 77.8153C165.252 81.0972 167.936 82.5817 168.715 83.3125C137.279 90.7129 137.386 90.5149 137.641 90.7909C138.484 91.7185 138.599 91.8325 138.673 91.8325C145.993 90.1477 167.472 85.3153 170.444 84.0685C170.828 83.9077 170.966 83.6029 170.766 83.1805Z" fill="black"/>
<path d="M167.106 40.169C167.638 35.771 167.572 36.5606 167.676 35.5958C167.736 35.0366 167.828 35.1986 164.278 36.2414C163.413 36.4958 162.967 35.9822 163.152 35.4554C163.452 34.6034 164.272 34.295 165.528 33.8354C166.68 33.413 167.212 33.4742 166.957 33.1826C166.934 33.1562 165.876 32.045 164.378 30.3338C163.974 29.8706 163.929 29.2034 164.538 29.1134C164.835 29.069 165.105 29.1494 165.332 29.3306C165.842 29.735 166.35 30.1406 166.832 30.575C167.794 31.4414 168.236 32.1854 168.314 31.7222C168.716 29.339 168.73 28.811 169.668 24.6746C169.767 24.2354 170.023 24.0326 170.368 24.0182C171.584 23.9678 171.014 25.6046 170.222 29.7914C169.71 32.4962 169.372 32.861 169.974 32.765C174.138 32.1026 172.129 32.4878 174.492 32.3834C174.56 32.381 174.672 32.4386 174.693 32.4962C174.801 32.7962 174.186 32.9306 170.826 34.2002C169.963 34.5266 171.205 34.5722 172.678 37.4042C172.797 37.631 172.864 37.8782 172.654 38.063C172.414 38.2754 172.155 38.129 171.94 37.979C169.935 36.5774 169.245 34.9106 169.042 35.8154C167.733 41.6498 167.94 41.7914 167.551 41.795C167.227 41.7974 167.295 41.6906 167.107 40.1726L167.106 40.169Z" fill="black"/>
<path d="M25.7457 69.5883C25.5105 67.0827 25.4433 66.6063 25.4529 65.7651C25.4613 65.0331 26.3313 64.9491 26.6493 65.4495C27.4425 66.6951 27.1773 69.1395 27.5193 70.2339C28.2585 69.8835 29.7297 68.6535 32.4033 67.3023C32.4609 67.2735 32.5653 67.3023 32.6277 67.3359C32.9853 67.5555 30.9525 69.3687 28.6341 71.5635C30.1473 72.4311 30.6369 72.6495 31.0329 73.1523C31.2981 73.4895 31.2729 73.9707 30.7797 73.8471C30.1809 73.6983 28.6809 73.3767 27.9501 73.2039C27.5529 73.1103 27.6345 73.0575 27.7881 74.8551C28.1001 78.4983 28.2057 78.5895 27.8793 78.7179C27.6801 78.7959 27.4702 78.7707 27.3562 78.5847C27.187 78.3087 27.0057 78.0231 26.9253 77.7171C26.1681 74.8515 26.2821 74.3307 26.1993 73.9719C26.0793 73.4571 26.1057 73.6935 23.6385 75.5499C23.4093 75.7227 22.4109 76.4475 22.0389 76.5219C21.5421 76.6227 21.1497 76.2291 21.3153 75.7515C21.6489 74.7819 22.6809 74.0931 24.6501 72.4479C25.0293 72.1311 24.7257 72.2139 22.7349 71.3163C20.7825 70.4367 21.6057 69.1575 22.4109 69.3951C23.4453 69.7011 24.4617 70.0623 25.4865 70.4007C25.7949 70.5027 25.7457 70.5315 25.7457 69.5859V69.5883Z" fill="black"/>
<path d="M78.1153 34.4798C78.3193 37.3094 74.3245 39.3578 71.6689 36.9566C70.1605 35.5934 70.1425 33.4262 71.4385 32.015C73.5793 29.6846 78.1357 30.9518 78.1153 34.4798ZM76.5625 34.3334C76.5097 34.127 76.4665 33.9206 76.4029 33.7166C75.7621 31.6406 72.6433 32.0126 72.2353 33.761C72.0565 34.5242 72.2449 35.2382 72.8917 35.7446C73.7605 36.425 74.6269 36.4682 75.4921 36.011C76.1245 35.6762 76.5685 35.1386 76.5637 34.3334H76.5625Z" fill="black"/>
<path d="M205.744 71.4413C202.303 71.2217 201.073 67.5977 203.162 65.8025C203.724 65.3189 204.205 65.3405 204.651 64.9169C205.197 64.3997 208.323 64.8641 209.025 67.2845C209.718 69.6701 207.546 71.5577 205.743 71.4425L205.744 71.4413ZM205.123 66.4553C204.796 66.4637 204.499 66.4109 204.213 66.6905C203.432 67.4561 203.401 68.5277 204.229 69.2561C205.66 70.5161 207.364 69.5621 207.396 68.3933C207.418 67.5413 206.854 66.7901 206.013 66.5957C205.72 66.5285 205.42 66.4985 205.122 66.4541L205.123 66.4553Z" fill="black"/>
<path d="M122.758 49.2624C122.766 50.292 121.88 51.2148 120.812 51.1884C119.629 51.1596 118.885 50.3496 118.86 49.2648C118.837 48.2484 119.814 47.2788 120.786 47.2788C121.886 47.2788 122.75 48.1884 122.758 49.2624Z" fill="black"/>
</svg>
